G04 DipTrace 3.2.0.1*
G04 Bottom.gbr*
%MOIN*%
G04 #@! TF.FileFunction,Copper,L2,Bot*
G04 #@! TF.Part,Single*
G04 #@! TA.AperFunction,Conductor*
%ADD13C,0.012992*%
G04 #@! TA.AperFunction,ComponentPad*
%ADD14R,0.055118X0.055118*%
%ADD15C,0.059055*%
%ADD16R,0.059055X0.059055*%
%ADD17C,0.064961*%
%ADD18C,0.059055*%
%ADD19R,0.07X0.07*%
%ADD20C,0.07*%
%ADD21R,0.094488X0.094488*%
%ADD22C,0.094488*%
%ADD23R,0.062992X0.062992*%
%ADD24C,0.062992*%
%ADD25C,0.055118*%
%ADD26C,0.05315*%
%ADD27R,0.074803X0.074803*%
%ADD28C,0.074803*%
G04 #@! TA.AperFunction,ViaPad*
%ADD29C,0.04*%
%FSLAX26Y26*%
G04*
G70*
G90*
G75*
G01*
G04 Bottom*
%LPD*%
X3993701Y2643701D2*
D13*
Y2743701D1*
X3442717Y2594689D2*
Y2694685D1*
X3393701Y2743701D1*
X3756221Y2543701D2*
Y2643701D1*
X3693701D1*
X1693701Y943701D2*
X1632209Y882209D1*
Y682209D1*
X1533193Y583193D1*
Y4434173D2*
X1368705D1*
X1342721Y4408189D1*
Y3342819D1*
X1345670Y3339870D1*
Y683193D1*
X2742721Y4434173D2*
Y4244685D1*
X2768705Y4218701D1*
X2818701D1*
X2893701Y4293701D1*
X3393701Y2843701D2*
X3344685Y2794685D1*
Y2492717D1*
X3393701Y2443701D1*
X3643701Y4093701D2*
Y3833150D1*
X3568666Y3058189D2*
Y1268736D1*
X3693701Y1143701D1*
X3469646Y3058189D2*
X3410158D1*
X3643701Y3833150D2*
X3592717Y3782166D1*
Y3466213D1*
X3495670Y3369166D1*
Y3123701D1*
X3469646Y3097677D1*
Y3058189D1*
X3093701Y2943701D2*
X3142717Y2992717D1*
Y3438189D1*
X4043701Y1392717D2*
X4121693Y1470709D1*
Y3291697D1*
X3142717Y3438189D2*
Y3901106D1*
X2985638Y4058185D1*
X2972681D1*
X2933193Y4018697D1*
X4332205Y3557795D2*
Y3985524D1*
X4392717Y4046036D1*
Y4409417D1*
X4340748Y4461386D1*
X4207209Y1194685D2*
Y2832205D1*
X3784173Y1194685D2*
Y1417717D1*
X3758189Y1443701D1*
X3693701D1*
X3843701Y4093701D2*
Y4260158D1*
X3270713Y2843701D2*
Y2992717D1*
X4340748Y4461386D2*
Y4590748D1*
X4393701Y4643701D1*
X4207209Y2832205D2*
X4246697Y2871693D1*
Y3121650D1*
X4192717Y3175630D1*
Y3557795D1*
X3843701Y4260158D2*
Y4461386D1*
X3943701Y4093701D2*
Y3635130D1*
X3892717Y3584146D1*
Y3348933D1*
X3899646Y3342004D1*
Y2792717D1*
Y1749646D1*
X3693701Y1543701D1*
X2982209Y3966729D2*
X3094689Y3854249D1*
Y3318696D1*
X3042725Y3266732D1*
Y2694677D1*
X3093701Y2643701D1*
X3744685Y2292717D2*
Y1694685D1*
X3693701Y1643701D1*
X3732205Y3966729D2*
Y3597284D1*
X4043701Y4093701D2*
Y4664764D1*
X4069685Y4690748D1*
X4246654D1*
X4293701Y4643701D1*
X3292717Y3914760D2*
Y3277075D1*
X3208193Y3192551D1*
Y2469686D1*
X3246654Y2431225D1*
Y1869685D1*
X3272638Y1843701D1*
X3393701D1*
X3208193Y2469686D2*
X3182208Y2443701D1*
X3093701D1*
Y2343701D2*
X3181182D1*
X3207166Y2317717D1*
Y2253229D1*
X4243701Y4093701D2*
Y4593701D1*
X4193701Y4643701D1*
X4392717Y3940744D2*
Y3414973D1*
X4332205Y3354461D1*
Y2492717D1*
X3207166Y2253229D2*
Y2201485D1*
X3220670Y2187981D1*
Y1769685D1*
X3246654Y1743701D1*
X3393701D1*
X3093701Y2243701D2*
X3142717D1*
Y2229413D1*
X3177398Y2194732D1*
Y2155244D1*
X4301260Y4421898D2*
X4343701Y4379457D1*
Y4093701D1*
X4193701Y4421898D2*
Y4543701D1*
X3177398Y2155244D2*
Y2078331D1*
X3194685Y2061044D1*
Y1669686D1*
X3220670Y1643701D1*
X3393701D1*
X4343701Y4093701D2*
X4292717Y4042717D1*
Y2192717D1*
X4093701Y4643701D2*
X4140748Y4596654D1*
Y4355402D1*
X4192717Y4303433D1*
Y4019575D1*
X4243701Y3968591D1*
Y3495276D1*
X2814646Y2392721D2*
Y1641705D1*
X3298622Y2092717D2*
Y1964280D1*
X3324607Y1938295D1*
X3418697D1*
X3444685Y1912307D1*
Y1594685D1*
X3393701Y1543701D1*
X3137910Y2092717D2*
X3113701D1*
X3093701Y2112717D1*
Y2143701D1*
Y2043701D2*
X3142717D1*
X3168701Y2017717D1*
Y1469685D1*
X3194685Y1443701D1*
X3393701D1*
X4082205Y2092717D2*
Y3356130D1*
X4143701Y3417626D1*
Y3495276D1*
X4093701Y4315918D2*
Y4543701D1*
X4143701Y3495276D2*
X4093701Y3545276D1*
Y4315918D1*
X3843701Y1937205D2*
Y3495276D1*
X4632205Y4768701D2*
X1219685D1*
X1193701Y4742717D1*
Y4293701D1*
X3843701Y3723713D2*
X3881173Y3761185D1*
X3892717D1*
Y4421127D1*
X3940748Y4469158D1*
Y4590748D1*
X3993701Y4643701D1*
X3843701Y3495276D2*
Y3723713D1*
X4042717Y1894685D2*
Y2131713D1*
X4043701Y2132697D1*
Y3495276D1*
X3393701Y1243701D2*
D3*
X1123229Y4660095D2*
X1093701D1*
Y4293701D1*
X4043701Y3495276D2*
X3993701Y3545276D1*
Y4543701D1*
X3444685Y1294685D2*
D3*
X3393701Y1243701D2*
X3413189D1*
X3444685Y1275197D1*
Y1294685D1*
X3093701Y1743701D2*
X2993705Y1843697D1*
Y3281201D1*
X3068705Y3356201D1*
Y3796614D1*
X2992681Y3872638D1*
X4443701Y4093701D2*
Y4690748D1*
X4417717Y4716732D1*
X3966732D1*
X3893701Y4643701D1*
X3093701Y1643701D2*
X2967721Y1769681D1*
Y3344685D1*
X3042721Y3419685D1*
Y3716732D1*
X3016736Y3742717D1*
X2968702D1*
X2942717Y3716732D1*
Y3647713D1*
X2939689Y3644685D1*
X3692717Y3446256D2*
Y4118701D1*
X3740748Y4166732D1*
Y4564764D1*
X3766732Y4590748D1*
X3846654D1*
X3893701Y4543701D1*
X2939689Y3644685D2*
D3*
X4593701Y643701D2*
X4668701Y718701D1*
Y3968701D1*
X4543701Y4093701D1*
X3535158Y683189D2*
Y904213D1*
X3793701Y4643701D2*
X3720670Y4716732D1*
X1668705D1*
X1642721Y4690748D1*
Y3942721D1*
X1393701Y3693701D1*
X4543701Y4093701D2*
Y4716733D1*
X4517717Y4742717D1*
X3892717D1*
X3793701Y4643701D1*
X3693701Y2743701D2*
X3793701Y2843701D1*
Y4543701D1*
X3393701Y2643701D2*
Y2543701D1*
X1893701Y1343701D2*
X1820669D1*
X1794685Y1369685D1*
Y2317717D1*
X1768701Y2343701D1*
X1693701D1*
X2493701Y1343701D2*
X2412126Y1425276D1*
Y2204213D1*
X1742717Y2292717D2*
Y2243701D1*
X1693701D1*
X1893701Y1143701D2*
X1768701Y1268701D1*
Y2068701D1*
X1693701Y2143701D1*
X2008189Y994685D2*
Y1980202D1*
X1995670Y1992721D1*
X2493701Y1043701D2*
X2398622Y948622D1*
Y469173D1*
X2372638Y443189D1*
X1519689D1*
X1493705Y469173D1*
Y1917717D1*
X1519689Y1943701D1*
X1693701D1*
X1592721Y792721D2*
Y1817717D1*
X1618705Y1843701D1*
X1693701D1*
X1834173Y1892721D2*
Y1392717D1*
X1942716D1*
X1968701Y1366732D1*
Y859217D1*
X2035197Y792721D1*
X1632209Y1792721D2*
X1664173D1*
X1693701Y1763193D1*
Y1743701D1*
X1893701Y643699D2*
X1742717Y794683D1*
Y966736D1*
X1716732Y992721D1*
X1644689D1*
X1618705Y1018705D1*
Y1568705D1*
X1693701Y1643701D1*
X2898662Y2494689D2*
Y2852725D1*
X2928232Y2882295D1*
Y3032209D1*
X2542717Y3087910D2*
Y3531162D1*
X2593701Y3582146D1*
Y3693701D1*
X3093701Y3143701D2*
Y3243701D1*
X3693701Y2543701D2*
Y2443701D1*
X2928232Y3032209D2*
Y3042291D1*
X2938150Y3052209D1*
Y3087910D1*
X2898662D1*
X2928232Y3032209D2*
D3*
X3193701Y4643701D2*
D3*
X2333189Y3248662D2*
X2240717D1*
X3293701Y4543701D2*
X3230158Y4480158D1*
X2843256D1*
X2790225Y4533189D1*
X2668705D1*
X2642721Y4507205D1*
Y3873662D1*
X2568706D1*
X2542721Y3847677D1*
Y3612894D1*
X2482209Y3552382D1*
Y3430205D1*
X1793701Y3243701D2*
X1571654D1*
X1545670Y3217717D1*
Y2338910D1*
X1419252Y2212492D1*
Y669685D1*
X1393268Y643701D1*
X1093701D1*
X2642721Y3873662D2*
X2693701Y3822682D1*
Y3693701D1*
X3193701Y4643701D2*
X3213189D1*
X3240748Y4616142D1*
Y4596654D1*
X3293701Y4543701D1*
X3543701Y4093701D2*
Y4564764D1*
X3569685Y4590748D1*
X3640748D1*
X3693701Y4643701D1*
X2673662Y1543701D2*
Y3361268D1*
X2644213Y3390717D1*
X3093701Y1543701D2*
X3005197D1*
X2293701Y3693701D2*
X2293705Y3390717D1*
X2293701Y4142717D2*
Y3693701D1*
X3093701Y1343701D2*
X3316732Y1120670D1*
Y820670D1*
X3393701Y743701D1*
X2193701Y3693701D2*
X2193705Y4058185D1*
X2735670Y1343701D2*
Y3565178D1*
X2842721Y3672229D1*
Y4058185D1*
X2789729D1*
X3443701Y4093701D2*
Y4365118D1*
X3393701Y643701D2*
X3264704Y772698D1*
Y1072698D1*
X3093701Y1243701D1*
X3182209Y3562166D2*
Y3898622D1*
X3116736Y3964095D1*
Y4368917D1*
X3142721Y4394902D1*
X3317717D1*
X3343701Y4420886D1*
Y4664764D1*
X3369685Y4690748D1*
X3546654D1*
X3593701Y4643701D1*
X2093701Y3693701D2*
Y3562166D1*
X3317717Y4394902D2*
X3343701Y4368918D1*
Y4093701D1*
X3093701Y1243701D2*
X3044685Y1292717D1*
Y1466732D1*
X3070670Y1492717D1*
X3116733D1*
X3142717Y1518701D1*
Y1966732D1*
X3116732Y1992717D1*
X3045673D1*
X3019689Y2018701D1*
Y2566733D1*
X3045673Y2592717D1*
X3156225D1*
X3182209Y2618701D1*
Y3562166D1*
X3031181Y1143701D2*
X3093701D1*
X2775158Y3426736D2*
Y1143701D1*
X3243701Y3495276D2*
Y3946343D1*
X3156229Y4033815D1*
Y4286142D1*
X3593701D2*
Y4543701D1*
X1993701Y3693701D2*
X1993705Y3457209D1*
X3093701Y1143701D2*
X3168701Y1068701D1*
Y495157D1*
X3194685Y469173D1*
X3619173D1*
X3693701Y543701D1*
X3493701Y4643701D2*
X3440748Y4590748D1*
Y4428622D1*
X3392717Y4380591D1*
Y3795709D1*
X3332205Y3735197D1*
X2920630Y2392717D2*
Y1069685D1*
X2946614Y1043701D1*
X3093701D1*
X3343701Y3495276D2*
Y2892717D1*
X3463704D1*
X3489689Y2866732D1*
Y2418701D1*
X3463705Y2392717D1*
X3495670Y2360752D1*
Y643701D1*
X3693701D1*
X3463705Y2392717D2*
X3349492D1*
X3332205Y3735197D2*
X3392717Y3674685D1*
Y3544292D1*
X3343701Y3495276D1*
X2582209Y3788705D2*
X2642721Y3728193D1*
Y3554690D1*
X2594685Y3506654D1*
Y969686D1*
X2620670Y943701D1*
X3018705D1*
Y482677D1*
Y943701D2*
X3093701D1*
X3443701Y3495276D2*
Y3689965D1*
X3432205Y3701461D1*
Y3774685D1*
X3444685Y594685D2*
X3614134D1*
X3432205Y3774685D2*
X3493701Y3836181D1*
Y4543701D1*
X3543701Y3495276D2*
Y3994189D1*
X3592717Y4043205D1*
Y4198768D1*
X3636520Y4242571D1*
Y4483154D1*
X3939134Y3344685D2*
Y1527425D1*
X3873666Y1461957D1*
Y843701D1*
X3643701Y3495276D2*
Y3400445D1*
X3529177Y3285921D1*
Y2432205D1*
X2880118Y1681193D2*
Y1018702D1*
X2906103Y992717D1*
X3116732D1*
X3142717Y966732D1*
Y792717D1*
X3093701Y743701D1*
X3332205Y3820670D2*
Y3996319D1*
X3292717Y4035807D1*
Y4351614D1*
X3393701Y4473870D2*
Y4543701D1*
X3529177Y2432205D2*
Y1108225D1*
X3693701Y943701D1*
X1093701Y2443701D2*
Y2953724D1*
X1067713Y2979711D1*
X755696D1*
X1093701Y2343701D2*
X1018701Y2418701D1*
Y2844725D1*
X992717Y2870709D1*
X755696D1*
X1093701Y2243701D2*
X910264Y2427138D1*
Y2735721D1*
X884279Y2761706D1*
X755696D1*
X1093701Y2143701D2*
X884280Y2353122D1*
Y2626716D1*
X858292Y2652703D1*
X755696D1*
X1093701Y2043701D2*
X858295Y2279107D1*
Y2572205D1*
X832311Y2598189D1*
X724173D1*
X698189Y2624173D1*
Y2871221D1*
X643701Y2925709D1*
X1093701Y1843701D2*
X1044681Y1892721D1*
X567083D1*
X541099Y1918705D1*
Y2714104D1*
X643701Y2816706D1*
X1093701Y1943701D2*
X832311Y2205091D1*
Y2376339D1*
X806327Y2402323D1*
X669686D1*
X643701Y2428308D1*
Y2598701D1*
X1995670Y2143701D2*
Y3143701D1*
X2021654Y3169685D1*
X2416736D1*
X2442721Y3195670D1*
Y3999080D1*
X2593701Y4150060D1*
Y4293701D1*
X2131181Y2143701D2*
X2193701D1*
X2493701Y4293701D2*
X2418701Y4368701D1*
X1868705D1*
X1842721Y4342717D1*
Y3208867D1*
X1644685Y3010831D1*
Y2018706D1*
X1670670Y1992721D1*
X1716732D1*
X1742717Y1966736D1*
Y1592717D1*
X1693701Y1543701D1*
X2854134Y1792717D2*
Y3300886D1*
X2993701Y3440453D1*
Y3693701D1*
X2117721Y2632205D2*
Y2319681D1*
X2193701Y2243701D1*
X1956181Y2881185D2*
Y3299259D1*
X1982166Y3325244D1*
X2316736D1*
X2342721Y3351229D1*
Y4242721D1*
X2393701Y4293701D1*
X596850Y1666535D2*
Y1469488D1*
X642717Y1423622D1*
Y1128780D1*
X593701Y1079764D1*
Y990551D1*
X1493701Y2645669D2*
Y3345701D1*
X1395701Y3443701D1*
X2883701Y3478701D2*
Y3530670D1*
X2893701Y3540670D1*
Y3693701D1*
X596850Y3684646D2*
Y4217716D1*
X622835Y4243701D1*
X693701D1*
X4393701Y3293701D2*
Y3043701D1*
X1943701Y2793701D2*
X1819685D1*
X1793701Y2819685D1*
Y2943701D1*
X3042717Y4097673D2*
X2942721Y4197669D1*
Y4329216D1*
X2903236Y4368701D1*
Y4440670D1*
X3272638Y2543701D2*
Y2369685D1*
X3298622Y2343701D1*
X3393701D1*
X1893701Y543701D2*
Y592721D1*
X1796500D1*
X1891732Y1571418D2*
Y1841732D1*
X1893701Y1843701D1*
Y1943701D1*
X4593701Y1243701D2*
X4544685Y1292717D1*
Y2094685D1*
X4593701Y2143701D1*
X3993701Y1243701D2*
X4042717Y1194685D1*
Y792717D1*
X3993701Y743701D1*
X2493701Y2543701D2*
X2542717D1*
X2568701Y2517717D1*
Y2118701D1*
X2493701Y2043701D1*
X642717Y1423622D2*
X668701Y1449606D1*
X793701D1*
X3574646Y543701D2*
X3393701D1*
X2343701Y4643701D2*
Y4493701D1*
X1093701Y543701D2*
X1314292Y543705D1*
X593701Y990551D2*
X710719D1*
X736708Y964563D1*
Y900694D1*
X1093701Y543701D1*
X2903236Y4368701D2*
X2868701D1*
X2793701Y4293701D1*
X2893701Y3693701D2*
Y4071685D1*
X2919689Y4097673D1*
X3042717D1*
X4393701Y3043701D2*
Y2143701D1*
X3443701D2*
Y2043701D1*
X3393701Y2343701D2*
Y2193701D1*
X3443701Y2143701D1*
X3993701Y743701D2*
Y643701D1*
X2493701Y1743701D2*
X2542717Y1694685D1*
Y1492717D1*
X2493701Y1443701D1*
Y1843701D2*
Y1743701D1*
Y1943701D2*
Y1843701D1*
Y2043701D2*
Y1943701D1*
Y3143701D2*
X2100630D1*
X2074646Y3117717D1*
Y1462754D1*
X2193701Y1343699D1*
X2634173Y3043701D2*
Y1292717D1*
X2193701Y1143701D2*
X2242717D1*
X2268701Y1169685D1*
Y2718701D1*
X2493701Y2943701D1*
X2035158Y2492717D2*
Y1069684D1*
X2061142Y1043699D1*
X2193701D1*
X2308189Y2492717D2*
Y2658189D1*
X2493701Y2843701D1*
Y2743701D2*
X2418701Y2668701D1*
Y2518701D1*
X2444685Y2492717D1*
X2516732D1*
X2542717Y2466732D1*
Y2318702D1*
X2516732Y2292717D1*
X2372639D1*
X2346654Y2266732D1*
Y618701D1*
X2320670Y592717D1*
X2144689D1*
X2118705Y618701D1*
Y766733D1*
X2144689Y792717D1*
X2216733D1*
X2242717Y818701D1*
Y894683D1*
X2193701Y943699D1*
X2209173Y2737166D2*
X2242717Y2703622D1*
Y1218702D1*
X2216732Y1192717D1*
X2144686D1*
X2118701Y1166732D1*
Y1118701D1*
X2144685Y1092717D1*
X2216732D1*
X2242717Y1066732D1*
Y1018702D1*
X2216732Y992717D1*
X2170670D1*
X2144685Y966732D1*
Y892717D1*
X2193701Y843701D1*
X2493701Y2443701D2*
X2320669D1*
X2294685Y2417717D1*
Y769685D1*
X2268699Y743699D1*
X2193701D1*
X2493701Y2343701D2*
X2346654D1*
X2320670Y2317717D1*
Y669686D1*
X2294683Y643699D1*
X2193701D1*
X2493701Y2243701D2*
X2372638D1*
Y495157D1*
X2346654Y469173D1*
X1768229D1*
X1693701Y543701D1*
Y1443701D2*
X1742717Y1394685D1*
Y1118701D1*
X1768701Y1092717D1*
X1916732D1*
X1942717Y1066732D1*
Y569685D1*
X1968701Y543701D1*
X2193701D1*
X4593701Y743701D2*
X4642717Y792717D1*
Y2594685D1*
X4593701Y2643701D1*
X4492717Y2932205D2*
Y2544685D1*
X4593701Y2443701D1*
X3943701Y3495276D2*
Y3418796D1*
X3992717Y3369780D1*
Y2932205D1*
X4593701Y2443701D2*
X4492717Y2342717D1*
Y644685D1*
X4593701Y543701D1*
X893701Y4393701D2*
X1018701Y4268701D1*
Y3418701D1*
X1193701Y3243701D1*
X1943701Y1643701D2*
Y2466737D1*
X1917717Y2492721D1*
X1742721D1*
X1693701Y2443701D1*
X2690673Y4493701D2*
D3*
X3693701Y1843701D2*
Y1930134D1*
X3643701Y1980134D1*
Y2043701D1*
X2193701Y2543701D2*
Y2646693D1*
X2143701Y2696693D1*
Y2793701D1*
X4593701Y3293701D2*
Y3445276D1*
X4543701Y3495276D1*
X3993701Y1443701D2*
X3944685Y1394685D1*
Y592717D1*
X3993701Y543701D1*
X2293701Y4293701D2*
X2242721Y4242721D1*
Y3430206D1*
X2216736Y3404221D1*
X1956232D1*
X1267713Y2543701D2*
Y1818705D1*
X1241729Y1792721D1*
X860831D1*
X793701Y1725591D1*
X1293701Y2645669D2*
Y2583189D1*
X1267713D1*
Y2543701D1*
X1293701Y3115709D2*
Y2645669D1*
X1193701Y3243701D2*
X1242717Y3194685D1*
X1293701D1*
Y3115709D1*
X2793701Y3693701D2*
X2683701Y3583701D1*
Y3478701D1*
X2693701Y4293701D2*
Y4023429D1*
X2793701Y3923429D1*
Y3693701D1*
X2690673Y4493701D2*
X2693701Y4490673D1*
Y4293701D1*
X3643701Y2043701D2*
Y2893701D1*
X3693701Y2943701D1*
X4543701Y3495276D2*
X4443701D1*
X693701Y4143701D2*
Y3843701D1*
X793701Y3743701D1*
Y1607480D2*
X987764D1*
X1013750Y1581495D1*
Y1423652D1*
X1093701Y1343701D1*
X4161181Y2971693D2*
Y469173D1*
X4135197Y443189D1*
X3770669D1*
X3744685Y469173D1*
X3718701Y443189D1*
X3119685D1*
X3093701Y469173D1*
Y548701D1*
X3693701Y2843701D2*
X3742717Y2892717D1*
Y2987910D1*
X3744685Y469173D2*
Y1398099D1*
X2393701Y3693701D2*
Y4061837D1*
X2542721Y4210857D1*
Y4316240D1*
X2595670Y4369189D1*
Y4664764D1*
X2621654Y4690748D1*
X3246654D1*
X3293701Y4643701D1*
X2393701Y3209173D2*
Y3693701D1*
D29*
X3442717Y2594689D3*
X3756221Y2543701D3*
X1533193Y583193D3*
X1345670Y683193D3*
X1533193Y4434173D3*
X2742721D3*
X3568666Y3058189D3*
X3469646D3*
X3410158D3*
X3643701Y3833150D3*
X2933193Y4018697D3*
X3142717Y3438189D3*
X4121693Y3291697D3*
X4043701Y1392717D3*
X4332205Y3557795D3*
X4192717D3*
X4207209Y1194685D3*
X3784173D3*
X3843701Y4461386D3*
X4340748D3*
X4207209Y2832205D3*
X3270713Y2992717D3*
Y2843701D3*
X3843701Y4260158D3*
X3899646Y2792717D3*
X3744685Y2292717D3*
X3732205Y3597284D3*
Y3966729D3*
X2982209D3*
X3292717Y3914760D3*
X4332205Y2492717D3*
X4392717Y3940744D3*
X3207166Y2253229D3*
X4292717Y2192717D3*
X3177398Y2155244D3*
X4301260Y4421898D3*
X4193701D3*
X2814646Y1641705D3*
Y2392721D3*
X3298622Y2092717D3*
X3137910D3*
X4093701Y4315918D3*
X4082205Y2092717D3*
X3843701Y3723713D3*
X4632205Y4768701D3*
X3843701Y1937205D3*
X4042717Y1894685D3*
X3444685Y1294685D3*
X1123229Y4660095D3*
X2992681Y3872638D3*
X3692717Y3446256D3*
X2939689Y3644685D3*
X3535158Y904213D3*
Y683189D3*
X2412126Y2204213D3*
X1742717Y2292717D3*
X1995670Y1992721D3*
X2008189Y994685D3*
X1592721Y792721D3*
X2035197D3*
X1834173Y1892721D3*
X1632209Y1792721D3*
X2542717Y3087910D3*
X2928232Y3032209D3*
X2898662Y3087910D3*
Y2494689D3*
X2482209Y3430205D3*
X2240717Y3248662D3*
X2333189D3*
X2293705Y3390717D3*
X2644213D3*
X2673662Y1543701D3*
X3005197D3*
X2293701Y4142717D3*
X2193705Y4058185D3*
X2789729D3*
X3443701Y4365118D3*
X2735670Y1343701D3*
X2093701Y3562166D3*
X3182209D3*
X2775158Y1143701D3*
X3031181D3*
X3156229Y4286142D3*
X3593701D3*
X1993705Y3457209D3*
X2775158Y3426736D3*
X3332205Y3735197D3*
X2920630Y2392717D3*
X3349492D3*
X2582209Y3788705D3*
X3614134Y594685D3*
X3444685D3*
X3018705Y482677D3*
X3432205Y3774685D3*
X3636520Y4483154D3*
X3873666Y843701D3*
X3939134Y3344685D3*
X3529177Y2432205D3*
X2880118Y1681193D3*
X3292717Y4351614D3*
X3393701Y4473870D3*
X3332205Y3820670D3*
X1995670Y2143701D3*
X2131181D3*
X2854134Y1792717D3*
X2117721Y2632205D3*
X1956181Y2881185D3*
X4393701Y2143701D3*
X1314292Y543705D3*
X1796500Y592721D3*
X3574646Y543701D3*
X2343701Y4643701D3*
X2903236Y4440670D3*
X3272638Y2543701D3*
X1891732Y1571418D3*
X3042717Y4097673D3*
X3443701Y2143701D3*
X2634173Y1292717D3*
Y3043701D3*
X2035158Y2492717D3*
X2308189D3*
X2209173Y2737166D3*
X4492717Y2932205D3*
X3992717D3*
X1293701Y3115709D3*
X1956232Y3404221D3*
X2690673Y4493701D3*
X1267713Y2543701D3*
X4161181Y2971693D3*
X3742717Y2987910D3*
X2393701Y3209173D3*
X3744685Y1398099D3*
D14*
X2493701Y3243701D3*
D15*
Y3143701D3*
Y3043701D3*
Y2943701D3*
Y2843701D3*
Y2743701D3*
Y2643701D3*
Y2543701D3*
Y2443701D3*
Y2343701D3*
Y2243701D3*
Y2143701D3*
Y2043701D3*
Y1943701D3*
Y1843701D3*
Y1743701D3*
Y1643701D3*
Y1543701D3*
Y1443701D3*
Y1343701D3*
Y1243701D3*
Y1143701D3*
Y1043701D3*
Y943701D3*
Y843701D3*
Y743701D3*
Y643701D3*
Y548701D3*
X3093701D3*
Y643701D3*
Y743701D3*
Y843701D3*
Y943701D3*
Y1043701D3*
Y1143701D3*
Y1243701D3*
Y1343701D3*
Y1443701D3*
Y1543701D3*
Y1643701D3*
Y1743701D3*
Y1843701D3*
Y1943701D3*
Y2043701D3*
Y2143701D3*
Y2243701D3*
Y2343701D3*
Y2443701D3*
Y2543701D3*
Y2643701D3*
Y2743701D3*
Y2843701D3*
Y2943701D3*
Y3043701D3*
Y3143701D3*
Y3243701D3*
D16*
X3993701Y2843701D3*
D15*
Y2743701D3*
Y2643701D3*
Y2543701D3*
Y2443701D3*
Y2343701D3*
Y2243701D3*
Y2143701D3*
Y2043701D3*
Y1943701D3*
Y1843701D3*
Y1743701D3*
Y1643701D3*
Y1543701D3*
Y1443701D3*
Y1343701D3*
Y1243701D3*
Y1143701D3*
Y1043701D3*
Y943701D3*
Y843701D3*
Y743701D3*
Y643701D3*
Y543701D3*
X4593701D3*
Y643701D3*
Y743701D3*
Y843701D3*
Y943701D3*
Y1043701D3*
Y1143701D3*
Y1243701D3*
Y1343701D3*
Y1443701D3*
Y1543701D3*
Y1643701D3*
Y1743701D3*
Y1843701D3*
Y1943701D3*
Y2043701D3*
Y2143701D3*
Y2243701D3*
Y2343701D3*
Y2443701D3*
Y2543701D3*
Y2643701D3*
Y2743701D3*
Y2843701D3*
D17*
X893701Y4193701D3*
Y4393701D3*
X3643701Y3193701D3*
X3443701D3*
X1493701Y2645669D3*
X1293701D3*
X2143701Y1643701D3*
X1943701D3*
X4393701Y3043701D3*
X4193701D3*
X1943701Y2793701D3*
X2143701D3*
X1395701Y3443701D3*
X1595701D3*
X2883701Y3478701D3*
X2683701D3*
X3443701Y2043701D3*
X3643701D3*
X2343701Y4493701D3*
X2543701D3*
X4393701Y3293701D3*
X4593701D3*
D16*
X1193701Y3243701D3*
D18*
Y2943701D3*
X1793701D3*
Y3243701D3*
D19*
X755696Y2979711D3*
D20*
Y2870709D3*
Y2761706D3*
Y2652703D3*
Y2543701D3*
X643701Y2925709D3*
Y2816706D3*
Y2707703D3*
Y2598701D3*
D16*
X4543701Y4093701D3*
D15*
X4443701D3*
X4343701D3*
X4243701D3*
X4143701D3*
X4043701D3*
X3943701D3*
X3843701D3*
X3743701D3*
X3643701D3*
X3543701D3*
X3443701D3*
X3343701D3*
X3243701D3*
Y3495276D3*
X3343701D3*
X3443701D3*
X3543701D3*
X3643701D3*
X3743701D3*
X3843701D3*
X3943701D3*
X4043701D3*
X4143701D3*
X4243701D3*
X4343701D3*
X4443701D3*
X4543701D3*
X593701Y1343701D3*
D16*
Y1243701D3*
D21*
Y793701D3*
D22*
Y990551D3*
D23*
X3393701Y1843701D3*
D24*
Y1743701D3*
Y1643701D3*
Y1543701D3*
Y1443701D3*
Y1343701D3*
Y1243701D3*
Y1143701D3*
Y1043701D3*
Y943701D3*
Y843701D3*
Y743701D3*
Y643701D3*
Y543701D3*
X3693701D3*
Y643701D3*
Y743701D3*
Y843701D3*
Y943701D3*
Y1043701D3*
Y1143701D3*
Y1243701D3*
Y1343701D3*
Y1443701D3*
Y1543701D3*
Y1643701D3*
Y1743701D3*
Y1843701D3*
D25*
X3793701Y4643701D3*
X3693701D3*
X3593701D3*
X3493701D3*
X3393701D3*
X3293701D3*
X3193701D3*
X3093701D3*
X3793701Y4543701D3*
X3693701D3*
X3593701D3*
X3493701D3*
X3393701D3*
X3293701D3*
X3193701D3*
X3093701D3*
D14*
X4493701Y4643701D3*
D25*
X4393701D3*
X4293701D3*
X4193701D3*
X4093701D3*
X3993701D3*
X3893701D3*
X4493701Y4543701D3*
X4393701D3*
X4293701D3*
X4193701D3*
X4093701D3*
X3993701D3*
X3893701D3*
D16*
X2993701Y4293701D3*
D15*
X2893701D3*
X2793701D3*
X2693701D3*
X2593701D3*
X2493701D3*
X2393701D3*
X2293701D3*
X2193701D3*
X2093701D3*
X1993701D3*
X1893701D3*
X1793701D3*
X1693701D3*
X1593701D3*
X1493701D3*
X1393701D3*
X1293701D3*
X1193701D3*
X1093701D3*
Y3693701D3*
X1193701D3*
X1293701D3*
X1393701D3*
X1493701D3*
X1593701D3*
X1693701D3*
X1793701D3*
X1893701D3*
X1993701D3*
X2093701D3*
X2193701D3*
X2293701D3*
X2393701D3*
X2493701D3*
X2593701D3*
X2693701D3*
X2793701D3*
X2893701D3*
X2993701D3*
D16*
X3393701Y2943701D3*
D15*
Y2843701D3*
Y2743701D3*
Y2643701D3*
Y2543701D3*
Y2443701D3*
Y2343701D3*
X3693701D3*
Y2443701D3*
Y2543701D3*
Y2643701D3*
Y2743701D3*
Y2843701D3*
Y2943701D3*
D16*
X1893701Y2543701D3*
D15*
Y2443701D3*
Y2343701D3*
Y2243701D3*
Y2143701D3*
Y2043701D3*
Y1943701D3*
X2193701D3*
Y2043701D3*
Y2143701D3*
Y2243701D3*
Y2343701D3*
Y2443701D3*
Y2543701D3*
D16*
X793701Y3743701D3*
D15*
X596850Y3684646D3*
X793701Y3625591D3*
D16*
X1893701Y1443701D3*
D15*
Y1343701D3*
Y1243701D3*
Y1143701D3*
Y1043699D3*
Y943699D3*
Y843701D3*
Y743699D3*
Y643699D3*
Y543701D3*
X2193701Y1443699D3*
Y1343699D3*
Y1243699D3*
Y1143701D3*
Y1043699D3*
Y943699D3*
Y843701D3*
Y743699D3*
Y643699D3*
Y543701D3*
D16*
X1093701Y2443701D3*
D15*
Y2343701D3*
Y2243701D3*
Y2143701D3*
Y2043701D3*
Y1943701D3*
Y1843701D3*
Y1743701D3*
Y1643701D3*
Y1543701D3*
Y1443701D3*
Y1343701D3*
Y1243701D3*
Y1143701D3*
Y1043701D3*
Y943701D3*
Y843701D3*
Y743701D3*
Y643701D3*
Y543701D3*
X1693701D3*
Y643701D3*
Y743701D3*
Y843701D3*
Y943701D3*
Y1043701D3*
Y1143701D3*
Y1243701D3*
Y1343701D3*
Y1443701D3*
Y1543701D3*
Y1643701D3*
Y1743701D3*
Y1843701D3*
Y1943701D3*
Y2043701D3*
Y2143701D3*
Y2243701D3*
Y2343701D3*
Y2443701D3*
D26*
X793701Y1193701D3*
Y1449606D3*
D16*
Y1843701D3*
D15*
X596850Y1784646D3*
X793701Y1725591D3*
X596850Y1666535D3*
X793701Y1607480D3*
D27*
X693701Y4143701D3*
D28*
Y4243701D3*
Y4343701D3*
M02*
