G04 DipTrace 3.2.0.1*
G04 Bottom.gbr*
%MOIN*%
G04 #@! TF.FileFunction,Copper,L2,Bot*
G04 #@! TF.Part,Single*
G04 #@! TA.AperFunction,Conductor*
%ADD13C,0.012992*%
G04 #@! TA.AperFunction,ComponentPad*
%ADD14C,0.064961*%
%ADD15R,0.059055X0.059055*%
%ADD16C,0.059055*%
%ADD17R,0.07X0.07*%
%ADD18C,0.07*%
%ADD19C,0.059055*%
%ADD20C,0.055118*%
%ADD21R,0.055118X0.055118*%
%ADD22R,0.062992X0.062992*%
%ADD23C,0.062992*%
%ADD24C,0.05315*%
%ADD25R,0.094488X0.094488*%
%ADD26C,0.094488*%
%ADD27R,0.074803X0.074803*%
%ADD28C,0.074803*%
G04 #@! TA.AperFunction,ViaPad*
%ADD29C,0.04*%
%FSLAX26Y26*%
G04*
G70*
G90*
G75*
G01*
G04 Bottom*
%LPD*%
X2087060Y2815538D2*
D13*
Y2715538D1*
Y2615538D2*
X1862060Y2840538D1*
Y3290538D1*
X1787060Y3365538D1*
X3187060Y2115538D2*
X3249580Y2178058D1*
Y2704042D1*
X4286076Y2654046D2*
Y2464554D1*
X4237060Y2415538D1*
X2131269Y2064554D2*
X1964029D1*
X1938045Y2038570D1*
Y1041522D1*
X1912060Y1015538D1*
X1837060D1*
X1487060Y3165538D2*
X1536076Y3214554D1*
Y3516522D1*
X1487060Y3565538D1*
X4387060Y3465538D2*
X4438045Y3516522D1*
Y3672510D1*
X649738Y4462585D2*
X829879D1*
X649738Y4315538D2*
X787060D1*
X4102533Y3153455D2*
X4081512Y3174475D1*
X3937060D1*
Y2965538D1*
X4775564Y3306995D2*
Y3214007D1*
X4715013Y3153455D1*
X4740997Y3127471D1*
Y2225444D1*
X4768005Y2198436D1*
Y2004046D1*
X4715013Y3153455D2*
X4215013D1*
X4438045Y3672510D2*
Y4217944D1*
X4412060Y4243928D1*
X4262647D1*
X3952533Y4554042D1*
X3937060Y2965538D2*
Y2857751D1*
X3915013Y2835703D1*
Y2401522D1*
X3940997Y2375538D1*
X4037060D1*
X4137060Y2965538D2*
Y2405538D1*
X4037060Y2305538D1*
X4287060Y3686010D2*
Y3465538D1*
X3788045Y3174475D2*
Y3016522D1*
X3393993Y3646522D2*
Y3514562D1*
X3209037Y3329605D1*
Y3254046D1*
X4237060Y2965538D2*
Y2911180D1*
X4188041Y2862160D1*
Y2292507D1*
X4214025Y2266522D1*
X4183042Y2235538D1*
X4037060D1*
X4636076Y3633022D2*
X4517021D1*
X4477533Y3593534D1*
X2423588D2*
Y3928018D1*
X4187060Y3593534D2*
Y3465538D1*
X4470013Y2269522D2*
Y1517550D1*
X4214025Y2266522D2*
X4283076D1*
X4286076Y2269522D1*
X4337060Y2965538D2*
Y2827196D1*
X4325564Y2815699D1*
Y2179042D1*
X4286076Y2139554D1*
Y1464554D1*
X4237060Y1415538D1*
X4286076Y2139554D2*
X4260092Y2165538D1*
X4037060D1*
X4087060Y3465538D2*
Y3945499D1*
X4036076Y3996483D1*
X887060Y4476089D2*
Y4415538D1*
X4675564Y3580030D2*
X4536076D1*
X4437060Y2965538D2*
Y2838219D1*
X4351549Y2752707D1*
Y2104046D1*
X4312060Y2064558D1*
Y1390538D1*
X4237060Y1315538D1*
X3979541Y3917507D2*
Y3800239D1*
X3987060Y3792719D1*
Y3465538D1*
X4376549Y3711999D2*
Y3917507D1*
X4237060Y1215538D2*
X4351549Y1330026D1*
Y1717550D1*
X4037060Y1955538D2*
X4163084D1*
X3887060Y3465538D2*
Y3911475D1*
X3861076Y3937459D1*
X3762062D1*
X3736076Y3963444D1*
Y4540537D1*
X3710092Y4566522D1*
X1138045D1*
X987060Y4415538D1*
X4637060Y3265538D2*
X4536076Y3366522D1*
Y3514558D1*
X4562060Y3540542D1*
X4710092D1*
X4736076Y3566526D1*
Y4112983D1*
X4762060Y4138967D1*
X4940997D1*
X4966982Y4112983D1*
Y1290542D1*
X4940997Y1264558D1*
X4733478D1*
X4707493Y1290542D1*
Y1506999D1*
X4351549Y1717550D2*
Y1964558D1*
X3111080Y4045459D2*
Y3846003D1*
X3164072Y3793010D1*
X4391037Y1664558D2*
Y1289007D1*
X4237060Y1135030D1*
Y1115538D1*
X3787060Y3465538D2*
Y3793010D1*
X3523596Y1764648D2*
D3*
X3164072Y3793010D2*
X3085096Y3714033D1*
Y3092999D1*
X3236076Y2942018D1*
Y2769514D1*
X3262060Y2743530D1*
X3484108D1*
X3510092Y2717546D1*
Y1778152D1*
X3523596Y1764648D1*
X4037060Y1885538D2*
X3976509D1*
X4123596D2*
X4037060D1*
X4237060Y1115538D2*
D3*
X3687060Y3465538D2*
Y3787266D1*
X3675564Y3798762D1*
Y3871987D1*
X4237060Y1015538D2*
X4188045Y1064554D1*
Y1664554D1*
X4037060Y1815538D1*
X4898556Y3871987D2*
X4940997Y3829546D1*
Y1390542D1*
X4915013Y1364558D1*
X4792852D1*
X3675564Y3871987D2*
X3636076Y3911475D1*
Y4514552D1*
X3610092Y4540538D1*
X1212060D1*
X1087060Y4415538D1*
X3859462Y1159975D2*
Y1567940D1*
X4037060Y1745538D1*
X1187060Y4315538D2*
X570328Y3698806D1*
Y579007D1*
X596312Y553022D1*
X1281269D1*
X3787060Y4063963D2*
Y4204440D1*
X4296588D2*
X4337060Y4163969D1*
Y3265538D1*
X4037060Y1745538D2*
X4162060Y1620538D1*
Y990538D1*
X4237060Y915538D1*
Y3265538D2*
Y4086999D1*
X4211076Y4112983D1*
X3936080D1*
X3887060Y4063963D1*
Y4566524D1*
X3861076Y4592507D1*
X960092D1*
X934108Y4566522D1*
Y4388570D1*
X960092Y4362585D1*
X1134108D1*
X1187060Y4415538D1*
X4627966Y1164558D2*
X4899579D1*
X4925564Y1138573D1*
Y456696D1*
X934108Y4388570D2*
X908123Y4362585D1*
X544344D1*
X518360Y4336601D1*
Y495160D1*
X544344Y469176D1*
X1108730D1*
X4237060Y815538D2*
X4136076Y916522D1*
Y1576522D1*
X4037060Y1675538D1*
X4299580Y815538D2*
X4237060D1*
X4430525Y2104046D2*
Y1564558D1*
X4187060Y4063963D2*
X4137060Y4013963D1*
Y3265538D1*
X4430525Y1564558D2*
Y573114D1*
X4404541Y547129D1*
X4214029D1*
X4188045Y573113D1*
Y666522D1*
X4237060Y715538D1*
X4728517Y2104046D2*
D3*
X4137060Y3265538D2*
Y3200461D1*
X4175525Y3161995D1*
Y3133963D1*
X4201509Y3107979D1*
X4689029D1*
X4715013Y3081995D1*
Y2117550D1*
X4728517Y2104046D1*
X4037060Y1535538D2*
X4110092Y1462507D1*
Y790543D1*
X4136076Y764558D1*
X4286075D1*
X4312060Y738573D1*
Y690538D1*
X4237060Y615538D1*
X3476549Y3095499D2*
X3288046D1*
X3262060Y3069514D1*
Y2795499D1*
X3288045Y2769514D1*
X3510092D1*
X3536076Y2743530D1*
Y2075711D1*
X3563084Y2048703D1*
Y1535542D1*
X4037060Y3265538D2*
Y3931995D1*
X3987060Y3981995D1*
Y4063963D1*
X1287060Y4501050D2*
Y4415538D1*
X3987060Y4063963D2*
X3936076D1*
Y4040932D1*
X3910092Y4014948D1*
X3862062D1*
X3836076Y4040932D1*
Y4528058D1*
X3587060Y3465538D2*
Y3832499D1*
X3526549D1*
X4965052Y715538D2*
Y1163534D1*
X4924541Y1204046D1*
X3937060Y3782979D2*
Y3265538D1*
X4837060Y715538D2*
X4709348Y587825D1*
Y548152D1*
X3938438Y1085030D2*
Y1366916D1*
X4037060Y1465538D1*
X3526549Y3832499D2*
X3419978D1*
X3393993Y3858483D1*
Y4488570D1*
X3368009Y4514554D1*
X1360092D1*
X1334108Y4488570D1*
Y4368491D1*
X1387060Y4315538D1*
X3687060Y4063963D2*
Y3996483D1*
X1689041Y804046D2*
Y495161D1*
X1715025Y469176D1*
X3596076D1*
X3622060Y495160D1*
X3648045Y469176D1*
X4641470D1*
X4667454Y495160D1*
Y645932D1*
X4837060Y815538D1*
X1522572Y804046D2*
X1536076Y817550D1*
Y3088570D1*
X1510092Y3114554D1*
X1415013D1*
X1389029Y3140538D1*
Y4058962D1*
X1363045Y4084948D1*
X1147572D1*
X3622060Y495160D2*
Y1395538D1*
X3687060Y3996483D2*
Y3937459D1*
X3713045Y3911475D1*
X3811076D1*
X3837060Y3885491D1*
Y3265538D1*
X3687060Y3996483D2*
D3*
X1363045Y4084948D2*
X1389029Y4110932D1*
Y4204440D1*
X1334108D1*
X2540104Y587640D2*
Y738570D1*
X2566088Y764554D1*
X2638045D1*
X2687060Y715538D1*
X3575564Y508664D2*
X3496588D1*
X4627966Y664558D2*
Y706444D1*
X4837060Y915538D1*
X2233608Y2617550D2*
Y3554046D1*
X2566088Y764554D2*
X2540104Y790539D1*
Y2617550D1*
X2936041Y3554046D2*
Y4296920D1*
X2910056Y4322904D1*
X2843564D1*
X3487060Y3465538D2*
Y3554046D1*
X1787060Y3465538D2*
X1706509Y3384987D1*
Y2712782D1*
X1689029Y2695302D1*
Y2623791D1*
X1649545Y2584306D1*
Y469177D1*
X1675529Y443192D1*
X4860092D1*
X4886076Y469176D1*
Y966522D1*
X4837060Y1015538D1*
X1487060Y3265538D2*
Y3365538D1*
X1434108Y3418491D1*
Y4362585D1*
X1487060Y4415538D1*
X2887060Y1415538D2*
X2828556Y1474042D1*
Y1764554D1*
X2261076D2*
Y2338570D1*
X2235092Y2364554D1*
X2005945D1*
X1954962Y2415538D1*
X1837060D1*
X2736076Y2264558D2*
Y1341522D1*
X2762060Y1315538D1*
X2887060D1*
X2936076D1*
X2962060Y1289554D1*
Y790538D1*
X2988045Y764554D1*
X3301552D1*
X3327537Y790538D1*
Y1076014D1*
X3437060Y1185538D1*
X1689033Y2564558D2*
Y1915538D1*
X2775564Y1397896D2*
Y1564554D1*
X2887060Y915538D2*
X2936076Y964554D1*
Y1238570D1*
X2910092Y1264554D1*
X2801549D1*
X2389194Y2564558D2*
Y1564554D1*
X2887060Y715537D2*
X2801549Y801049D1*
Y1064554D1*
X1787060Y3265538D2*
Y3165538D1*
X2481115Y587640D2*
Y2578062D1*
X2455131Y2604046D1*
Y2789554D1*
X2481115Y2815538D1*
X2687060D1*
X3602572Y2065026D2*
Y1489184D1*
X3510092Y1396703D1*
Y574136D1*
X3484108Y548152D1*
X3281812D1*
X3242324Y508664D1*
X2481115D1*
X4037060Y2515538D2*
Y2445538D1*
X1787060Y3165538D2*
X1836076Y3116522D1*
Y2601073D1*
X1763045Y2528042D1*
Y2492507D1*
X1789029Y2466522D1*
X1763045Y2440538D1*
Y1389554D1*
X1837060Y1315538D1*
X1789029Y2466522D2*
X2287060D1*
X2313045Y2492507D1*
Y2578062D1*
X2339029Y2604046D1*
X2455131D1*
X4037060Y2445538D2*
X3954501D1*
X2087060Y4315538D2*
D3*
X1487060Y3665538D2*
X1562060Y3590538D1*
Y3503022D1*
X1588045D1*
X1562060Y3477038D1*
Y741522D1*
X1536076Y715538D1*
X1237060D1*
X1987060Y4415538D2*
Y4462585D1*
X2661076D1*
X2687060Y4436601D1*
Y3782979D1*
X2789068D1*
Y2912983D1*
X4489029D2*
Y2364558D1*
X3791458Y2912983D2*
X3882663D1*
X1987060Y4415538D2*
X1934108D1*
Y4436601D1*
X1908123Y4462585D1*
X1660092D1*
X1634108Y4436601D1*
Y4236845D1*
X1641037Y4229916D1*
Y3503022D1*
X1588045D1*
X2687060Y3782979D2*
Y3715538D1*
X2087060Y4315538D2*
X2061667D1*
X2034108Y4343097D1*
Y4368491D1*
X1987060Y4415538D1*
X3637060Y3514558D2*
Y3265538D1*
X1497572Y3813570D2*
X1575563D1*
X1601549Y3839554D1*
Y4045916D1*
X1587060Y4060404D1*
Y4315538D1*
X4470013Y1464558D2*
Y706014D1*
X1601549Y3542510D2*
Y3787584D1*
X1575563Y3813570D1*
X3537060Y3265538D2*
Y3633022D1*
X4587060Y3465538D2*
X4636080Y3514558D1*
X4863045D1*
X4889029Y3488573D1*
Y1767507D1*
X4837060Y1715538D1*
X4299580Y904046D2*
Y1125070D1*
X3537060Y3633022D2*
X3368005Y3802077D1*
Y4462585D1*
X3342021Y4488570D1*
X1613045D1*
X1587060Y4462585D1*
Y4415538D1*
X3888045Y3056010D2*
Y3187979D1*
X3862060Y3213963D1*
X3488635D1*
X3437060Y3265538D1*
X4548990Y664558D2*
Y1615542D1*
X4574974Y1641526D1*
X4689029D1*
Y3030025D1*
X4663045Y3056010D1*
X4215013D1*
X4089029Y3213963D2*
X3914029D1*
X3888045Y3187979D1*
X4097612Y666526D2*
D3*
X4689029Y1641526D2*
X4715017Y1615538D1*
X4837060D1*
X1667021Y3314554D2*
Y4109928D1*
X1687060Y4129967D1*
Y4315538D1*
X4391458Y3206448D2*
X4688045D1*
Y3364062D1*
X4687060Y3365046D1*
Y3465538D1*
X4097612Y666526D2*
X4084108Y680030D1*
Y1068491D1*
X4037060Y1115538D1*
X3898950Y656050D2*
X4059840Y495160D1*
X4562493D1*
X4588478Y521144D1*
Y1538573D1*
X4614462Y1564558D1*
X4788041D1*
X4837060Y1515538D1*
X1927533Y3464554D2*
Y3964058D1*
X1734108Y4157483D1*
Y4368491D1*
X1687060Y4415538D1*
X2828556Y3043491D2*
Y3464554D1*
X3898950Y1122503D2*
Y1045538D1*
X4037060D1*
X4852533Y4283416D2*
X4347572D1*
X4852533Y3957971D2*
Y3998491D1*
X4787060Y4063963D1*
X4837060Y1515538D2*
X4915013Y1593491D1*
Y3721310D1*
X4852533Y3783790D1*
Y3957971D1*
X2828556Y3464554D2*
Y4228920D1*
X2883052Y4283416D1*
X3015017Y3122467D2*
Y3956995D1*
X1929879Y4362585D2*
X1834108D1*
X1787060Y4315538D1*
X4037060Y975538D2*
X3845962D1*
X3819974Y1001526D1*
Y2206534D1*
X3437060Y2965538D2*
Y2837983D1*
X3463045Y2811999D1*
X3549579D1*
X3575564Y2786014D1*
Y2206534D1*
X3015017Y3956995D2*
Y4362585D1*
X3341033Y3030026D2*
X3472572D1*
X3537060Y2965538D1*
X4037060Y905538D2*
X3806474D1*
X3780486Y931526D1*
Y2153542D1*
X3589068Y4322904D2*
Y4488570D1*
X2975529Y3159940D2*
Y4322904D1*
X3537060Y2965538D2*
Y2863967D1*
X3563045Y2837983D1*
X3663046D1*
X3689029Y2811999D1*
Y2692165D1*
X3628556Y2631692D1*
Y2153542D1*
X3715013Y835538D2*
Y2837983D1*
X3689029Y2863967D1*
X3663045D1*
X3637060Y2889951D1*
Y2965538D1*
X4037060Y835538D2*
X3819974D1*
X1887060Y4207392D2*
Y4315538D1*
X3637060Y2965538D2*
Y3147467D1*
X3611076Y3173451D1*
X3312062D1*
X3286076Y3199436D1*
Y3363331D1*
X3433482Y3510735D1*
Y3686010D1*
X3328517Y3790975D1*
Y4243928D1*
X3737060Y3056010D2*
Y2965538D1*
X3588045Y3056010D2*
X3509067Y3134987D1*
X3195533D1*
X3169549Y3160971D1*
Y3327825D1*
X3183052Y3341329D1*
Y3487556D1*
X3289029Y3593534D1*
Y4345147D1*
X3185096Y4449081D1*
X3737060Y2965538D2*
Y2891920D1*
X3740997Y2887983D1*
Y881778D1*
X3754501Y868274D1*
Y790538D1*
X3780486Y764554D1*
X4037060D1*
X1237060Y2515538D2*
Y2762050D1*
X1211076Y2788034D1*
X817533D1*
X791549Y2814018D1*
Y2894042D1*
X849055Y2951549D1*
X1237060Y2415538D2*
X1286076Y2464554D1*
Y2816562D1*
X1260092Y2842546D1*
X849055D1*
X1237060Y2315538D2*
X1162060Y2390538D1*
Y2707558D1*
X1136075Y2733543D1*
X849055D1*
X1237060Y2215538D2*
X1056651D1*
X1030667Y2241524D1*
Y2598554D1*
X1004680Y2624541D1*
X849055D1*
X1237060Y2115538D2*
X1286075D1*
X1312060Y2141524D1*
Y2980054D1*
X1286076Y3006038D1*
X763046D1*
X737060Y2980052D1*
Y2897546D1*
X1237060Y1915538D2*
X1286076Y1964554D1*
Y2038573D1*
X1260092Y2064558D1*
X1188045D1*
X1162060Y2090542D1*
Y2138573D1*
X1188045Y2164558D1*
X1260092D1*
X1286076Y2190542D1*
Y2238573D1*
X1260092Y2264558D1*
X1136075D1*
X1110092Y2290542D1*
Y2653046D1*
X1084108Y2679030D1*
X819049D1*
X764049Y2734030D1*
X737060D1*
Y2788543D1*
X1237060Y2015538D2*
X977639D1*
X951655Y2041524D1*
Y2544066D1*
X925182Y2570538D1*
X737060D1*
X3002533Y2564554D2*
Y2500066D1*
X3187060Y2315538D1*
X1886076Y2359747D2*
Y1664554D1*
X1837060Y1615538D1*
X2828556Y2778058D2*
Y2557034D1*
X2736076Y2464554D1*
X4389021Y2015538D2*
Y2556003D1*
X4397576Y2564558D1*
X1728521Y2664554D2*
Y1324077D1*
X1837060Y1215538D1*
X4837060Y2604046D2*
Y2515538D1*
X4391037Y1776050D2*
Y1915542D1*
X3042021Y2756054D2*
Y2560577D1*
X3187060Y2415538D1*
X1237060Y615538D2*
X983911D1*
X637060Y962388D1*
X1487060Y3065538D2*
X1322533D1*
X3837060Y2769554D2*
X3889029Y2717585D1*
Y2173570D1*
X4037060Y2025538D1*
X2687060Y1315538D2*
X2762060Y1240538D1*
Y740538D1*
X2887060Y615538D1*
X2289060Y3915538D2*
X2341029Y3863570D1*
Y3587552D1*
X2513045Y3415538D1*
X2487060Y3389554D1*
Y3115538D1*
X2937060Y2965538D2*
Y2165538D1*
X2887060Y2115538D1*
X3143564Y3415538D2*
Y3572042D1*
X3237060Y3665538D1*
X4837060Y2415538D2*
X4766982Y2485617D1*
Y3076562D1*
X4837060Y3146640D1*
Y3215538D1*
X4437060Y2717507D2*
Y2616050D1*
X4442021Y2611089D1*
Y2404046D1*
X2087060Y1315538D2*
X2136076Y1266522D1*
Y864554D1*
X2087060Y815538D1*
X2134068Y3915538D2*
X2187060Y3968530D1*
Y4315538D1*
X637060Y962388D2*
Y1073755D1*
X686076Y1122770D1*
Y1395459D1*
X640210Y1441325D1*
Y1638373D1*
X2687060Y3415538D2*
X2513045D1*
X3437060Y1675538D2*
Y1605538D1*
X686076Y1395459D2*
X712060Y1421444D1*
X837060D1*
X1137060Y3715538D2*
X978206D1*
X919151Y3656483D1*
X640210D1*
X1337060Y3665538D2*
X1284108D1*
X1234108Y3715538D1*
X1137060D1*
X1322533Y3065538D2*
X1259108Y3128963D1*
Y3587585D1*
X1337060Y3665538D1*
X2887060Y2115538D2*
Y2015538D1*
X2885092Y2013570D1*
Y1601476D1*
X2887060Y1599507D1*
Y1515538D1*
X4837060Y3215538D2*
Y3415538D1*
X4787060Y3465538D1*
X2087060Y815538D2*
Y715538D1*
X3437060Y1535538D2*
Y1465538D1*
Y1605538D2*
Y1535538D1*
Y2445538D2*
X3275564Y2284042D1*
Y1504041D1*
X3187060Y1415537D1*
X3437060Y2375538D2*
X3301549Y2240026D1*
Y1430025D1*
X3187060Y1315537D1*
Y1215538D2*
X3327533Y1356010D1*
Y2196010D1*
X3437060Y2305538D1*
Y2235538D2*
X3353517Y2151995D1*
Y1281993D1*
X3187060Y1115537D1*
X3028556Y2165538D2*
Y1041521D1*
X3054541Y1015537D1*
X3187060D1*
X3068045Y1995026D2*
Y1090539D1*
X3094029Y1064554D1*
X3236075D1*
X3262060Y1038570D1*
Y990538D1*
X3187060Y915538D1*
X3236076Y1767507D2*
Y1955538D1*
X2989068Y1767507D2*
Y1013529D1*
X3187060Y815537D1*
Y715537D2*
X3266928D1*
X3408328Y574136D1*
X3458122D1*
X3484108Y600121D1*
Y1838491D1*
X3437060Y1885538D1*
X2983360Y1864554D2*
D3*
X2017021D2*
Y795499D1*
X1837060Y615538D1*
X2983360Y1864554D2*
X2989029Y1870224D1*
Y2205026D1*
X3015013Y2231010D1*
X3093005D1*
X3118990Y2205026D1*
Y1846483D1*
X1977533Y1964554D2*
Y856010D1*
X1837060Y715538D1*
X3187060Y615538D2*
X3119675Y548152D1*
X1814029D1*
X1788045Y574136D1*
Y1138573D1*
X1814029Y1164558D1*
X1860092D1*
X1886076Y1190542D1*
Y1466522D1*
X1837060Y1515538D1*
X1939068Y2364554D2*
Y2287455D1*
X1912060Y2260448D1*
Y1141522D1*
X1886076Y1115538D1*
X1837060D1*
X3549580Y777385D2*
Y672420D1*
X2687060Y2715538D2*
X2612060Y2640538D1*
Y890538D1*
X2687060Y815538D1*
X3668045Y2538018D2*
Y2485026D1*
X3954501Y2498530D2*
Y2562589D1*
X4037060Y2645148D1*
Y2965538D1*
X3668045Y2485026D2*
Y721524D1*
X3694029Y695538D1*
X4037060D1*
X2749580Y3743491D2*
Y2578058D1*
X2687060Y2515538D1*
X4287060Y4063963D2*
Y3743491D1*
X2687060Y2515538D2*
X2638045Y2466522D1*
Y1190539D1*
X2664029Y1164554D1*
X2710092D1*
X2736076Y1138570D1*
Y664554D1*
X2687060Y615538D1*
X2087060Y3715538D2*
X2162091D1*
X2237092Y3790539D1*
X2287060Y3740570D1*
Y3115538D1*
X2949580Y1466526D2*
D3*
X2489060Y3915538D2*
D3*
X4637060Y2965538D2*
Y2717507D1*
X1337060Y3865538D2*
X1262789D1*
X1212789Y3815538D1*
X1137060D1*
X849055Y2515538D2*
X925671Y2438923D1*
Y1786038D1*
X837060Y1697428D1*
X2087060Y1515538D2*
X2188045Y1414554D1*
Y716522D1*
X2087060Y615538D1*
X2489060Y3915538D2*
Y3935028D1*
X2456580Y3967507D1*
X2263076D1*
Y4336600D1*
X2237092Y4362585D1*
X2140013D1*
X2087060Y4415538D1*
X3137060Y2965538D2*
Y2765538D1*
X3187060Y2715538D1*
X1384068Y2564558D2*
Y2664514D1*
X1437060Y2717507D1*
X3487060Y3871987D2*
Y4063963D1*
X2287060Y3115538D2*
Y2590538D1*
X2261076Y2564554D1*
X2036570D1*
X1987554Y2515538D1*
X1837060D1*
X3137060Y2965538D2*
X3080490D1*
X3054505Y2991522D1*
Y4084948D1*
X3080490Y4110932D1*
X3211075D1*
X3237060Y4084948D1*
Y3865538D1*
X2937060Y1715538D2*
Y1994534D1*
X2963045Y2020518D1*
Y2778908D1*
X3054505Y2870369D1*
Y2882983D1*
X3137060Y2965538D1*
X2949580Y1466526D2*
X2937060Y1479046D1*
Y1715538D1*
X2237092Y3790539D2*
Y3941522D1*
X2263076Y3967507D1*
X4637060Y2717507D2*
Y2164558D1*
X3487060Y4063963D2*
X3587060D1*
X1237060Y1415538D2*
X1000840D1*
X837060Y1579318D1*
X4037060Y625538D2*
X4141454Y521144D1*
X4483516D1*
X4509501Y547129D1*
Y1817105D1*
X4515588D1*
X4537060Y1838577D1*
X1987060Y4315538D2*
Y3293530D1*
X2026549Y3254042D1*
Y3244469D1*
X2064021Y3206995D1*
X4537060Y2965538D2*
X4486076Y3016522D1*
X4095013D1*
X3976549Y3134987D1*
X4537060Y1838577D2*
Y2965538D1*
X2064021Y3206995D2*
X1959060Y3102034D1*
X1914029D1*
X1888045Y3128018D1*
Y3464554D1*
X1787060Y3565538D1*
D29*
X3249580Y2704042D3*
X4286076Y2654046D3*
X2131269Y2064554D3*
X3952533Y4554042D3*
X829879Y4462585D3*
X649738D3*
Y4315538D3*
X4768005Y2004046D3*
X4775564Y3306995D3*
X4215013Y3153455D3*
X4102533D3*
X4438045Y3672510D3*
X4287060Y3686010D3*
X3788045Y3016522D3*
Y3174475D3*
X3209037Y3254046D3*
X3393993Y3646522D3*
X4477533Y3593534D3*
X4636076Y3633022D3*
X2423588Y3928018D3*
Y3593534D3*
X4470013Y1517550D3*
Y2269522D3*
X4286076D3*
X4187060Y3593534D3*
X4036076Y3996483D3*
X887060Y4476089D3*
X4536076Y3580030D3*
X4675564D3*
X4376549Y3917507D3*
Y3711999D3*
X3979541Y3917507D3*
X4351549Y1964558D3*
X4163084Y1955538D3*
X4351549Y1717550D3*
X4707493Y1506999D3*
X3523596Y1764648D3*
X3976509Y1885538D3*
X4391037Y1664558D3*
X4123596Y1885538D3*
X3787060Y3793010D3*
X3164072D3*
X3111080Y4045459D3*
X4792852Y1364558D3*
X4898556Y3871987D3*
X3675564D3*
X3859462Y1159975D3*
X1281269Y553022D3*
X3787060Y4204440D3*
X4296588D3*
X1108730Y469176D3*
X4925564Y456696D3*
X4627966Y1164558D3*
X4299580Y815538D3*
X4430525Y2104046D3*
X4728517D3*
X4430525Y1564558D3*
X3563084Y1535542D3*
X3476549Y3095499D3*
X3836076Y4528058D3*
X1287060Y4501050D3*
X3526549Y3832499D3*
X4924541Y1204046D3*
X4965052Y715538D3*
X4709348Y548152D3*
X3938438Y1085030D3*
X3937060Y3782979D3*
X1147572Y4084948D3*
X3687060Y3996483D3*
X1689041Y804046D3*
X1522572D3*
X1334108Y4204440D3*
X3622060Y1395538D3*
X2540104Y587640D3*
X3496588Y508664D3*
X3575564D3*
X4627966Y664558D3*
X2233608Y3554046D3*
Y2617550D3*
X2540104D3*
X2843564Y4322904D3*
X2936041Y3554046D3*
X3487060D3*
X2828556Y1764554D3*
X2261076D3*
X2736076Y2264558D3*
X1689033Y1915538D3*
Y2564558D3*
X2389194D3*
Y1564554D3*
X2775564D3*
Y1397896D3*
X2801549Y1264554D3*
Y1064554D3*
X2481115Y587640D3*
Y508664D3*
X3602572Y2065026D3*
X3954501Y2445538D3*
X4489029Y2364558D3*
Y2912983D3*
X3882663D3*
X3791458D3*
X2789068D3*
X3637060Y3514558D3*
X4470013Y706014D3*
X1497572Y3813570D3*
X4470013Y1464558D3*
X1601549Y3542510D3*
X4299580Y1125070D3*
Y904046D3*
X3537060Y3633022D3*
X3888045Y3056010D3*
X4215013D3*
X4089029Y3213963D3*
X4548990Y664558D3*
X4097612Y666526D3*
X1667021Y3314554D3*
X4391458Y3206448D3*
X1927533Y3464554D3*
X2828556D3*
X3898950Y656050D3*
Y1122503D3*
X2828556Y3043491D3*
X2883052Y4283416D3*
X4347572D3*
X4852533D3*
Y3957971D3*
X3015017Y4362585D3*
X1929879D3*
X3819974Y2206534D3*
X3575564D3*
X3015017Y3122467D3*
Y3956995D3*
X3628556Y2153542D3*
X3780486D3*
X3589068Y4488570D3*
Y4322904D3*
X2975529D3*
Y3159940D3*
X3341033Y3030026D3*
X3328517Y4243928D3*
X3715013Y835538D3*
X3819974D3*
X1887060Y4207392D3*
X3185096Y4449081D3*
X3588045Y3056010D3*
X3737060D3*
X3002533Y2564554D3*
X1886076Y2359747D3*
X2736076Y2464554D3*
X2828556Y2778058D3*
X4397576Y2564558D3*
X4389021Y2015538D3*
X1728521Y2664554D3*
X4837060Y2604046D3*
X4391037Y1915542D3*
Y1776050D3*
X3042021Y2756054D3*
X2134068Y3915538D3*
X1322533Y3065538D3*
X4442021Y2404046D3*
X3143564Y3415538D3*
X3028556Y2165538D3*
X3068045Y1995026D3*
X3236076Y1955538D3*
Y1767507D3*
X2989068D3*
X3118990Y1846483D3*
X2983360Y1864554D3*
X2017021D3*
X1977533Y1964554D3*
X1939068Y2364554D3*
X3549580Y672420D3*
Y777385D3*
X3954501Y2498530D3*
X3668045Y2485026D3*
Y2538018D3*
X4287060Y3743491D3*
X2749580D3*
X4637060Y2164558D3*
X2949580Y1466526D3*
X1384068Y2564558D3*
X3487060Y3871987D3*
X3976549Y3134987D3*
X2064021Y3206995D3*
X4537060Y1838577D3*
D14*
X1337060Y3665538D3*
Y3865538D3*
X1737060Y3915538D3*
X1537060D3*
X1637060Y2717507D3*
X1437060D3*
X3137060Y1715538D3*
X2937060D3*
X2487060Y3115538D3*
X2287060D3*
X2937060Y2965538D3*
X3137060D3*
X2289060Y3915538D3*
X2489060D3*
X3837060Y2769554D3*
X3637060D3*
X4837060Y3215538D3*
Y3015538D3*
X4437060Y2717507D3*
X4637060D3*
X3237060Y3665538D3*
Y3865538D3*
D15*
X2087060Y3715538D3*
D16*
Y3415538D3*
X2687060D3*
Y3715538D3*
D17*
X849055Y2951549D3*
D18*
Y2842546D3*
Y2733543D3*
Y2624541D3*
Y2515538D3*
X737060Y2897546D3*
Y2788543D3*
Y2679541D3*
Y2570538D3*
D15*
X3487060Y3465538D3*
D19*
X3587060D3*
X3687060D3*
X3787060D3*
X3887060D3*
X3987060D3*
X4087060D3*
X4187060D3*
X4287060D3*
X4387060D3*
X4487060D3*
X4587060D3*
X4687060D3*
X4787060D3*
Y4063963D3*
X4687060D3*
X4587060D3*
X4487060D3*
X4387060D3*
X4287060D3*
X4187060D3*
X4087060D3*
X3987060D3*
X3887060D3*
X3787060D3*
X3687060D3*
X3587060D3*
X3487060D3*
X637060Y1315538D3*
D15*
Y1215538D3*
X837060Y1815538D3*
D19*
X640210Y1756483D3*
X837060Y1697428D3*
X640210Y1638373D3*
X837060Y1579318D3*
D20*
X1487060Y4315538D3*
X1587060D3*
X1687060D3*
X1787060D3*
X1887060D3*
X1987060D3*
X2087060D3*
X2187060D3*
X1487060Y4415538D3*
X1587060D3*
X1687060D3*
X1787060D3*
X1887060D3*
X1987060D3*
X2087060D3*
X2187060D3*
D21*
X787060Y4315538D3*
D20*
X887060D3*
X987060D3*
X1087060D3*
X1187060D3*
X1287060D3*
X1387060D3*
X787060Y4415538D3*
X887060D3*
X987060D3*
X1087060D3*
X1187060D3*
X1287060D3*
X1387060D3*
D15*
X4237060Y2515538D3*
D19*
Y2415538D3*
Y2315538D3*
Y2215538D3*
Y2115538D3*
Y2015538D3*
Y1915538D3*
Y1815538D3*
Y1715538D3*
Y1615538D3*
Y1515538D3*
Y1415538D3*
Y1315538D3*
Y1215538D3*
Y1115538D3*
Y1015538D3*
Y915538D3*
Y815538D3*
Y715538D3*
Y615538D3*
X4837060D3*
Y715538D3*
Y815538D3*
Y915538D3*
Y1015538D3*
Y1115538D3*
Y1215538D3*
Y1315538D3*
Y1415538D3*
Y1515538D3*
Y1615538D3*
Y1715538D3*
Y1815538D3*
Y1915538D3*
Y2015538D3*
Y2115538D3*
Y2215538D3*
Y2315538D3*
Y2415538D3*
Y2515538D3*
D22*
X4637060Y3265538D3*
D23*
X4537060D3*
X4437060D3*
X4337060D3*
X4237060D3*
X4137060D3*
X4037060D3*
X3937060D3*
X3837060D3*
X3737060D3*
X3637060D3*
X3537060D3*
X3437060D3*
X3337060D3*
Y2965538D3*
X3437060D3*
X3537060D3*
X3637060D3*
X3737060D3*
X3837060D3*
X3937060D3*
X4037060D3*
X4137060D3*
X4237060D3*
X4337060D3*
X4437060D3*
X4537060D3*
X4637060D3*
D15*
X837060Y3715538D3*
D19*
X640210Y3656483D3*
X837060Y3597428D3*
D15*
X1237060Y2515538D3*
D19*
Y2415538D3*
Y2315538D3*
Y2215538D3*
Y2115538D3*
Y2015538D3*
Y1915538D3*
Y1815538D3*
Y1715538D3*
Y1615538D3*
Y1515538D3*
Y1415538D3*
Y1315538D3*
Y1215538D3*
Y1115538D3*
Y1015538D3*
Y915538D3*
Y815538D3*
Y715538D3*
Y615538D3*
X1837060D3*
Y715538D3*
Y815538D3*
Y915538D3*
Y1015538D3*
Y1115538D3*
Y1215538D3*
Y1315538D3*
Y1415538D3*
Y1515538D3*
Y1615538D3*
Y1715538D3*
Y1815538D3*
Y1915538D3*
Y2015538D3*
Y2115538D3*
Y2215538D3*
Y2315538D3*
Y2415538D3*
Y2515538D3*
D24*
X837060Y1165538D3*
Y1421444D3*
D15*
X2887060Y1515538D3*
D19*
Y1415538D3*
Y1315538D3*
Y1215538D3*
Y1115537D3*
Y1015537D3*
Y915538D3*
Y815537D3*
Y715537D3*
Y615538D3*
X3187060Y1515537D3*
Y1415537D3*
Y1315537D3*
Y1215538D3*
Y1115537D3*
Y1015537D3*
Y915538D3*
Y815537D3*
Y715537D3*
Y615538D3*
D15*
X1487060Y3665538D3*
D19*
Y3565538D3*
Y3465538D3*
Y3365538D3*
Y3265538D3*
Y3165538D3*
Y3065538D3*
X1787060D3*
Y3165538D3*
Y3265538D3*
Y3365538D3*
Y3465538D3*
Y3565538D3*
Y3665538D3*
D15*
X2887060Y2715538D3*
D19*
Y2615538D3*
Y2515538D3*
Y2415538D3*
Y2315538D3*
Y2215538D3*
Y2115538D3*
X3187060D3*
Y2215538D3*
Y2315538D3*
Y2415538D3*
Y2515538D3*
Y2615538D3*
Y2715538D3*
D25*
X637060Y765538D3*
D26*
Y962388D3*
D15*
X2087060Y2915538D3*
D19*
Y2815538D3*
Y2715538D3*
Y2615538D3*
Y2515538D3*
Y2415538D3*
Y2315538D3*
Y2215538D3*
Y2115538D3*
Y2015538D3*
Y1915538D3*
Y1815538D3*
Y1715538D3*
Y1615538D3*
Y1515538D3*
Y1415538D3*
Y1315538D3*
Y1215538D3*
Y1115538D3*
Y1015538D3*
Y915538D3*
Y815538D3*
Y715538D3*
Y615538D3*
X2687060D3*
Y715538D3*
Y815538D3*
Y915538D3*
Y1015538D3*
Y1115538D3*
Y1215538D3*
Y1315538D3*
Y1415538D3*
Y1515538D3*
Y1615538D3*
Y1715538D3*
Y1815538D3*
Y1915538D3*
Y2015538D3*
Y2115538D3*
Y2215538D3*
Y2315538D3*
Y2415538D3*
Y2515538D3*
Y2615538D3*
Y2715538D3*
Y2815538D3*
Y2915538D3*
D21*
X3437060Y2515538D3*
D20*
Y2445538D3*
Y2375538D3*
Y2305538D3*
Y2235538D3*
Y2165538D3*
Y2095538D3*
Y2025538D3*
Y1955538D3*
Y1885538D3*
Y1815538D3*
Y1745538D3*
Y1675538D3*
Y1605538D3*
Y1535538D3*
Y1465538D3*
Y1395538D3*
Y1325538D3*
Y1255538D3*
Y1185538D3*
Y1115538D3*
Y1045538D3*
Y975538D3*
Y905538D3*
Y835538D3*
Y765538D3*
Y695538D3*
Y625538D3*
X4037060D3*
Y695538D3*
Y764554D3*
Y835538D3*
Y905538D3*
Y975538D3*
Y1045538D3*
Y1115538D3*
Y1185538D3*
Y1255538D3*
Y1325538D3*
Y1395538D3*
Y1465538D3*
Y1535538D3*
Y1605538D3*
Y1675538D3*
Y1745538D3*
Y1815538D3*
Y1885538D3*
Y1955538D3*
Y2025538D3*
Y2095538D3*
Y2165538D3*
Y2235538D3*
Y2305538D3*
Y2375538D3*
Y2445538D3*
Y2515538D3*
D27*
X1137060Y3615538D3*
D28*
Y3715538D3*
Y3815538D3*
M02*
