M48
INCH
T01C0.0191
T02C0.0315
T03C0.035
T04C0.0354
T05C0.0394
T06C0.0433
T07C0.046
T08C0.063
T09C0.2
%
T02
X+024937Y+032437
T04
X+024937Y+031437
X+024937Y+030437
X+024937Y+029437
X+024937Y+028437
X+024937Y+027437
X+024937Y+026437
X+024937Y+025437
X+024937Y+024437
X+024937Y+023437
X+024937Y+022437
X+024937Y+021437
X+024937Y+020437
X+024937Y+019437
X+024937Y+018437
X+024937Y+017437
X+024937Y+016437
X+024937Y+015437
X+024937Y+014437
X+024937Y+013437
X+024937Y+012437
X+024937Y+011437
X+024937Y+010437
X+024937Y+009437
X+024937Y+008437
X+024937Y+007437
X+024937Y+006437
X+024937Y+005487
X+030937Y+005487
X+030937Y+006437
X+030937Y+007437
X+030937Y+008437
X+030937Y+009437
X+030937Y+010437
X+030937Y+011437
X+030937Y+012437
X+030937Y+013437
X+030937Y+014437
X+030937Y+015437
X+030937Y+016437
X+030937Y+017437
X+030937Y+018437
X+030937Y+019437
X+030937Y+020437
X+030937Y+021437
X+030937Y+022437
X+030937Y+023437
X+030937Y+024437
X+030937Y+025437
X+030937Y+026437
X+030937Y+027437
X+030937Y+028437
X+030937Y+029437
X+030937Y+030437
X+030937Y+031437
X+030937Y+032437
X+039937Y+028437
X+039937Y+027437
X+039937Y+026437
X+039937Y+025437
X+039937Y+024437
X+039937Y+023437
X+039937Y+022437
X+039937Y+021437
X+039937Y+020437
X+039937Y+019437
X+039937Y+018437
X+039937Y+017437
X+039937Y+016437
X+039937Y+015437
X+039937Y+014437
X+039937Y+013437
X+039937Y+012437
X+039937Y+011437
X+039937Y+010437
X+039937Y+009437
X+039937Y+008437
X+039937Y+007437
X+039937Y+006437
X+039937Y+005437
X+045937Y+005437
X+045937Y+006437
X+045937Y+007437
X+045937Y+008437
X+045937Y+009437
X+045937Y+010437
X+045937Y+011437
X+045937Y+012437
X+045937Y+013437
X+045937Y+014437
X+045937Y+015437
X+045937Y+016437
X+045937Y+017437
X+045937Y+018437
X+045937Y+019437
X+045937Y+020437
X+045937Y+021437
X+045937Y+022437
X+045937Y+023437
X+045937Y+024437
X+045937Y+025437
X+045937Y+026437
X+045937Y+027437
X+045937Y+028437
T05
X+008937Y+041937
X+008937Y+043937
X+036437Y+031937
X+034437Y+031937
X+014937Y+026457
X+012937Y+026457
X+021437Y+016437
X+019437Y+016437
X+043937Y+030437
X+041937Y+030437
X+019437Y+027937
X+021437Y+027937
X+013957Y+034437
X+015957Y+034437
X+028837Y+034787
X+026837Y+034787
X+034437Y+020437
X+036437Y+020437
X+023437Y+044937
X+025437Y+044937
X+043937Y+032937
X+045937Y+032937
T04
X+011937Y+032437
X+011937Y+029437
X+017937Y+029437
X+017937Y+032437
T07
X+007557Y+029797
X+007557Y+028707
X+007557Y+027617
X+007557Y+026527
X+007557Y+025437
X+006437Y+029257
X+006437Y+028167
X+006437Y+027077
X+006437Y+025987
T09
X+006997Y+022697
X+006997Y+032537
T04
X+045437Y+040937
X+044437Y+040937
X+043437Y+040937
X+042437Y+040937
X+041437Y+040937
X+040437Y+040937
X+039437Y+040937
X+038437Y+040937
X+037437Y+040937
X+036437Y+040937
X+035437Y+040937
X+034437Y+040937
X+033437Y+040937
X+032437Y+040937
X+032437Y+034953
X+033437Y+034953
X+034437Y+034953
X+035437Y+034953
X+036437Y+034953
X+037437Y+034953
X+038437Y+034953
X+039437Y+034953
X+040437Y+034953
X+041437Y+034953
X+042437Y+034953
X+043437Y+034953
X+044437Y+034953
X+045437Y+034953
T03
X+005937Y+013437
X+005937Y+012437
T08
X+005937Y+007937
X+005937Y+009906
T04
X+033937Y+018437
X+033937Y+017437
X+033937Y+016437
X+033937Y+015437
X+033937Y+014437
X+033937Y+013437
X+033937Y+012437
X+033937Y+011437
X+033937Y+010437
X+033937Y+009437
X+033937Y+008437
X+033937Y+007437
X+033937Y+006437
X+033937Y+005437
X+036937Y+005437
X+036937Y+006437
X+036937Y+007437
X+036937Y+008437
X+036937Y+009437
X+036937Y+010437
X+036937Y+011437
X+036937Y+012437
X+036937Y+013437
X+036937Y+014437
X+036937Y+015437
X+036937Y+016437
X+036937Y+017437
X+036937Y+018437
T02
X+037937Y+046437
X+036937Y+046437
X+035937Y+046437
X+034937Y+046437
X+033937Y+046437
X+032937Y+046437
X+031937Y+046437
X+030937Y+046437
X+037937Y+045437
X+036937Y+045437
X+035937Y+045437
X+034937Y+045437
X+033937Y+045437
X+032937Y+045437
X+031937Y+045437
X+030937Y+045437
X+044937Y+046437
X+043937Y+046437
X+042937Y+046437
X+041937Y+046437
X+040937Y+046437
X+039937Y+046437
X+038937Y+046437
X+044937Y+045437
X+043937Y+045437
X+042937Y+045437
X+041937Y+045437
X+040937Y+045437
X+039937Y+045437
X+038937Y+045437
T04
X+029937Y+042937
X+028937Y+042937
X+027937Y+042937
X+026937Y+042937
X+025937Y+042937
X+024937Y+042937
X+023937Y+042937
X+022937Y+042937
X+021937Y+042937
X+020937Y+042937
X+019937Y+042937
X+018937Y+042937
X+017937Y+042937
X+016937Y+042937
X+015937Y+042937
X+014937Y+042937
X+013937Y+042937
X+012937Y+042937
X+011937Y+042937
X+010937Y+042937
X+010937Y+036937
X+011937Y+036937
X+012937Y+036937
X+013937Y+036937
X+014937Y+036937
X+015937Y+036937
X+016937Y+036937
X+017937Y+036937
X+018937Y+036937
X+019937Y+036937
X+020937Y+036937
X+021937Y+036937
X+022937Y+036937
X+023937Y+036937
X+024937Y+036937
X+025937Y+036937
X+026937Y+036937
X+027937Y+036937
X+028937Y+036937
X+029937Y+036937
X+033937Y+029437
X+033937Y+028437
X+033937Y+027437
X+033937Y+026437
X+033937Y+025437
X+033937Y+024437
X+033937Y+023437
X+036937Y+023437
X+036937Y+024437
X+036937Y+025437
X+036937Y+026437
X+036937Y+027437
X+036937Y+028437
X+036937Y+029437
X+018937Y+025437
X+018937Y+024437
X+018937Y+023437
X+018937Y+022437
X+018937Y+021437
X+018937Y+020437
X+018937Y+019437
X+021937Y+019437
X+021937Y+020437
X+021937Y+021437
X+021937Y+022437
X+021937Y+023437
X+021937Y+024437
X+021937Y+025437
X+007937Y+037437
X+005969Y+036846
X+007937Y+036256
X+018937Y+014437
X+018937Y+013437
X+018937Y+012437
X+018937Y+011437
X+018937Y+010437
X+018937Y+009437
X+018937Y+008437
X+018937Y+007437
X+018937Y+006437
X+018937Y+005437
X+021937Y+014437
X+021937Y+013437
X+021937Y+012437
X+021937Y+011437
X+021937Y+010437
X+021937Y+009437
X+021937Y+008437
X+021937Y+007437
X+021937Y+006437
X+021937Y+005437
X+010937Y+024437
X+010937Y+023437
X+010937Y+022437
X+010937Y+021437
X+010937Y+020437
X+010937Y+019437
X+010937Y+018437
X+010937Y+017437
X+010937Y+016437
X+010937Y+015437
X+010937Y+014437
X+010937Y+013437
X+010937Y+012437
X+010937Y+011437
X+010937Y+010437
X+010937Y+009437
X+010937Y+008437
X+010937Y+007437
X+010937Y+006437
X+010937Y+005437
X+016937Y+005437
X+016937Y+006437
X+016937Y+007437
X+016937Y+008437
X+016937Y+009437
X+016937Y+010437
X+016937Y+011437
X+016937Y+012437
X+016937Y+013437
X+016937Y+014437
X+016937Y+015437
X+016937Y+016437
X+016937Y+017437
X+016937Y+018437
X+016937Y+019437
X+016937Y+020437
X+016937Y+021437
X+016937Y+022437
X+016937Y+023437
X+016937Y+024437
T02
X+007937Y+011937
X+007937Y+014496
T04
X+007937Y+018437
X+005969Y+017846
X+007937Y+017256
X+005969Y+016665
X+007937Y+016075
T06
X+006937Y+041437
X+006937Y+042437
X+006937Y+043437
T01
X+034427Y+025947
X+037562Y+025437
X+015332Y+005832
X+013457Y+006832
X+015332Y+044342
X+027427Y+044342
X+035687Y+030582
X+034696Y+030582
X+034102Y+030582
X+036437Y+038331
X+029332Y+040187
X+031427Y+034382
X+041217Y+032917
X+040437Y+013927
X+043322Y+035578
X+041927Y+035578
X+042072Y+011947
X+037842Y+011947
X+038437Y+044614
X+043407Y+044614
X+042072Y+028322
X+032707Y+029927
X+032707Y+028437
X+038437Y+042602
X+038996Y+027927
X+037447Y+022927
X+037322Y+035973
X+037322Y+039667
X+029822Y+039667
X+032927Y+039148
X+043322Y+024927
X+043927Y+039407
X+032072Y+022532
X+042927Y+021927
X+031774Y+021552
X+043013Y+044219
X+041937Y+044219
X+028146Y+016417
X+028146Y+023927
X+032986Y+020927
X+031379Y+020927
X+040937Y+043159
X+040822Y+020927
X+038437Y+037237
X+046322Y+047687
X+038437Y+019372
X+040427Y+018947
X+034447Y+012947
X+011232Y+046601
X+029927Y+038726
X+036927Y+034463
X+029397Y+036447
X+035352Y+009042
X+035352Y+006832
X+024121Y+022042
X+017427Y+022927
X+019957Y+019927
X+020082Y+009947
X+015927Y+007927
X+020352Y+007927
X+018342Y+018927
X+016322Y+017927
X+025427Y+030879
X+029282Y+030322
X+028987Y+030879
X+028987Y+024947
X+024822Y+034302
X+022407Y+032487
X+023332Y+032487
X+022937Y+033907
X+026442Y+033907
X+026737Y+015437
X+030052Y+015437
X+022937Y+041427
X+021937Y+040582
X+027897Y+040582
X+034437Y+043651
X+027357Y+013437
X+020937Y+035622
X+031822Y+035622
X+027752Y+011437
X+030312Y+011437
X+031562Y+042861
X+035937Y+042861
X+019937Y+034572
X+027752Y+034267
X+033322Y+037352
X+029206Y+023927
X+033495Y+023927
X+025822Y+037887
X+036141Y+005947
X+034447Y+005947
X+030187Y+004827
X+034322Y+037747
X+036365Y+044832
X+038737Y+008437
X+039391Y+033447
X+035292Y+024322
X+028801Y+016812
X+032927Y+043516
X+033937Y+044739
X+033322Y+038207
X+019957Y+021437
X+021312Y+021437
X+028541Y+017927
X+021177Y+026322
X+019562Y+028812
X+043937Y+021437
X+013143Y+005437
X+017965Y+005927
X+035746Y+005437
X+023437Y+046437
X+029032Y+044407
X+032726Y+025437
X+018917Y+015714
X+030427Y+040977
X+034437Y+021437
X+026342Y+012927
X+026342Y+030437
X+020352Y+024927
X+023082Y+024927
X+022092Y+027372
X+044927Y+029322
X+039927Y+029322
X+012937Y+031157
X+019562Y+034042
X+026907Y+044937
X+012677Y+025437
X+041612Y+029717
X+037427Y+029879
X+023937Y+032092
X+037447Y+013981
T00
M30
