M48
INCH
T01C0.0191
T02C0.0315
T03C0.035
T04C0.0354
T05C0.0394
T06C0.0433
T07C0.046
T08C0.063
T09C0.2
%
T05
X+013371Y+036655
X+013371Y+038655
X+017371Y+039155
X+015371Y+039155
X+016371Y+027175
X+014371Y+027175
X+031371Y+017155
X+029371Y+017155
X+024871Y+031155
X+022871Y+031155
X+029371Y+029655
X+031371Y+029655
X+022891Y+039155
X+024891Y+039155
X+038371Y+027696
X+036371Y+027696
X+048371Y+032155
X+048371Y+030155
X+044371Y+027175
X+046371Y+027175
X+032371Y+036655
X+032371Y+038655
T04
X+020871Y+037155
X+020871Y+034155
X+026871Y+034155
X+026871Y+037155
T07
X+008491Y+029515
X+008491Y+028425
X+008491Y+027335
X+008491Y+026245
X+008491Y+025155
X+007371Y+028975
X+007371Y+027885
X+007371Y+026795
X+007371Y+025705
T09
X+007931Y+022415
X+007931Y+032255
T04
X+034871Y+034655
X+035871Y+034655
X+036871Y+034655
X+037871Y+034655
X+038871Y+034655
X+039871Y+034655
X+040871Y+034655
X+041871Y+034655
X+042871Y+034655
X+043871Y+034655
X+044871Y+034655
X+045871Y+034655
X+046871Y+034655
X+047871Y+034655
X+047871Y+040640
X+046871Y+040640
X+045871Y+040640
X+044871Y+040640
X+043871Y+040640
X+042871Y+040640
X+041871Y+040640
X+040871Y+040640
X+039871Y+040640
X+038871Y+040640
X+037871Y+040640
X+036871Y+040640
X+035871Y+040640
X+034871Y+040640
T03
X+006371Y+013155
X+006371Y+012155
T04
X+008371Y+018155
X+006402Y+017565
X+008371Y+016974
X+006402Y+016384
X+008371Y+015793
T02
X+014871Y+043155
X+015871Y+043155
X+016871Y+043155
X+017871Y+043155
X+018871Y+043155
X+019871Y+043155
X+020871Y+043155
X+021871Y+043155
X+014871Y+044155
X+015871Y+044155
X+016871Y+044155
X+017871Y+044155
X+018871Y+044155
X+019871Y+044155
X+020871Y+044155
X+021871Y+044155
X+007871Y+043155
X+008871Y+043155
X+009871Y+043155
X+010871Y+043155
X+011871Y+043155
X+012871Y+043155
X+013871Y+043155
X+007871Y+044155
X+008871Y+044155
X+009871Y+044155
X+010871Y+044155
X+011871Y+044155
X+012871Y+044155
X+013871Y+044155
T04
X+042371Y+025155
X+042371Y+024155
X+042371Y+023155
X+042371Y+022155
X+042371Y+021155
X+042371Y+020155
X+042371Y+019155
X+042371Y+018155
X+042371Y+017155
X+042371Y+016155
X+042371Y+015155
X+042371Y+014155
X+042371Y+013155
X+042371Y+012155
X+042371Y+011155
X+042371Y+010155
X+042371Y+009155
X+042371Y+008155
X+042371Y+007155
X+042371Y+006155
X+048371Y+006155
X+048371Y+007155
X+048371Y+008155
X+048371Y+009155
X+048371Y+010155
X+048371Y+011155
X+048371Y+012155
X+048371Y+013155
X+048371Y+014155
X+048371Y+015155
X+048371Y+016155
X+048371Y+017155
X+048371Y+018155
X+048371Y+019155
X+048371Y+020155
X+048371Y+021155
X+048371Y+022155
X+048371Y+023155
X+048371Y+024155
X+048371Y+025155
X+046371Y+032655
X+045371Y+032655
X+044371Y+032655
X+043371Y+032655
X+042371Y+032655
X+041371Y+032655
X+040371Y+032655
X+039371Y+032655
X+038371Y+032655
X+037371Y+032655
X+036371Y+032655
X+035371Y+032655
X+034371Y+032655
X+033371Y+032655
X+033371Y+029655
X+034371Y+029655
X+035371Y+029655
X+036371Y+029655
X+037371Y+029655
X+038371Y+029655
X+039371Y+029655
X+040371Y+029655
X+041371Y+029655
X+042371Y+029655
X+043371Y+029655
X+044371Y+029655
X+045371Y+029655
X+046371Y+029655
X+008371Y+037155
X+006402Y+036565
X+008371Y+035974
X+012371Y+025155
X+012371Y+024155
X+012371Y+023155
X+012371Y+022155
X+012371Y+021155
X+012371Y+020155
X+012371Y+019155
X+012371Y+018155
X+012371Y+017155
X+012371Y+016155
X+012371Y+015155
X+012371Y+014155
X+012371Y+013155
X+012371Y+012155
X+012371Y+011155
X+012371Y+010155
X+012371Y+009155
X+012371Y+008155
X+012371Y+007155
X+012371Y+006155
X+018371Y+006155
X+018371Y+007155
X+018371Y+008155
X+018371Y+009155
X+018371Y+010155
X+018371Y+011155
X+018371Y+012155
X+018371Y+013155
X+018371Y+014155
X+018371Y+015155
X+018371Y+016155
X+018371Y+017155
X+018371Y+018155
X+018371Y+019155
X+018371Y+020155
X+018371Y+021155
X+018371Y+022155
X+018371Y+023155
X+018371Y+024155
X+018371Y+025155
T02
X+008371Y+011655
X+008371Y+014214
T04
X+028871Y+015155
X+028871Y+014155
X+028871Y+013155
X+028871Y+012155
X+028871Y+011155
X+028871Y+010155
X+028871Y+009155
X+028871Y+008155
X+028871Y+007155
X+028871Y+006155
X+031871Y+015155
X+031871Y+014155
X+031871Y+013155
X+031871Y+012155
X+031871Y+011155
X+031871Y+010155
X+031871Y+009155
X+031871Y+008155
X+031871Y+007155
X+031871Y+006155
X+014871Y+036655
X+014871Y+035655
X+014871Y+034655
X+014871Y+033655
X+014871Y+032655
X+014871Y+031655
X+014871Y+030655
X+017871Y+030655
X+017871Y+031655
X+017871Y+032655
X+017871Y+033655
X+017871Y+034655
X+017871Y+035655
X+017871Y+036655
X+028871Y+027155
X+028871Y+026155
X+028871Y+025155
X+028871Y+024155
X+028871Y+023155
X+028871Y+022155
X+028871Y+021155
X+031871Y+021155
X+031871Y+022155
X+031871Y+023155
X+031871Y+024155
X+031871Y+025155
X+031871Y+026155
X+031871Y+027155
T08
X+006371Y+007655
X+006371Y+009624
T04
X+020871Y+029155
X+020871Y+028155
X+020871Y+027155
X+020871Y+026155
X+020871Y+025155
X+020871Y+024155
X+020871Y+023155
X+020871Y+022155
X+020871Y+021155
X+020871Y+020155
X+020871Y+019155
X+020871Y+018155
X+020871Y+017155
X+020871Y+016155
X+020871Y+015155
X+020871Y+014155
X+020871Y+013155
X+020871Y+012155
X+020871Y+011155
X+020871Y+010155
X+020871Y+009155
X+020871Y+008155
X+020871Y+007155
X+020871Y+006155
X+026871Y+006155
X+026871Y+007155
X+026871Y+008155
X+026871Y+009155
X+026871Y+010155
X+026871Y+011155
X+026871Y+012155
X+026871Y+013155
X+026871Y+014155
X+026871Y+015155
X+026871Y+016155
X+026871Y+017155
X+026871Y+018155
X+026871Y+019155
X+026871Y+020155
X+026871Y+021155
X+026871Y+022155
X+026871Y+023155
X+026871Y+024155
X+026871Y+025155
X+026871Y+026155
X+026871Y+027155
X+026871Y+028155
X+026871Y+029155
T02
X+034371Y+025155
X+034371Y+024455
X+034371Y+023755
X+034371Y+023055
X+034371Y+022355
X+034371Y+021655
X+034371Y+020955
X+034371Y+020255
X+034371Y+019555
X+034371Y+018855
X+034371Y+018155
X+034371Y+017455
X+034371Y+016755
X+034371Y+016055
X+034371Y+015355
X+034371Y+014655
X+034371Y+013955
X+034371Y+013255
X+034371Y+012555
X+034371Y+011855
X+034371Y+011155
X+034371Y+010455
X+034371Y+009755
X+034371Y+009055
X+034371Y+008355
X+034371Y+007655
X+034371Y+006955
X+034371Y+006255
X+040371Y+006255
X+040371Y+006955
X+040371Y+007646
X+040371Y+008355
X+040371Y+009055
X+040371Y+009755
X+040371Y+010455
X+040371Y+011155
X+040371Y+011855
X+040371Y+012555
X+040371Y+013255
X+040371Y+013955
X+040371Y+014655
X+040371Y+015355
X+040371Y+016055
X+040371Y+016755
X+040371Y+017455
X+040371Y+018155
X+040371Y+018855
X+040371Y+019555
X+040371Y+020255
X+040371Y+020955
X+040371Y+021655
X+040371Y+022355
X+040371Y+023055
X+040371Y+023755
X+040371Y+024455
X+040371Y+025155
T06
X+011371Y+036155
X+011371Y+037155
X+011371Y+038155
T01
X+032496Y+027040
X+042861Y+026540
X+021313Y+020646
X+039525Y+045540
X+008299Y+044626
X+006497Y+044626
X+006497Y+043155
X+047680Y+020040
X+047756Y+033070
X+042150Y+031535
X+041025Y+031535
X+044380Y+036725
X+042871Y+036860
X+037880Y+030165
X+037880Y+031745
X+032090Y+032540
X+033940Y+036465
X+044775Y+035935
X+046361Y+036330
X+024236Y+039280
X+024236Y+035935
X+044700Y+015175
X+044700Y+022695
X+042861Y+022695
X+041871Y+035935
X+040361Y+039965
X+008871Y+044761
X+045361Y+035800
X+046756Y+035800
X+043765Y+039175
X+043765Y+037120
X+039795Y+039175
X+043515Y+019646
X+041631Y+019555
X+043515Y+017175
X+047075Y+015070
X+035236Y+017646
X+039765Y+018855
X+043910Y+016646
X+041236Y+018855
X+037871Y+037930
X+031641Y+037930
X+031111Y+040455
X+047929Y+013646
X+048986Y+038720
X+036756Y+038720
X+038595Y+011600
X+012813Y+005530
X+037871Y+042044
X+042966Y+042044
X+011087Y+004692
X+049256Y+004567
X+046280Y+011646
X+042996Y+008155
X+044305Y+021040
X+047285Y+021040
X+044305Y+015646
X+035631Y+015355
X+034765Y+030955
X+038361Y+045281
X+012871Y+045010
X+035265Y+038325
X+049245Y+012040
X+049651Y+007155
X+047093Y+005482
X+039384Y+010850
X+039371Y+037830
X+011476Y+040849
X+036871Y+039965
X+016890Y+008040
X+015226Y+008040
X+013341Y+042044
X+036221Y+013955
X+025401Y+005876
X+034966Y+005087
X+035756Y+005087
X+046280Y+006646
X+022336Y+035540
X+022336Y+026175
X+025401Y+026175
X+028436Y+043229
X+029360Y+035540
X+034871Y+035540
X+028286Y+017646
X+022611Y+017646
X+027361Y+022646
X+016890Y+019155
X+016890Y+025646
X+023892Y+025646
X+023892Y+015646
X+027756Y+015646
X+027756Y+013979
X+028015Y+012646
X+028015Y+010646
X+024811Y+005876
X+024811Y+005087
X+036026Y+020650
X+039545Y+024455
X+044890Y+023646
X+044890Y+029130
X+038827Y+029130
X+037915Y+029130
X+027891Y+029130
X+036371Y+035146
X+044700Y+007060
X+014976Y+038136
X+044700Y+014646
X+016015Y+035425
X+042996Y+011251
X+042996Y+009040
X+035371Y+036330
X+038880Y+030560
X+042150Y+030560
X+040890Y+032140
X+045490Y+006646
X+040976Y+006665
X+016670Y+033146
X+043915Y+032064
X+019275Y+034646
X+028286Y+034646
X+038990Y+006560
X+038990Y+011225
X+028286Y+030435
X+028831Y+042834
X+043476Y+042834
X+048525Y+042834
X+048525Y+039580
X+030150Y+043626
X+019299Y+043626
X+038200Y+022065
X+035756Y+022065
X+030150Y+031225
X+030150Y+039570
X+036286Y+021535
X+037805Y+021535
X+035891Y+044886
X+035891Y+043229
X+029755Y+043229
X+029755Y+031599
X+033410Y+030300
X+033285Y+042439
X+037150Y+008355
X+038200Y+008355
X+018871Y+042074
X+031851Y+044491
X+035880Y+030560
X+037371Y+030560
X+030025Y+025646
X+018861Y+023597
X+027361Y+024646
X+028286Y+027781
X+043976Y+025646
X+043890Y+020155
X+017285Y+026646
X+048371Y+026040
X+043910Y+019155
X+043910Y+017760
X+030420Y+027561
X+021341Y+039155
X+013225Y+030655
X+044420Y+024040
X+031436Y+034155
X+030286Y+021655
X+030680Y+019950
X+032361Y+019555
X+032361Y+017675
X+029891Y+017675
X+031190Y+018465
X+029834Y+018646
X+020170Y+018646
X+019775Y+019646
X+019391Y+023646
X+035496Y+006724
X+035496Y+007774
X+039545Y+024985
X+036680Y+024850
X+036680Y+025380
X+042871Y+037435
X+027496Y+037435
X+046371Y+021646
X+029496Y+014665
X+013841Y+025646
X+034871Y+038720
X+039765Y+031350
X+020640Y+032070
X+045371Y+018386
T00
M30
