G04 DipTrace 3.2.0.1*
G04 TopSilk.gbr*
%MOIN*%
G04 #@! TF.FileFunction,Legend,Top*
G04 #@! TF.Part,Single*
%ADD10C,0.009843*%
%ADD67C,0.00772*%
%FSLAX26Y26*%
G04*
G70*
G90*
G75*
G01*
G04 TopSilk*
%LPD*%
X2543721Y3323646D2*
D10*
X2533704Y493701D1*
X3043680Y3323646D2*
Y493701D1*
X2533704D2*
X3043680D1*
X2543721Y3323646D2*
X2762264Y3324213D1*
X2825138D2*
X3043680Y3323646D1*
X2762264Y3324213D2*
G03X2825138Y3324213I31437J-264D01*
G01*
X4041744Y2906299D2*
Y481102D1*
X4545658Y2906299D2*
Y481102D1*
X4041744D2*
X4545658D1*
X4041744Y2906299D2*
X4262198D1*
X4545658D2*
X4325204D1*
X4262198D2*
G03X4325204Y2906299I31503J-25D01*
G01*
X942913Y4215007D2*
X935827D1*
X851575D2*
X844488D1*
X851575Y4372394D2*
X844488D1*
X942913D2*
X935827D1*
X844488Y4215007D2*
Y4372394D1*
X942913Y4215007D2*
Y4372394D1*
X3622394Y3242913D2*
Y3235827D1*
Y3151575D2*
Y3144488D1*
X3465007Y3151575D2*
Y3144488D1*
Y3242913D2*
Y3235827D1*
X3622394Y3144488D2*
X3465007D1*
X3622394Y3242913D2*
X3465007D1*
X1472394Y2694882D2*
Y2687795D1*
Y2603543D2*
Y2596457D1*
X1315007Y2603543D2*
Y2596457D1*
Y2694882D2*
Y2687795D1*
X1472394Y2596457D2*
X1315007D1*
X1472394Y2694882D2*
X1315007D1*
X2122394Y1692913D2*
Y1685827D1*
Y1601575D2*
Y1594488D1*
X1965007Y1601575D2*
Y1594488D1*
Y1692913D2*
Y1685827D1*
X2122394Y1594488D2*
X1965007D1*
X2122394Y1692913D2*
X1965007D1*
X4372394Y3092913D2*
Y3085827D1*
Y3001575D2*
Y2994488D1*
X4215007Y3001575D2*
Y2994488D1*
Y3092913D2*
Y3085827D1*
X4372394Y2994488D2*
X4215007D1*
X4372394Y3092913D2*
X4215007D1*
X1965007Y2744488D2*
Y2751575D1*
Y2835827D2*
Y2842913D1*
X2122394Y2835827D2*
Y2842913D1*
Y2744488D2*
Y2751575D1*
X1965007Y2842913D2*
X2122394D1*
X1965007Y2744488D2*
X2122394D1*
X1417007Y3394488D2*
Y3401575D1*
Y3485827D2*
Y3492913D1*
X1574394Y3485827D2*
Y3492913D1*
Y3394488D2*
Y3401575D1*
X1417007Y3492913D2*
X1574394D1*
X1417007Y3394488D2*
X1574394D1*
X2862394Y3527913D2*
Y3520827D1*
Y3436575D2*
Y3429488D1*
X2705007Y3436575D2*
Y3429488D1*
Y3527913D2*
Y3520827D1*
X2862394Y3429488D2*
X2705007D1*
X2862394Y3527913D2*
X2705007D1*
X3465007Y1994488D2*
Y2001575D1*
Y2085827D2*
Y2092913D1*
X3622394Y2085827D2*
Y2092913D1*
Y1994488D2*
Y2001575D1*
X3465007Y2092913D2*
X3622394D1*
X3465007Y1994488D2*
X3622394D1*
X2365007Y4444488D2*
Y4451575D1*
Y4535827D2*
Y4542913D1*
X2522394Y4535827D2*
Y4542913D1*
Y4444488D2*
Y4451575D1*
X2365007Y4542913D2*
X2522394D1*
X2365007Y4444488D2*
X2522394D1*
X4415007Y3244488D2*
Y3251575D1*
Y3335827D2*
Y3342913D1*
X4572394Y3335827D2*
Y3342913D1*
Y3244488D2*
Y3251575D1*
X4415007Y3342913D2*
X4572394D1*
X4415007Y3244488D2*
X4572394D1*
X1143701Y3293701D2*
Y2893701D1*
X1843701D1*
Y3293701D1*
X1643711D1*
X1143701D1*
X444698Y2147703D2*
X954698D1*
X444698Y3375709D2*
Y2147703D1*
X954698Y3375709D2*
Y2147703D1*
X444698Y3375709D2*
X954698D1*
X4625984Y3542542D2*
X3161417D1*
Y4046435D2*
Y3542542D1*
X4625984Y4046435D2*
X3161417D1*
X4625984D2*
Y3825981D1*
Y3542542D2*
Y3762995D1*
Y3825981D2*
G03X4625984Y3762995I5J-31493D01*
G01*
X545701Y1253142D2*
G02X546835Y1335373I47136J40474D01*
G01*
X641701Y1253142D2*
G03X640567Y1335373I-47136J40474D01*
G01*
X532677Y695276D2*
X654724D1*
Y1088976D1*
X532677D1*
Y695276D1*
X3441337Y1902362D2*
Y485039D1*
X3646065Y1902362D2*
Y485039D1*
X3441337D2*
X3646065D1*
X3441337Y1902362D2*
X3520070D1*
X3646065D2*
X3567332D1*
X3520070D2*
G03X3567332Y1902362I23631J103D01*
G01*
X4644488Y4455906D2*
X2942913D1*
Y4731496D1*
X4644488D1*
Y4455906D1*
X3047551Y4245658D2*
X1039764D1*
Y3741744D1*
X3047551D2*
X1039764D1*
X3051575Y4245658D2*
Y4025204D1*
Y3741744D2*
Y3962198D1*
Y4025204D2*
G03X3051575Y3962198I119J-31503D01*
G01*
X3646067Y3029528D2*
Y2257874D1*
X3441334D2*
X3646067D1*
X3441334Y3029528D2*
Y2257874D1*
Y3029528D2*
X3520075D1*
X3646067D2*
X3567327D1*
X3520075D2*
G03X3567327Y3029528I23626J13D01*
G01*
X2146067Y2629528D2*
Y1857874D1*
X1941334D2*
X2146067D1*
X1941334Y2629528D2*
Y1857874D1*
Y2629528D2*
X2020075D1*
X2146067D2*
X2067327D1*
X2020075D2*
G03X2067327Y2629528I23626J13D01*
G01*
X848819Y3861811D2*
X541732D1*
Y3507480D1*
X848819D1*
Y3861811D1*
X2146067Y1505512D2*
Y481890D1*
X1941334D2*
X2146067D1*
X1941334Y1505512D2*
Y481890D1*
Y1505512D2*
X2020075D1*
X2146067D2*
X2067327D1*
X2020075D2*
G03X2067327Y1505512I23626J83D01*
G01*
X1141744Y2497551D2*
Y489764D1*
X1645658D1*
Y2497551D2*
Y489764D1*
X1141744Y2501575D2*
X1362198D1*
X1645658D2*
X1425204D1*
X1362198D2*
G03X1425204Y2501575I31503J119D01*
G01*
X831102Y1388719D2*
X756299D1*
X831102Y1254589D2*
X756299D1*
X831102D2*
Y1388719D1*
X756299Y1254589D2*
Y1388719D1*
X848819Y1961811D2*
X541732D1*
Y1489370D1*
X848819D1*
Y1961811D1*
X587402Y4046850D2*
X764567D1*
Y4440551D1*
X587402D1*
Y4046850D1*
X622835D2*
Y4440551D1*
X2545445Y3397436D2*
D67*
Y3347196D1*
X2567000D1*
X2574186Y3349628D1*
X2576562Y3352004D1*
X2578939Y3356757D1*
Y3363942D1*
X2576562Y3368751D1*
X2574186Y3371127D1*
X2567000Y3373504D1*
X2574186Y3375936D1*
X2576562Y3378312D1*
X2578939Y3383066D1*
Y3387874D1*
X2576562Y3392627D1*
X2574186Y3395059D1*
X2567000Y3397436D1*
X2545445D1*
Y3373504D2*
X2567000D1*
X2594378Y3397436D2*
Y3361566D1*
X2596755Y3354381D1*
X2601563Y3349628D1*
X2608748Y3347196D1*
X2613501D1*
X2620686Y3349628D1*
X2625495Y3354381D1*
X2627871Y3361566D1*
Y3397436D1*
X2676804Y3390251D2*
X2672051Y3395059D1*
X2664866Y3397436D1*
X2655304D1*
X2648119Y3395059D1*
X2643311Y3390251D1*
Y3385497D1*
X2645742Y3380689D1*
X2648119Y3378312D1*
X2652872Y3375936D1*
X2667242Y3371127D1*
X2672051Y3368751D1*
X2674427Y3366319D1*
X2676804Y3361566D1*
Y3354381D1*
X2672051Y3349628D1*
X2664866Y3347196D1*
X2655304D1*
X2648119Y3349628D1*
X2643311Y3354381D1*
X2692243Y3338905D2*
X2737675D1*
X2786607Y3390251D2*
X2781854Y3395059D1*
X2774669Y3397436D1*
X2765107D1*
X2757922Y3395059D1*
X2753114Y3390251D1*
Y3385497D1*
X2755546Y3380689D1*
X2757922Y3378312D1*
X2762676Y3375936D1*
X2777046Y3371127D1*
X2781854Y3368751D1*
X2784231Y3366319D1*
X2786607Y3361566D1*
Y3354381D1*
X2781854Y3349628D1*
X2774669Y3347196D1*
X2765107D1*
X2757922Y3349628D1*
X2753114Y3354381D1*
X2802046Y3397436D2*
X2814040Y3347196D1*
X2825978Y3397436D1*
X2837916Y3347196D1*
X2849910Y3397436D1*
X2865349D2*
Y3347196D1*
X2897535Y3397436D2*
Y3347196D1*
X2880788Y3397436D2*
X2914282D1*
X2965591Y3385497D2*
X2963214Y3390251D1*
X2958406Y3395059D1*
X2953653Y3397436D1*
X2944091D1*
X2939283Y3395059D1*
X2934529Y3390251D1*
X2932098Y3385497D1*
X2929721Y3378312D1*
Y3366319D1*
X2932098Y3359189D1*
X2934529Y3354381D1*
X2939283Y3349628D1*
X2944091Y3347196D1*
X2953653D1*
X2958406Y3349628D1*
X2963214Y3354381D1*
X2965591Y3359189D1*
X2981030Y3397436D2*
Y3347196D1*
X3014523Y3397436D2*
Y3347196D1*
X2981030Y3373504D2*
X3014523D1*
X3029963Y3387819D2*
X3034771Y3390251D1*
X3041956Y3397380D1*
Y3347196D1*
X4034695Y2979522D2*
Y2929282D1*
X4056251D1*
X4063436Y2931714D1*
X4065812Y2934091D1*
X4068189Y2938844D1*
Y2946029D1*
X4065812Y2950837D1*
X4063436Y2953214D1*
X4056251Y2955591D1*
X4063436Y2958022D1*
X4065812Y2960399D1*
X4068189Y2965152D1*
Y2969961D1*
X4065812Y2974714D1*
X4063436Y2977146D1*
X4056251Y2979522D1*
X4034695D1*
Y2955591D2*
X4056251D1*
X4083628Y2979522D2*
Y2943652D1*
X4086005Y2936467D1*
X4090813Y2931714D1*
X4097998Y2929282D1*
X4102751D1*
X4109936Y2931714D1*
X4114745Y2936467D1*
X4117121Y2943652D1*
Y2979522D1*
X4166054Y2972337D2*
X4161301Y2977146D1*
X4154116Y2979522D1*
X4144554D1*
X4137369Y2977146D1*
X4132561Y2972337D1*
Y2967584D1*
X4134992Y2962776D1*
X4137369Y2960399D1*
X4142122Y2958022D1*
X4156492Y2953214D1*
X4161301Y2950837D1*
X4163677Y2948406D1*
X4166054Y2943652D1*
Y2936467D1*
X4161301Y2931714D1*
X4154116Y2929282D1*
X4144554D1*
X4137369Y2931714D1*
X4132561Y2936467D1*
X4181493Y2920992D2*
X4226925D1*
X4275857Y2972337D2*
X4271104Y2977146D1*
X4263919Y2979522D1*
X4254357D1*
X4247172Y2977146D1*
X4242364Y2972337D1*
Y2967584D1*
X4244796Y2962776D1*
X4247172Y2960399D1*
X4251926Y2958022D1*
X4266296Y2953214D1*
X4271104Y2950837D1*
X4273481Y2948406D1*
X4275857Y2943652D1*
Y2936467D1*
X4271104Y2931714D1*
X4263919Y2929282D1*
X4254357D1*
X4247172Y2931714D1*
X4242364Y2936467D1*
X4291297Y2979522D2*
X4303290Y2929282D1*
X4315228Y2979522D1*
X4327166Y2929282D1*
X4339160Y2979522D1*
X4354599D2*
Y2929282D1*
X4386785Y2979522D2*
Y2929282D1*
X4370038Y2979522D2*
X4403532D1*
X4454841Y2967584D2*
X4452464Y2972337D1*
X4447656Y2977146D1*
X4442903Y2979522D1*
X4433341D1*
X4428533Y2977146D1*
X4423780Y2972337D1*
X4421348Y2967584D1*
X4418971Y2960399D1*
Y2948406D1*
X4421348Y2941276D1*
X4423780Y2936467D1*
X4428533Y2931714D1*
X4433341Y2929282D1*
X4442903D1*
X4447656Y2931714D1*
X4452464Y2936467D1*
X4454841Y2941276D1*
X4470280Y2979522D2*
Y2929282D1*
X4503774Y2979522D2*
Y2929282D1*
X4470280Y2955591D2*
X4503774D1*
X4521645Y2967529D2*
Y2969905D1*
X4524021Y2974714D1*
X4526398Y2977090D1*
X4531206Y2979467D1*
X4540768D1*
X4545521Y2977090D1*
X4547898Y2974714D1*
X4550330Y2969905D1*
Y2965152D1*
X4547898Y2960344D1*
X4543145Y2953214D1*
X4519213Y2929282D1*
X4552706D1*
X783203Y4297919D2*
X778450Y4295543D1*
X773642Y4290734D1*
X771265Y4285981D1*
Y4276420D1*
X773642Y4271611D1*
X778450Y4266858D1*
X783203Y4264426D1*
X790388Y4262050D1*
X802382D1*
X809512Y4264426D1*
X814320Y4266858D1*
X819073Y4271611D1*
X821505Y4276420D1*
Y4285981D1*
X819073Y4290734D1*
X814320Y4295543D1*
X809512Y4297919D1*
X780882Y4313359D2*
X778450Y4318167D1*
X771320Y4325352D1*
X821505D1*
X3537169Y3304198D2*
X3534793Y3308951D1*
X3529984Y3313760D1*
X3525231Y3316136D1*
X3515670D1*
X3510861Y3313760D1*
X3506108Y3308951D1*
X3503676Y3304198D1*
X3501300Y3297013D1*
Y3285020D1*
X3503676Y3277890D1*
X3506108Y3273081D1*
X3510861Y3268328D1*
X3515670Y3265896D1*
X3525231D1*
X3529984Y3268328D1*
X3534793Y3273081D1*
X3537169Y3277890D1*
X3555041Y3304143D2*
Y3306520D1*
X3557417Y3311328D1*
X3559794Y3313705D1*
X3564602Y3316081D1*
X3574164D1*
X3578917Y3313705D1*
X3581294Y3311328D1*
X3583725Y3306520D1*
Y3301766D1*
X3581294Y3296958D1*
X3576540Y3289828D1*
X3552609Y3265896D1*
X3586102D1*
X1387169Y2756167D2*
X1384793Y2760920D1*
X1379984Y2765728D1*
X1375231Y2768105D1*
X1365670D1*
X1360861Y2765728D1*
X1356108Y2760920D1*
X1353676Y2756167D1*
X1351300Y2748982D1*
Y2736988D1*
X1353676Y2729858D1*
X1356108Y2725050D1*
X1360861Y2720297D1*
X1365670Y2717865D1*
X1375231D1*
X1379984Y2720297D1*
X1384793Y2725050D1*
X1387169Y2729858D1*
X1407417Y2768050D2*
X1433670D1*
X1419355Y2748926D1*
X1426540D1*
X1431294Y2746550D1*
X1433670Y2744173D1*
X1436102Y2736988D1*
Y2732235D1*
X1433670Y2725050D1*
X1428917Y2720242D1*
X1421732Y2717865D1*
X1414547D1*
X1407417Y2720242D1*
X1405041Y2722673D1*
X1402609Y2727427D1*
X2035981Y1754198D2*
X2033605Y1758951D1*
X2028796Y1763760D1*
X2024043Y1766136D1*
X2014481D1*
X2009673Y1763760D1*
X2004920Y1758951D1*
X2002488Y1754198D1*
X2000111Y1747013D1*
Y1735020D1*
X2002488Y1727890D1*
X2004920Y1723081D1*
X2009673Y1718328D1*
X2014481Y1715896D1*
X2024043D1*
X2028796Y1718328D1*
X2033605Y1723081D1*
X2035981Y1727890D1*
X2075352Y1715896D2*
Y1766081D1*
X2051420Y1732643D1*
X2087290D1*
X4287169Y3154198D2*
X4284793Y3158951D1*
X4279984Y3163760D1*
X4275231Y3166136D1*
X4265670D1*
X4260861Y3163760D1*
X4256108Y3158951D1*
X4253676Y3154198D1*
X4251300Y3147013D1*
Y3135020D1*
X4253676Y3127890D1*
X4256108Y3123081D1*
X4260861Y3118328D1*
X4265670Y3115896D1*
X4275231D1*
X4279984Y3118328D1*
X4284793Y3123081D1*
X4287169Y3127890D1*
X4331294Y3166081D2*
X4307417D1*
X4305041Y3144581D1*
X4307417Y3146958D1*
X4314602Y3149390D1*
X4321732D1*
X4328917Y3146958D1*
X4333725Y3142205D1*
X4336102Y3135020D1*
Y3130267D1*
X4333725Y3123081D1*
X4328917Y3118273D1*
X4321732Y3115896D1*
X4314602D1*
X4307417Y3118273D1*
X4305041Y3120705D1*
X4302609Y3125458D1*
X2038385Y2904198D2*
X2036009Y2908951D1*
X2031200Y2913760D1*
X2026447Y2916136D1*
X2016886D1*
X2012077Y2913760D1*
X2007324Y2908951D1*
X2004892Y2904198D1*
X2002515Y2897013D1*
Y2885020D1*
X2004892Y2877890D1*
X2007324Y2873081D1*
X2012077Y2868328D1*
X2016886Y2865896D1*
X2026447D1*
X2031200Y2868328D1*
X2036009Y2873081D1*
X2038385Y2877890D1*
X2082510Y2908951D2*
X2080133Y2913705D1*
X2072948Y2916081D1*
X2068195D1*
X2061010Y2913705D1*
X2056201Y2906520D1*
X2053825Y2894581D1*
Y2882643D1*
X2056201Y2873081D1*
X2061010Y2868273D1*
X2068195Y2865896D1*
X2070571D1*
X2077701Y2868273D1*
X2082510Y2873081D1*
X2084886Y2880267D1*
Y2882643D1*
X2082510Y2889828D1*
X2077701Y2894581D1*
X2070571Y2896958D1*
X2068195D1*
X2061010Y2894581D1*
X2056201Y2889828D1*
X2053825Y2882643D1*
X1489169Y3554198D2*
X1486793Y3558951D1*
X1481984Y3563760D1*
X1477231Y3566136D1*
X1467670D1*
X1462861Y3563760D1*
X1458108Y3558951D1*
X1455676Y3554198D1*
X1453300Y3547013D1*
Y3535020D1*
X1455676Y3527890D1*
X1458108Y3523081D1*
X1462861Y3518328D1*
X1467670Y3515896D1*
X1477231D1*
X1481984Y3518328D1*
X1486793Y3523081D1*
X1489169Y3527890D1*
X1514170Y3515896D2*
X1538102Y3566081D1*
X1504609D1*
X2777197Y3589198D2*
X2774821Y3593951D1*
X2770012Y3598760D1*
X2765259Y3601136D1*
X2755697D1*
X2750889Y3598760D1*
X2746136Y3593951D1*
X2743704Y3589198D1*
X2741327Y3582013D1*
Y3570020D1*
X2743704Y3562890D1*
X2746136Y3558081D1*
X2750889Y3553328D1*
X2755697Y3550896D1*
X2765259D1*
X2770012Y3553328D1*
X2774821Y3558081D1*
X2777197Y3562890D1*
X2804575Y3601081D2*
X2797445Y3598705D1*
X2795013Y3593951D1*
Y3589143D1*
X2797445Y3584390D1*
X2802198Y3581958D1*
X2811760Y3579581D1*
X2818945Y3577205D1*
X2823698Y3572396D1*
X2826074Y3567643D1*
Y3560458D1*
X2823698Y3555705D1*
X2821321Y3553273D1*
X2814136Y3550896D1*
X2804575D1*
X2797445Y3553273D1*
X2795013Y3555705D1*
X2792636Y3560458D1*
Y3567643D1*
X2795013Y3572396D1*
X2799821Y3577205D1*
X2806951Y3579581D1*
X2816513Y3581958D1*
X2821321Y3584390D1*
X2823698Y3589143D1*
Y3593951D1*
X2821321Y3598705D1*
X2814136Y3601081D1*
X2804575D1*
X3538358Y2154198D2*
X3535981Y2158951D1*
X3531173Y2163760D1*
X3526420Y2166136D1*
X3516858D1*
X3512049Y2163760D1*
X3507296Y2158951D1*
X3504864Y2154198D1*
X3502488Y2147013D1*
Y2135020D1*
X3504864Y2127890D1*
X3507296Y2123081D1*
X3512049Y2118328D1*
X3516858Y2115896D1*
X3526420D1*
X3531173Y2118328D1*
X3535981Y2123081D1*
X3538358Y2127890D1*
X3584914Y2149390D2*
X3582482Y2142205D1*
X3577729Y2137396D1*
X3570544Y2135020D1*
X3568167D1*
X3560982Y2137396D1*
X3556229Y2142205D1*
X3553797Y2149390D1*
Y2151766D1*
X3556229Y2158951D1*
X3560982Y2163705D1*
X3568167Y2166081D1*
X3570544D1*
X3577729Y2163705D1*
X3582482Y2158951D1*
X3584914Y2149390D1*
Y2137396D1*
X3582482Y2125458D1*
X3577729Y2118273D1*
X3570544Y2115896D1*
X3565790D1*
X3558605Y2118273D1*
X3556229Y2123081D1*
X2423453Y4604198D2*
X2421077Y4608951D1*
X2416268Y4613760D1*
X2411515Y4616136D1*
X2401953D1*
X2397145Y4613760D1*
X2392392Y4608951D1*
X2389960Y4604198D1*
X2387583Y4597013D1*
Y4585020D1*
X2389960Y4577890D1*
X2392392Y4573081D1*
X2397145Y4568328D1*
X2401953Y4565896D1*
X2411515D1*
X2416268Y4568328D1*
X2421077Y4573081D1*
X2423453Y4577890D1*
X2438892Y4606520D2*
X2443701Y4608951D1*
X2450886Y4616081D1*
Y4565896D1*
X2480695Y4616081D2*
X2473510Y4613705D1*
X2468702Y4606520D1*
X2466325Y4594581D1*
Y4587396D1*
X2468702Y4575458D1*
X2473510Y4568273D1*
X2480695Y4565896D1*
X2485448D1*
X2492633Y4568273D1*
X2497387Y4575458D1*
X2499818Y4587396D1*
Y4594581D1*
X2497387Y4606520D1*
X2492633Y4613705D1*
X2485448Y4616081D1*
X2480695D1*
X2497387Y4606520D2*
X2468702Y4575458D1*
X4484203Y3404198D2*
X4481826Y3408951D1*
X4477018Y3413760D1*
X4472265Y3416136D1*
X4462703D1*
X4457895Y3413760D1*
X4453142Y3408951D1*
X4450710Y3404198D1*
X4448333Y3397013D1*
Y3385020D1*
X4450710Y3377890D1*
X4453142Y3373081D1*
X4457895Y3368328D1*
X4462703Y3365896D1*
X4472265D1*
X4477018Y3368328D1*
X4481826Y3373081D1*
X4484203Y3377890D1*
X4499642Y3406520D2*
X4504451Y3408951D1*
X4511636Y3416081D1*
Y3365896D1*
X4527075Y3406520D2*
X4531883Y3408951D1*
X4539068Y3416081D1*
Y3365896D1*
X1412610Y3354986D2*
X1410233Y3359739D1*
X1405425Y3364547D1*
X1400672Y3366924D1*
X1391110D1*
X1386302Y3364547D1*
X1381548Y3359739D1*
X1379117Y3354986D1*
X1376740Y3347801D1*
Y3335807D1*
X1379117Y3328677D1*
X1381548Y3323869D1*
X1386302Y3319116D1*
X1391110Y3316684D1*
X1400672D1*
X1405425Y3319116D1*
X1410233Y3323869D1*
X1412610Y3328677D1*
X1428049Y3366924D2*
Y3316684D1*
X1456734D1*
X1486543Y3366924D2*
X1481735Y3364547D1*
X1476982Y3359739D1*
X1474550Y3354986D1*
X1472173Y3347801D1*
Y3335807D1*
X1474550Y3328677D1*
X1476982Y3323869D1*
X1481735Y3319116D1*
X1486543Y3316684D1*
X1496105D1*
X1500858Y3319116D1*
X1505667Y3323869D1*
X1508043Y3328677D1*
X1510420Y3335807D1*
Y3347801D1*
X1508043Y3354986D1*
X1505667Y3359739D1*
X1500858Y3364547D1*
X1496105Y3366924D1*
X1486543D1*
X1561729Y3354986D2*
X1559352Y3359739D1*
X1554544Y3364547D1*
X1549791Y3366924D1*
X1540229D1*
X1535421Y3364547D1*
X1530668Y3359739D1*
X1528236Y3354986D1*
X1525859Y3347801D1*
Y3335807D1*
X1528236Y3328677D1*
X1530668Y3323869D1*
X1535421Y3319116D1*
X1540229Y3316684D1*
X1549791D1*
X1554544Y3319116D1*
X1559352Y3323869D1*
X1561729Y3328677D1*
X1577168Y3366924D2*
Y3316684D1*
X1610662Y3366924D2*
X1577168Y3333431D1*
X1589106Y3345424D2*
X1610662Y3316684D1*
X622172Y3436994D2*
X619796Y3441747D1*
X614987Y3446555D1*
X610234Y3448932D1*
X600672D1*
X595864Y3446555D1*
X591111Y3441747D1*
X588679Y3436994D1*
X586302Y3429808D1*
Y3417815D1*
X588679Y3410685D1*
X591111Y3405877D1*
X595864Y3401124D1*
X600672Y3398692D1*
X610234D1*
X614987Y3401124D1*
X619796Y3405877D1*
X622172Y3410685D1*
X671105Y3448932D2*
Y3398692D1*
X637611Y3448932D1*
Y3398692D1*
X703291Y3448932D2*
Y3398692D1*
X686544Y3448932D2*
X720037D1*
X735477Y3425000D2*
X756976D1*
X764161Y3427432D1*
X766593Y3429808D1*
X768970Y3434562D1*
Y3439370D1*
X766593Y3444123D1*
X764161Y3446555D1*
X756976Y3448932D1*
X735477D1*
Y3398692D1*
X752223Y3425000D2*
X768970Y3398692D1*
X784409Y3448932D2*
Y3398692D1*
X813094D1*
X3728489Y4184513D2*
X3726112Y4189266D1*
X3721304Y4194075D1*
X3716551Y4196451D1*
X3706989D1*
X3702180Y4194075D1*
X3697427Y4189266D1*
X3694995Y4184513D1*
X3692619Y4177328D1*
Y4165335D1*
X3694995Y4158205D1*
X3697427Y4153396D1*
X3702180Y4148643D1*
X3706989Y4146211D1*
X3716551D1*
X3721304Y4148643D1*
X3726112Y4153396D1*
X3728489Y4158205D1*
X3758298Y4196451D2*
X3753490Y4194075D1*
X3748736Y4189266D1*
X3746305Y4184513D1*
X3743928Y4177328D1*
Y4165335D1*
X3746305Y4158205D1*
X3748736Y4153396D1*
X3753490Y4148643D1*
X3758298Y4146211D1*
X3767860D1*
X3772613Y4148643D1*
X3777421Y4153396D1*
X3779798Y4158205D1*
X3782175Y4165335D1*
Y4177328D1*
X3779798Y4184513D1*
X3777421Y4189266D1*
X3772613Y4194075D1*
X3767860Y4196451D1*
X3758298D1*
X3797614D2*
Y4146211D1*
X3814360D1*
X3821545Y4148643D1*
X3826354Y4153396D1*
X3828731Y4158205D1*
X3831107Y4165335D1*
Y4177328D1*
X3828731Y4184513D1*
X3826354Y4189266D1*
X3821545Y4194075D1*
X3814360Y4196451D1*
X3797614D1*
X3877608D2*
X3846546D1*
Y4146211D1*
X3877608D1*
X3846546Y4172520D2*
X3865670D1*
X3893047Y4137921D2*
X3938479D1*
X3953918Y4172520D2*
X3975418D1*
X3982603Y4174952D1*
X3985035Y4177328D1*
X3987411Y4182081D1*
Y4186890D1*
X3985035Y4191643D1*
X3982603Y4194075D1*
X3975418Y4196451D1*
X3953918D1*
Y4146211D1*
X3970665Y4172520D2*
X3987411Y4146211D1*
X4017221Y4196451D2*
X4012412Y4194075D1*
X4007659Y4189266D1*
X4005227Y4184513D1*
X4002850Y4177328D1*
Y4165335D1*
X4005227Y4158205D1*
X4007659Y4153396D1*
X4012412Y4148643D1*
X4017221Y4146211D1*
X4026782D1*
X4031535Y4148643D1*
X4036344Y4153396D1*
X4038720Y4158205D1*
X4041097Y4165335D1*
Y4177328D1*
X4038720Y4184513D1*
X4036344Y4189266D1*
X4031535Y4194075D1*
X4026782Y4196451D1*
X4017221D1*
X4094783Y4146211D2*
Y4196451D1*
X4075659Y4146211D1*
X4056536Y4196451D1*
Y4146211D1*
X563238Y1446451D2*
Y1396211D1*
X579984D1*
X587169Y1398643D1*
X591978Y1403396D1*
X594354Y1408205D1*
X596731Y1415335D1*
Y1427328D1*
X594354Y1434513D1*
X591978Y1439266D1*
X587169Y1444075D1*
X579984Y1446451D1*
X563238D1*
X612170Y1436835D2*
X616979Y1439266D1*
X624164Y1446396D1*
Y1396211D1*
X459454Y664118D2*
X509694D1*
Y680865D1*
X507262Y688050D1*
X502509Y692858D1*
X497701Y695235D1*
X490571Y697612D1*
X478577D1*
X471392Y695235D1*
X466639Y692859D1*
X461831Y688050D1*
X459454Y680865D1*
Y664118D1*
Y713051D2*
X509694D1*
Y734606D1*
X507262Y741791D1*
X504886Y744168D1*
X500133Y746544D1*
X492947D1*
X488139Y744168D1*
X485762Y741791D1*
X483386Y734606D1*
X480954Y741791D1*
X478577Y744168D1*
X473824Y746544D1*
X469016D1*
X464263Y744168D1*
X461831Y741791D1*
X459454Y734606D1*
Y713051D1*
X483386D2*
Y734606D1*
X471392Y797853D2*
X466639Y795477D1*
X461831Y790668D1*
X459454Y785915D1*
Y776354D1*
X461831Y771545D1*
X466639Y766792D1*
X471392Y764360D1*
X478577Y761983D1*
X490571D1*
X497701Y764360D1*
X502509Y766792D1*
X507262Y771545D1*
X509694Y776353D1*
Y785915D1*
X507262Y790668D1*
X502509Y795477D1*
X497701Y797853D1*
X490571D1*
Y785915D1*
X517985Y813293D2*
Y858724D1*
X466639Y907657D2*
X461831Y902904D1*
X459454Y895719D1*
Y886157D1*
X461831Y878972D1*
X466639Y874163D1*
X471392D1*
X476201Y876595D1*
X478577Y878972D1*
X480954Y883725D1*
X485762Y898095D1*
X488139Y902904D1*
X490571Y905280D1*
X495324Y907657D1*
X502509D1*
X507262Y902904D1*
X509694Y895719D1*
Y886157D1*
X507262Y878972D1*
X502509Y874163D1*
X459454Y923096D2*
X509694Y935089D1*
X459454Y947028D1*
X509694Y958966D1*
X459454Y970959D1*
Y1003145D2*
X509694D1*
X459454Y986399D2*
Y1019892D1*
X471392Y1071201D2*
X466639Y1068825D1*
X461831Y1064016D1*
X459454Y1059263D1*
Y1049701D1*
X461831Y1044893D1*
X466639Y1040140D1*
X471392Y1037708D1*
X478577Y1035331D1*
X490571D1*
X497701Y1037708D1*
X502509Y1040140D1*
X507262Y1044893D1*
X509694Y1049701D1*
Y1059263D1*
X507262Y1064016D1*
X502509Y1068825D1*
X497701Y1071201D1*
X459454Y1086640D2*
X509694D1*
X459454Y1120134D2*
X509694D1*
X483386Y1086640D2*
Y1120134D1*
X3450616Y1975585D2*
X3419555D1*
Y1925345D1*
X3450616D1*
X3419555Y1951654D2*
X3438678D1*
X3466056Y1917055D2*
X3511487D1*
X3526926Y1951654D2*
X3548426D1*
X3555611Y1954085D1*
X3558043Y1956462D1*
X3560420Y1961215D1*
Y1966024D1*
X3558043Y1970777D1*
X3555611Y1973209D1*
X3548426Y1975585D1*
X3526926D1*
Y1925345D1*
X3543673Y1951654D2*
X3560420Y1925345D1*
X3614161D2*
X3594982Y1975585D1*
X3575859Y1925345D1*
X3583044Y1942092D2*
X3606976D1*
X3667847Y1925345D2*
Y1975585D1*
X3648723Y1925345D1*
X3629600Y1975585D1*
Y1925345D1*
X3763891Y4792781D2*
X3761515Y4797534D1*
X3756706Y4802343D1*
X3751953Y4804719D1*
X3742392D1*
X3737583Y4802343D1*
X3732830Y4797534D1*
X3730398Y4792781D1*
X3728022Y4785596D1*
Y4773602D1*
X3730398Y4766473D1*
X3732830Y4761664D1*
X3737583Y4756911D1*
X3742392Y4754479D1*
X3751953D1*
X3756706Y4756911D1*
X3761515Y4761664D1*
X3763891Y4766473D1*
Y4773602D1*
X3751953D1*
X3810447Y4804719D2*
X3779331D1*
Y4754479D1*
Y4780787D2*
X3798454D1*
X3825887Y4804719D2*
X3859380Y4754479D1*
Y4804719D2*
X3825887Y4754479D1*
X1927049Y4384513D2*
X1924673Y4389266D1*
X1919864Y4394075D1*
X1915111Y4396451D1*
X1905550D1*
X1900741Y4394075D1*
X1895988Y4389266D1*
X1893556Y4384513D1*
X1891180Y4377328D1*
Y4365335D1*
X1893556Y4358205D1*
X1895988Y4353396D1*
X1900741Y4348643D1*
X1905550Y4346211D1*
X1915111D1*
X1919864Y4348643D1*
X1924673Y4353396D1*
X1927049Y4358205D1*
Y4365335D1*
X1915111D1*
X1942489Y4396451D2*
Y4346211D1*
X1957928Y4396451D2*
Y4346211D1*
X1986613D1*
X2002052Y4396451D2*
Y4346211D1*
X2030737D1*
X2046176Y4396451D2*
Y4346211D1*
X2097485Y4384513D2*
X2095109Y4389266D1*
X2090300Y4394075D1*
X2085547Y4396451D1*
X2075986D1*
X2071177Y4394075D1*
X2066424Y4389266D1*
X2063992Y4384513D1*
X2061615Y4377328D1*
Y4365335D1*
X2063992Y4358205D1*
X2066424Y4353396D1*
X2071177Y4348643D1*
X2075986Y4346211D1*
X2085547D1*
X2090300Y4348643D1*
X2095109Y4353396D1*
X2097485Y4358205D1*
Y4365335D1*
X2085547D1*
X2151226Y4346211D2*
X2132048Y4396451D1*
X2112925Y4346211D1*
X2120110Y4362958D2*
X2144041D1*
X2200159Y4396451D2*
Y4346211D1*
X2166666Y4396451D1*
Y4346211D1*
X3460178Y3102751D2*
Y3052511D1*
X3426685Y3102751D1*
Y3052511D1*
X3513919D2*
X3494741Y3102751D1*
X3475617Y3052511D1*
X3482802Y3069257D2*
X3506734D1*
X3562852Y3102751D2*
Y3052511D1*
X3529358Y3102751D1*
Y3052511D1*
X3578291Y3102751D2*
Y3052511D1*
X3595038D1*
X3602223Y3054942D1*
X3607031Y3059696D1*
X3609408Y3064504D1*
X3611784Y3071634D1*
Y3083627D1*
X3609408Y3090812D1*
X3607031Y3095566D1*
X3602223Y3100374D1*
X3595038Y3102751D1*
X3578291D1*
X3629655Y3090757D2*
Y3093134D1*
X3632032Y3097942D1*
X3634409Y3100319D1*
X3639217Y3102695D1*
X3648779D1*
X3653532Y3100319D1*
X3655908Y3097942D1*
X3658340Y3093134D1*
Y3088381D1*
X3655908Y3083572D1*
X3651155Y3076442D1*
X3627224Y3052511D1*
X3660717D1*
X1960178Y2702751D2*
Y2652511D1*
X1926685Y2702751D1*
Y2652511D1*
X2013919D2*
X1994741Y2702751D1*
X1975617Y2652511D1*
X1982802Y2669257D2*
X2006734D1*
X2062852Y2702751D2*
Y2652511D1*
X2029358Y2702751D1*
Y2652511D1*
X2078291Y2702751D2*
Y2652511D1*
X2095038D1*
X2102223Y2654942D1*
X2107031Y2659696D1*
X2109408Y2664504D1*
X2111784Y2671634D1*
Y2683627D1*
X2109408Y2690812D1*
X2107031Y2695566D1*
X2102223Y2700374D1*
X2095038Y2702751D1*
X2078291D1*
X2132032Y2702695D2*
X2158285D1*
X2143970Y2683572D1*
X2151155D1*
X2155908Y2681196D1*
X2158285Y2678819D1*
X2160717Y2671634D1*
Y2666881D1*
X2158285Y2659696D1*
X2153532Y2654887D1*
X2146347Y2652511D1*
X2139162D1*
X2132032Y2654887D1*
X2129655Y2657319D1*
X2127224Y2662072D1*
X589037Y3908726D2*
X610592D1*
X617722Y3911102D1*
X620154Y3913534D1*
X622530Y3918287D1*
Y3925472D1*
X620154Y3930226D1*
X617722Y3932658D1*
X610592Y3935034D1*
X589037D1*
Y3884794D1*
X649908Y3918287D2*
X645155Y3915911D1*
X640346Y3911102D1*
X637970Y3903917D1*
Y3899164D1*
X640346Y3891979D1*
X645155Y3887226D1*
X649908Y3884794D1*
X657093D1*
X661901Y3887226D1*
X666655Y3891979D1*
X669086Y3899164D1*
Y3903917D1*
X666655Y3911102D1*
X661901Y3915911D1*
X657093Y3918287D1*
X649908D1*
X684526D2*
X694087Y3884794D1*
X703649Y3918287D1*
X713211Y3884794D1*
X722772Y3918287D1*
X738211Y3903917D2*
X766896D1*
Y3908726D1*
X764520Y3913534D1*
X762143Y3915911D1*
X757335Y3918287D1*
X750150D1*
X745396Y3915911D1*
X740588Y3911102D1*
X738211Y3903917D1*
Y3899164D1*
X740588Y3891979D1*
X745396Y3887226D1*
X750150Y3884794D1*
X757335D1*
X762143Y3887226D1*
X766896Y3891979D1*
X782336Y3918287D2*
Y3884794D1*
Y3903917D2*
X784767Y3911102D1*
X789521Y3915911D1*
X794329Y3918287D1*
X801514D1*
X1817258Y802125D2*
X1817259Y823680D1*
X1814882Y830810D1*
X1812450Y833242D1*
X1807697Y835619D1*
X1800512D1*
X1795759Y833242D1*
X1793327Y830810D1*
X1790950Y823680D1*
Y802125D1*
X1841190D1*
X1814882Y851058D2*
Y872558D1*
X1812450Y879743D1*
X1810073Y882175D1*
X1805320Y884551D1*
X1800512D1*
X1795759Y882175D1*
X1793327Y879743D1*
X1790950Y872558D1*
Y851058D1*
X1841190D1*
X1814882Y867804D2*
X1841190Y884551D1*
X1790950Y931107D2*
Y899990D1*
X1841190D1*
X1814882D2*
Y919114D1*
X1849481Y946546D2*
Y991978D1*
X1790950Y1007417D2*
X1841190D1*
Y1036102D1*
X1790950Y1068288D2*
X1841190D1*
X1790950Y1051541D2*
Y1085035D1*
X1802888Y1136344D2*
X1798135Y1133967D1*
X1793327Y1129159D1*
X1790950Y1124406D1*
Y1114844D1*
X1793327Y1110036D1*
X1798135Y1105282D1*
X1802888Y1102850D1*
X1810073Y1100474D1*
X1822067D1*
X1829197Y1102850D1*
X1834005Y1105282D1*
X1838758Y1110036D1*
X1841190Y1114844D1*
Y1124406D1*
X1838758Y1129159D1*
X1834005Y1133967D1*
X1829197Y1136344D1*
X1790950Y1151783D2*
X1841190D1*
X1790950Y1185276D2*
X1841190D1*
X1814882Y1151783D2*
Y1185276D1*
X1178875Y2548490D2*
X1200430D1*
X1207560Y2550866D1*
X1209992Y2553298D1*
X1212368Y2558051D1*
Y2565236D1*
X1209992Y2569989D1*
X1207560Y2572421D1*
X1200430Y2574798D1*
X1178875D1*
Y2524558D1*
X1227807Y2550866D2*
X1249307D1*
X1256492Y2553298D1*
X1258924Y2555675D1*
X1261301Y2560428D1*
Y2565236D1*
X1258924Y2569989D1*
X1256492Y2572421D1*
X1249307Y2574798D1*
X1227807D1*
Y2524558D1*
X1244554Y2550866D2*
X1261301Y2524558D1*
X1291110Y2574798D2*
X1286302Y2572421D1*
X1281548Y2567613D1*
X1279117Y2562860D1*
X1276740Y2555675D1*
Y2543681D1*
X1279117Y2536551D1*
X1281548Y2531743D1*
X1286302Y2526990D1*
X1291110Y2524558D1*
X1300672D1*
X1305425Y2526990D1*
X1310233Y2531743D1*
X1312610Y2536551D1*
X1314987Y2543681D1*
Y2555675D1*
X1312610Y2562860D1*
X1310233Y2567613D1*
X1305425Y2572421D1*
X1300672Y2574798D1*
X1291110D1*
X1361543D2*
X1330426D1*
Y2524558D1*
Y2550866D2*
X1349549D1*
X1408043Y2574798D2*
X1376982D1*
Y2524558D1*
X1408043D1*
X1376982Y2550866D2*
X1396105D1*
X1456976Y2567613D2*
X1452223Y2572421D1*
X1445038Y2574798D1*
X1435476D1*
X1428291Y2572421D1*
X1423482Y2567613D1*
Y2562860D1*
X1425914Y2558051D1*
X1428291Y2555675D1*
X1433044Y2553298D1*
X1447414Y2548490D1*
X1452223Y2546113D1*
X1454599Y2543681D1*
X1456976Y2538928D1*
Y2531743D1*
X1452223Y2526990D1*
X1445038Y2524558D1*
X1435476D1*
X1428291Y2526990D1*
X1423482Y2531743D1*
X1505908Y2567613D2*
X1501155Y2572421D1*
X1493970Y2574798D1*
X1484409D1*
X1477224Y2572421D1*
X1472415Y2567613D1*
Y2562860D1*
X1474847Y2558051D1*
X1477224Y2555675D1*
X1481977Y2553298D1*
X1496347Y2548490D1*
X1501155Y2546113D1*
X1503532Y2543681D1*
X1505908Y2538928D1*
Y2531743D1*
X1501155Y2526990D1*
X1493970Y2524558D1*
X1484409D1*
X1477224Y2526990D1*
X1472415Y2531743D1*
X1535718Y2574798D2*
X1530909Y2572421D1*
X1526156Y2567613D1*
X1523724Y2562860D1*
X1521348Y2555675D1*
Y2543681D1*
X1523724Y2536551D1*
X1526156Y2531743D1*
X1530909Y2526990D1*
X1535718Y2524558D1*
X1545279D1*
X1550033Y2526990D1*
X1554841Y2531743D1*
X1557218Y2536551D1*
X1559594Y2543681D1*
Y2555675D1*
X1557218Y2562860D1*
X1554841Y2567613D1*
X1550033Y2572421D1*
X1545279Y2574798D1*
X1535718D1*
X1575033Y2550866D2*
X1596533D1*
X1603718Y2553298D1*
X1606150Y2555675D1*
X1608527Y2560428D1*
Y2565236D1*
X1606150Y2569989D1*
X1603718Y2572421D1*
X1596533Y2574798D1*
X1575033D1*
Y2524558D1*
X1591780Y2550866D2*
X1608527Y2524558D1*
X707008Y1291191D2*
Y1312690D1*
X704576Y1319875D1*
X702199Y1322307D1*
X697446Y1324684D1*
X692638D1*
X687885Y1322307D1*
X685453Y1319876D1*
X683076Y1312690D1*
Y1291191D1*
X733316D1*
X707008Y1307937D2*
X733316Y1324684D1*
X692693Y1340123D2*
X690261Y1344932D1*
X683131Y1352117D1*
X733316D1*
X468509Y1578793D2*
X518749D1*
X468509Y1562046D2*
Y1595540D1*
Y1610979D2*
X518749Y1644472D1*
X468509D2*
X518749Y1610979D1*
X468565Y1674281D2*
X470941Y1667096D1*
X478126Y1662288D1*
X490064Y1659911D1*
X497249D1*
X509188Y1662288D1*
X516373Y1667096D1*
X518749Y1674281D1*
Y1679035D1*
X516373Y1686220D1*
X509188Y1690973D1*
X497249Y1693405D1*
X490064D1*
X478126Y1690973D1*
X470941Y1686220D1*
X468565Y1679035D1*
Y1674281D1*
X478126Y1690973D2*
X509188Y1662288D1*
X518749Y1708844D2*
X468565Y1742337D1*
X468509Y1757776D2*
X518749D1*
Y1774523D1*
X516317Y1781708D1*
X511564Y1786517D1*
X506756Y1788893D1*
X499626Y1791270D1*
X487632D1*
X480447Y1788893D1*
X475694Y1786517D1*
X470886Y1781708D1*
X468509Y1774523D1*
Y1757776D1*
Y1806709D2*
X518749Y1840202D1*
X468509D2*
X518749Y1806709D1*
X468565Y1870012D2*
X470941Y1862827D1*
X478126Y1858018D1*
X490064Y1855642D1*
X497249D1*
X509188Y1858018D1*
X516373Y1862827D1*
X518749Y1870012D1*
Y1874765D1*
X516373Y1881950D1*
X509188Y1886703D1*
X497249Y1889135D1*
X490064D1*
X478126Y1886703D1*
X470941Y1881950D1*
X468565Y1874765D1*
Y1870012D1*
X478126Y1886703D2*
X509188Y1858018D1*
X514178Y4104678D2*
X564419Y4123801D1*
X514179Y4142925D1*
Y4158364D2*
X564419D1*
Y4187049D1*
X514179Y4219235D2*
X564419Y4219234D1*
X514179Y4202488D2*
Y4235981D1*
X538110Y4251420D2*
Y4272920D1*
X535678Y4280105D1*
X533302Y4282537D1*
X528549Y4284914D1*
X523740D1*
X518987Y4282537D1*
X516555Y4280105D1*
X514179Y4272920D1*
Y4251420D1*
X564419D1*
X538110Y4268167D2*
X564419Y4284914D1*
X514179Y4331414D2*
Y4300353D1*
X564419D1*
Y4331414D1*
X538110Y4300353D2*
Y4319476D1*
X526117Y4382724D2*
X521364Y4380347D1*
X516555Y4375539D1*
X514179Y4370785D1*
Y4361224D1*
X516555Y4356415D1*
X521364Y4351662D1*
X526117Y4349230D1*
X533302Y4346854D1*
X545295D1*
X552425Y4349230D1*
X557233Y4351662D1*
X561987Y4356415D1*
X564419Y4361224D1*
Y4370785D1*
X561987Y4375539D1*
X557233Y4380347D1*
X552425Y4382724D1*
X545295D1*
Y4370785D1*
X439841Y4784462D2*
Y4734222D1*
X481589Y4760530D2*
X479212Y4765338D1*
X472027Y4767715D1*
X464842D1*
X457657Y4765338D1*
X455280Y4760530D1*
X457657Y4755777D1*
X462465Y4753345D1*
X474403Y4750968D1*
X479212Y4748592D1*
X481589Y4743783D1*
Y4741407D1*
X479212Y4736654D1*
X472027Y4734222D1*
X464842D1*
X457657Y4736654D1*
X455280Y4741407D1*
X497028Y4784462D2*
Y4734222D1*
X541152Y4767715D2*
Y4734222D1*
Y4760530D2*
X536399Y4765338D1*
X531590Y4767715D1*
X524461D1*
X519652Y4765338D1*
X514899Y4760530D1*
X512467Y4753345D1*
Y4748592D1*
X514899Y4741407D1*
X519652Y4736654D1*
X524461Y4734222D1*
X531590D1*
X536399Y4736654D1*
X541152Y4741407D1*
X556591Y4767715D2*
Y4734222D1*
Y4758153D2*
X563776Y4765338D1*
X568585Y4767715D1*
X575714D1*
X580523Y4765338D1*
X582899Y4758153D1*
Y4734222D1*
X627024Y4784462D2*
Y4734222D1*
Y4760530D2*
X622270Y4765338D1*
X617462Y4767715D1*
X610277D1*
X605524Y4765338D1*
X600715Y4760530D1*
X598339Y4753345D1*
Y4748592D1*
X600715Y4741407D1*
X605524Y4736654D1*
X610277Y4734222D1*
X617462D1*
X622270Y4736654D1*
X627024Y4741407D1*
X693440Y4739030D2*
X691064Y4736598D1*
X693440Y4734222D1*
X695872Y4736598D1*
X693440Y4739030D1*
X725682Y4784406D2*
X718497Y4782030D1*
X713688Y4774845D1*
X711311Y4762907D1*
Y4755722D1*
X713688Y4743783D1*
X718497Y4736598D1*
X725682Y4734222D1*
X730435D1*
X737620Y4736598D1*
X742373Y4743783D1*
X744805Y4755722D1*
Y4762907D1*
X742373Y4774845D1*
X737620Y4782030D1*
X730435Y4784406D1*
X725682D1*
X742373Y4774845D2*
X713688Y4743783D1*
X760244Y4774845D2*
X765053Y4777277D1*
X772238Y4784406D1*
Y4734222D1*
M02*
