G04 DipTrace 3.2.0.1*
G04 TopSilk.gbr*
%MOIN*%
G04 #@! TF.FileFunction,Legend,Top*
G04 #@! TF.Part,Single*
%ADD10C,0.009843*%
%ADD67C,0.00772*%
%FSLAX26Y26*%
G04*
G70*
G90*
G75*
G01*
G04 TopSilk*
%LPD*%
X1386273Y3686845D2*
D10*
X1379186D1*
X1294934D2*
X1287848D1*
X1294934Y3844231D2*
X1287848D1*
X1386273D2*
X1379186D1*
X1287848Y3686845D2*
Y3844231D1*
X1386273Y3686845D2*
Y3844231D1*
X1715754Y3964751D2*
Y3957664D1*
Y3873412D2*
Y3866325D1*
X1558367Y3873412D2*
Y3866325D1*
Y3964751D2*
Y3957664D1*
X1715754Y3866325D2*
X1558367D1*
X1715754Y3964751D2*
X1558367D1*
X1615754Y2766719D2*
Y2759633D1*
Y2675381D2*
Y2668294D1*
X1458367Y2675381D2*
Y2668294D1*
Y2766719D2*
Y2759633D1*
X1615754Y2668294D2*
X1458367D1*
X1615754Y2766719D2*
X1458367D1*
X3115754Y1764751D2*
Y1757664D1*
Y1673412D2*
Y1666325D1*
X2958367Y1673412D2*
Y1666325D1*
Y1764751D2*
Y1757664D1*
X3115754Y1666325D2*
X2958367D1*
X3115754Y1764751D2*
X2958367D1*
X2465754Y3164751D2*
Y3157664D1*
Y3073412D2*
Y3066325D1*
X2308367Y3073412D2*
Y3066325D1*
Y3164751D2*
Y3157664D1*
X2465754Y3066325D2*
X2308367D1*
X2465754Y3164751D2*
X2308367D1*
X2958367Y2916325D2*
Y2923412D1*
Y3007664D2*
Y3014751D1*
X3115754Y3007664D2*
Y3014751D1*
Y2916325D2*
Y2923412D1*
X2958367Y3014751D2*
X3115754D1*
X2958367Y2916325D2*
X3115754D1*
X2310367Y3866325D2*
Y3873412D1*
Y3957664D2*
Y3964751D1*
X2467754Y3957664D2*
Y3964751D1*
Y3866325D2*
Y3873412D1*
X2310367Y3964751D2*
X2467754D1*
X2310367Y3866325D2*
X2467754D1*
X3815754Y2818766D2*
Y2811680D1*
Y2727428D2*
Y2720341D1*
X3658367Y2727428D2*
Y2720341D1*
Y2818766D2*
Y2811680D1*
X3815754Y2720341D2*
X3658367D1*
X3815754Y2818766D2*
X3658367D1*
X4787848Y3194231D2*
X4794934D1*
X4879186D2*
X4886273D1*
X4879186Y3036845D2*
X4886273D1*
X4787848D2*
X4794934D1*
X4886273Y3194231D2*
Y3036845D1*
X4787848Y3194231D2*
Y3036845D1*
X4458367Y2668294D2*
Y2675381D1*
Y2759633D2*
Y2766719D1*
X4615754Y2759633D2*
Y2766719D1*
Y2668294D2*
Y2675381D1*
X4458367Y2766719D2*
X4615754D1*
X4458367Y2668294D2*
X4615754D1*
X3286273Y3686845D2*
X3279186D1*
X3194934D2*
X3187848D1*
X3194934Y3844231D2*
X3187848D1*
X3286273D2*
X3279186D1*
X3187848Y3686845D2*
Y3844231D1*
X3286273Y3686845D2*
Y3844231D1*
X2037060Y3765538D2*
Y3365538D1*
X2737060D1*
Y3765538D1*
X2537070D1*
X2037060D1*
X538058Y2119541D2*
X1048058D1*
X538058Y3347546D2*
Y2119541D1*
X1048058Y3347546D2*
Y2119541D1*
X538058Y3347546D2*
X1048058D1*
X3404777Y4016697D2*
X4869344D1*
Y3512804D2*
Y4016697D1*
X3404777Y3512804D2*
X4869344D1*
X3404777D2*
Y3733257D1*
Y4016697D2*
Y3796244D1*
Y3733257D2*
G03X3404777Y3796244I-5J31493D01*
G01*
X589060Y1224979D2*
G02X590194Y1307210I47136J40474D01*
G01*
X685060Y1224979D2*
G03X683927Y1307210I-47136J40474D01*
G01*
X892178Y1933648D2*
X585092D1*
Y1461207D1*
X892178D1*
Y1933648D1*
X636273Y4503333D2*
X2337848D1*
Y4227743D1*
X636273D1*
Y4503333D1*
X4285104Y2569388D2*
Y561601D1*
X4789017D1*
Y2569388D2*
Y561601D1*
X4285104Y2573412D2*
X4505558D1*
X4789017D2*
X4568563D1*
X4505558D2*
G03X4568563Y2573412I31503J119D01*
G01*
X4695722Y3217902D2*
X3278399D1*
X4695722Y3013174D2*
X3278399D1*
Y3217902D2*
Y3013174D1*
X4695722Y3217902D2*
Y3139169D1*
Y3013174D2*
Y3091907D1*
Y3139169D2*
G03X4695722Y3091907I103J-23631D01*
G01*
X892178Y3833648D2*
X585092D1*
Y3479318D1*
X892178D1*
Y3833648D1*
X1285104Y2569388D2*
Y561601D1*
X1789017D1*
Y2569388D2*
Y561601D1*
X1285104Y2573412D2*
X1505558D1*
X1789017D2*
X1568563D1*
X1505558D2*
G03X1568563Y2573412I31503J119D01*
G01*
X874462Y1360556D2*
X799659D1*
X874462Y1226426D2*
X799659D1*
X874462D2*
Y1360556D1*
X799659Y1226426D2*
Y1360556D1*
X3139427Y1577349D2*
Y553727D1*
X2934694D2*
X3139427D1*
X2934694Y1577349D2*
Y553727D1*
Y1577349D2*
X3013435D1*
X3139427D2*
X3060686D1*
X3013435D2*
G03X3060686Y1577349I23626J83D01*
G01*
X1739427Y3751365D2*
Y2979711D1*
X1534694D2*
X1739427D1*
X1534694Y3751365D2*
Y2979711D1*
Y3751365D2*
X1613435D1*
X1739427D2*
X1660686D1*
X1613435D2*
G03X1660686Y3751365I23626J13D01*
G01*
X3139427Y2801365D2*
Y2029711D1*
X2934694D2*
X3139427D1*
X2934694Y2801365D2*
Y2029711D1*
Y2801365D2*
X3013435D1*
X3139427D2*
X3060686D1*
X3013435D2*
G03X3060686Y2801365I23626J13D01*
G01*
X576037Y667113D2*
X698084D1*
Y1060814D1*
X576037D1*
Y667113D1*
X2135104Y2978136D2*
Y552940D1*
X2639017Y2978136D2*
Y552940D1*
X2135104D2*
X2639017D1*
X2135104Y2978136D2*
X2355558D1*
X2639017D2*
X2418563D1*
X2355558D2*
G03X2418563Y2978136I31503J-25D01*
G01*
X3485102Y2601050D2*
Y538058D1*
X3989084Y2601050D2*
Y538058D1*
X3485102D2*
X3989084D1*
X3485102Y2601050D2*
X3705615D1*
X3768506D2*
X3989084D1*
X3705615D2*
G03X3768506Y2601050I31446J-118D01*
G01*
X1030761Y3518688D2*
X1207927D1*
Y3912388D1*
X1030761D1*
Y3518688D1*
X1066194D2*
Y3912388D1*
X1226563Y3769757D2*
D67*
X1221810Y3767380D1*
X1217001Y3762572D1*
X1214625Y3757819D1*
Y3748257D1*
X1217001Y3743448D1*
X1221810Y3738695D1*
X1226563Y3736263D1*
X1233748Y3733887D1*
X1245741D1*
X1252871Y3736263D1*
X1257680Y3738695D1*
X1262433Y3743448D1*
X1264865Y3748257D1*
Y3757818D1*
X1262433Y3762572D1*
X1257680Y3767380D1*
X1252871Y3769757D1*
X1224242Y3785196D2*
X1221810Y3790004D1*
X1214680Y3797189D1*
X1264865D1*
X1630529Y4026036D2*
X1628152Y4030789D1*
X1623344Y4035597D1*
X1618591Y4037974D1*
X1609029D1*
X1604221Y4035597D1*
X1599468Y4030789D1*
X1597036Y4026036D1*
X1594659Y4018850D1*
Y4006857D1*
X1597036Y3999727D1*
X1599468Y3994919D1*
X1604221Y3990166D1*
X1609029Y3987734D1*
X1618591D1*
X1623344Y3990166D1*
X1628152Y3994919D1*
X1630529Y3999727D1*
X1648400Y4025980D2*
Y4028357D1*
X1650777Y4033165D1*
X1653153Y4035542D1*
X1657962Y4037918D1*
X1667523D1*
X1672277Y4035542D1*
X1674653Y4033165D1*
X1677085Y4028357D1*
Y4023604D1*
X1674653Y4018795D1*
X1669900Y4011665D1*
X1645968Y3987734D1*
X1679462D1*
X1530529Y2828004D2*
X1528152Y2832757D1*
X1523344Y2837566D1*
X1518591Y2839942D1*
X1509029D1*
X1504221Y2837566D1*
X1499468Y2832757D1*
X1497036Y2828004D1*
X1494659Y2820819D1*
Y2808825D1*
X1497036Y2801696D1*
X1499468Y2796887D1*
X1504221Y2792134D1*
X1509029Y2789702D1*
X1518591D1*
X1523344Y2792134D1*
X1528152Y2796887D1*
X1530529Y2801696D1*
X1550777Y2839887D2*
X1577030D1*
X1562715Y2820764D1*
X1569900D1*
X1574653Y2818387D1*
X1577030Y2816011D1*
X1579462Y2808825D1*
Y2804072D1*
X1577030Y2796887D1*
X1572277Y2792079D1*
X1565092Y2789702D1*
X1557907D1*
X1550777Y2792079D1*
X1548400Y2794511D1*
X1545968Y2799264D1*
X3029341Y1826036D2*
X3026964Y1830789D1*
X3022156Y1835597D1*
X3017403Y1837974D1*
X3007841D1*
X3003032Y1835597D1*
X2998279Y1830789D1*
X2995847Y1826036D1*
X2993471Y1818850D1*
Y1806857D1*
X2995847Y1799727D1*
X2998279Y1794919D1*
X3003032Y1790166D1*
X3007841Y1787734D1*
X3017403D1*
X3022156Y1790166D1*
X3026964Y1794919D1*
X3029341Y1799727D1*
X3068712Y1787734D2*
Y1837918D1*
X3044780Y1804480D1*
X3080650D1*
X2380529Y3226036D2*
X2378152Y3230789D1*
X2373344Y3235597D1*
X2368591Y3237974D1*
X2359029D1*
X2354221Y3235597D1*
X2349468Y3230789D1*
X2347036Y3226036D1*
X2344659Y3218850D1*
Y3206857D1*
X2347036Y3199727D1*
X2349468Y3194919D1*
X2354221Y3190166D1*
X2359029Y3187734D1*
X2368591D1*
X2373344Y3190166D1*
X2378152Y3194919D1*
X2380529Y3199727D1*
X2424653Y3237918D2*
X2400777D1*
X2398400Y3216419D1*
X2400777Y3218795D1*
X2407962Y3221227D1*
X2415092D1*
X2422277Y3218795D1*
X2427085Y3214042D1*
X2429462Y3206857D1*
Y3202104D1*
X2427085Y3194919D1*
X2422277Y3190110D1*
X2415092Y3187734D1*
X2407962D1*
X2400777Y3190110D1*
X2398400Y3192542D1*
X2395968Y3197295D1*
X3031745Y3076036D2*
X3029368Y3080789D1*
X3024560Y3085597D1*
X3019807Y3087974D1*
X3010245D1*
X3005437Y3085597D1*
X3000683Y3080789D1*
X2998252Y3076036D1*
X2995875Y3068850D1*
Y3056857D1*
X2998252Y3049727D1*
X3000683Y3044919D1*
X3005437Y3040166D1*
X3010245Y3037734D1*
X3019807D1*
X3024560Y3040166D1*
X3029368Y3044919D1*
X3031745Y3049727D1*
X3075869Y3080789D2*
X3073493Y3085542D1*
X3066307Y3087918D1*
X3061554D1*
X3054369Y3085542D1*
X3049561Y3078357D1*
X3047184Y3066419D1*
Y3054480D1*
X3049561Y3044919D1*
X3054369Y3040110D1*
X3061554Y3037734D1*
X3063931D1*
X3071061Y3040110D1*
X3075869Y3044919D1*
X3078246Y3052104D1*
Y3054480D1*
X3075869Y3061665D1*
X3071061Y3066419D1*
X3063931Y3068795D1*
X3061554D1*
X3054369Y3066419D1*
X3049561Y3061665D1*
X3047184Y3054480D1*
X2382529Y4026036D2*
X2380152Y4030789D1*
X2375344Y4035597D1*
X2370591Y4037974D1*
X2361029D1*
X2356221Y4035597D1*
X2351468Y4030789D1*
X2349036Y4026036D1*
X2346659Y4018850D1*
Y4006857D1*
X2349036Y3999727D1*
X2351468Y3994919D1*
X2356221Y3990166D1*
X2361029Y3987734D1*
X2370591D1*
X2375344Y3990166D1*
X2380152Y3994919D1*
X2382529Y3999727D1*
X2407530Y3987734D2*
X2431462Y4037918D1*
X2397968D1*
X3730557Y2880051D2*
X3728180Y2884804D1*
X3723372Y2889613D1*
X3718618Y2891989D1*
X3709057D1*
X3704248Y2889613D1*
X3699495Y2884804D1*
X3697063Y2880051D1*
X3694687Y2872866D1*
Y2860873D1*
X3697063Y2853743D1*
X3699495Y2848935D1*
X3704248Y2844181D1*
X3709057Y2841749D1*
X3718618D1*
X3723372Y2844181D1*
X3728180Y2848935D1*
X3730557Y2853743D1*
X3757934Y2891934D2*
X3750804Y2889558D1*
X3748373Y2884804D1*
Y2879996D1*
X3750804Y2875243D1*
X3755558Y2872811D1*
X3765119Y2870434D1*
X3772304Y2868058D1*
X3777057Y2863249D1*
X3779434Y2858496D1*
Y2851311D1*
X3777057Y2846558D1*
X3774681Y2844126D1*
X3767496Y2841749D1*
X3757934D1*
X3750804Y2844126D1*
X3748373Y2846558D1*
X3745996Y2851311D1*
Y2858496D1*
X3748373Y2863249D1*
X3753181Y2868058D1*
X3760311Y2870434D1*
X3769872Y2872811D1*
X3774681Y2875243D1*
X3777057Y2879996D1*
Y2884804D1*
X3774681Y2889558D1*
X3767496Y2891934D1*
X3757934D1*
X4726563Y3110195D2*
X4721810Y3107819D1*
X4717001Y3103010D1*
X4714625Y3098257D1*
Y3088695D1*
X4717001Y3083887D1*
X4721810Y3079134D1*
X4726563Y3076702D1*
X4733748Y3074325D1*
X4745741D1*
X4752871Y3076702D1*
X4757680Y3079134D1*
X4762433Y3083887D1*
X4764865Y3088695D1*
Y3098257D1*
X4762433Y3103010D1*
X4757680Y3107818D1*
X4752871Y3110195D1*
X4731371Y3156751D2*
X4738556Y3154319D1*
X4743365Y3149566D1*
X4745741Y3142381D1*
Y3140004D1*
X4743365Y3132819D1*
X4738556Y3128066D1*
X4731371Y3125634D1*
X4728995D1*
X4721810Y3128066D1*
X4717057Y3132819D1*
X4714680Y3140004D1*
Y3142381D1*
X4717057Y3149566D1*
X4721810Y3154319D1*
X4731371Y3156751D1*
X4743365D1*
X4755303Y3154319D1*
X4762488Y3149566D1*
X4764865Y3142381D1*
Y3137628D1*
X4762488Y3130443D1*
X4757680Y3128066D1*
X4516813Y2828004D2*
X4514436Y2832757D1*
X4509628Y2837566D1*
X4504874Y2839942D1*
X4495313D1*
X4490504Y2837566D1*
X4485751Y2832757D1*
X4483319Y2828004D1*
X4480943Y2820819D1*
Y2808825D1*
X4483319Y2801696D1*
X4485751Y2796887D1*
X4490504Y2792134D1*
X4495313Y2789702D1*
X4504874D1*
X4509628Y2792134D1*
X4514436Y2796887D1*
X4516813Y2801696D1*
X4532252Y2830325D2*
X4537060Y2832757D1*
X4544245Y2839887D1*
Y2789702D1*
X4574055Y2839887D2*
X4566870Y2837510D1*
X4562061Y2830325D1*
X4559685Y2818387D1*
Y2811202D1*
X4562061Y2799264D1*
X4566870Y2792079D1*
X4574055Y2789702D1*
X4578808D1*
X4585993Y2792079D1*
X4590746Y2799264D1*
X4593178Y2811202D1*
Y2818387D1*
X4590746Y2830325D1*
X4585993Y2837510D1*
X4578808Y2839887D1*
X4574055D1*
X4590746Y2830325D2*
X4562061Y2799264D1*
X3126563Y3756040D2*
X3121810Y3753664D1*
X3117001Y3748855D1*
X3114625Y3744102D1*
Y3734541D1*
X3117001Y3729732D1*
X3121810Y3724979D1*
X3126563Y3722547D1*
X3133748Y3720170D1*
X3145741D1*
X3152871Y3722547D1*
X3157680Y3724979D1*
X3162433Y3729732D1*
X3164865Y3734541D1*
Y3744102D1*
X3162433Y3748855D1*
X3157680Y3753664D1*
X3152871Y3756040D1*
X3124242Y3771480D2*
X3121810Y3776288D1*
X3114680Y3783473D1*
X3164865D1*
X3124242Y3798912D2*
X3121810Y3803721D1*
X3114680Y3810906D1*
X3164865D1*
X2305970Y3826823D2*
X2303593Y3831576D1*
X2298784Y3836385D1*
X2294031Y3838761D1*
X2284470D1*
X2279661Y3836385D1*
X2274908Y3831576D1*
X2272476Y3826823D1*
X2270100Y3819638D1*
Y3807644D1*
X2272476Y3800515D1*
X2274908Y3795706D1*
X2279661Y3790953D1*
X2284470Y3788521D1*
X2294031D1*
X2298784Y3790953D1*
X2303593Y3795706D1*
X2305970Y3800515D1*
X2321409Y3838761D2*
Y3788521D1*
X2350094D1*
X2379903Y3838761D2*
X2375095Y3836385D1*
X2370341Y3831576D1*
X2367909Y3826823D1*
X2365533Y3819638D1*
Y3807644D1*
X2367909Y3800515D1*
X2370341Y3795706D1*
X2375095Y3790953D1*
X2379903Y3788521D1*
X2389465D1*
X2394218Y3790953D1*
X2399026Y3795706D1*
X2401403Y3800515D1*
X2403779Y3807644D1*
Y3819638D1*
X2401403Y3826823D1*
X2399026Y3831576D1*
X2394218Y3836385D1*
X2389465Y3838761D1*
X2379903D1*
X2455089Y3826823D2*
X2452712Y3831576D1*
X2447904Y3836385D1*
X2443150Y3838761D1*
X2433589D1*
X2428780Y3836385D1*
X2424027Y3831576D1*
X2421595Y3826823D1*
X2419219Y3819638D1*
Y3807644D1*
X2421595Y3800515D1*
X2424027Y3795706D1*
X2428780Y3790953D1*
X2433589Y3788521D1*
X2443150D1*
X2447904Y3790953D1*
X2452712Y3795706D1*
X2455089Y3800515D1*
X2470528Y3838761D2*
Y3788521D1*
X2504021Y3838761D2*
X2470528Y3805268D1*
X2482466Y3817261D2*
X2504021Y3788521D1*
X715532Y3408831D2*
X713155Y3413584D1*
X708347Y3418392D1*
X703594Y3420769D1*
X694032D1*
X689223Y3418392D1*
X684470Y3413584D1*
X682038Y3408831D1*
X679662Y3401646D1*
Y3389652D1*
X682038Y3382522D1*
X684470Y3377714D1*
X689223Y3372961D1*
X694032Y3370529D1*
X703594D1*
X708347Y3372961D1*
X713155Y3377714D1*
X715532Y3382522D1*
X764464Y3420769D2*
Y3370529D1*
X730971Y3420769D1*
Y3370529D1*
X796650Y3420769D2*
Y3370529D1*
X779904Y3420769D2*
X813397D1*
X828836D2*
Y3370529D1*
X857521D1*
X872960Y3396837D2*
X894460D1*
X901645Y3399269D1*
X904077Y3401646D1*
X906454Y3406399D1*
Y3411207D1*
X904077Y3415961D1*
X901645Y3418392D1*
X894460Y3420769D1*
X872960D1*
Y3370529D1*
X889707Y3396837D2*
X906454Y3370529D1*
X4046408Y4154776D2*
X4044031Y4159529D1*
X4039223Y4164337D1*
X4034470Y4166714D1*
X4024908D1*
X4020100Y4164337D1*
X4015346Y4159529D1*
X4012915Y4154776D1*
X4010538Y4147591D1*
Y4135597D1*
X4012915Y4128467D1*
X4015346Y4123659D1*
X4020100Y4118906D1*
X4024908Y4116474D1*
X4034470D1*
X4039223Y4118906D1*
X4044031Y4123659D1*
X4046408Y4128467D1*
X4061847Y4108183D2*
X4107279D1*
X4122718Y4142782D2*
X4144218D1*
X4151403Y4145214D1*
X4153835Y4147591D1*
X4156211Y4152344D1*
Y4157152D1*
X4153835Y4161905D1*
X4151403Y4164337D1*
X4144218Y4166714D1*
X4122718D1*
Y4116474D1*
X4139465Y4142782D2*
X4156211Y4116474D1*
X4186021Y4166714D2*
X4181212Y4164337D1*
X4176459Y4159529D1*
X4174027Y4154776D1*
X4171651Y4147591D1*
Y4135597D1*
X4174027Y4128467D1*
X4176459Y4123659D1*
X4181212Y4118906D1*
X4186021Y4116474D1*
X4195582D1*
X4200335Y4118906D1*
X4205144Y4123659D1*
X4207520Y4128467D1*
X4209897Y4135597D1*
Y4147591D1*
X4207520Y4154776D1*
X4205144Y4159529D1*
X4200335Y4164337D1*
X4195582Y4166714D1*
X4186021D1*
X4263583Y4116474D2*
Y4166714D1*
X4244460Y4116474D1*
X4225336Y4166714D1*
Y4116474D1*
X606597Y1418289D2*
Y1368049D1*
X623344D1*
X630529Y1370481D1*
X635337Y1375234D1*
X637714Y1380042D1*
X640091Y1387172D1*
Y1399165D1*
X637714Y1406350D1*
X635337Y1411104D1*
X630529Y1415912D1*
X623344Y1418289D1*
X606597D1*
X655530Y1408672D2*
X660338Y1411104D1*
X667523Y1418233D1*
Y1368049D1*
X624051Y2006871D2*
Y1956631D1*
X640798D1*
X647983Y1959063D1*
X652791Y1963816D1*
X655168Y1968625D1*
X657544Y1975755D1*
Y1987748D1*
X655168Y1994933D1*
X652791Y1999686D1*
X647983Y2004495D1*
X640798Y2006871D1*
X624051D1*
X704045D2*
X672984D1*
Y1956631D1*
X704045D1*
X672984Y1982940D2*
X692107D1*
X719484Y2006871D2*
Y1956631D1*
X741039D1*
X748224Y1959063D1*
X750601Y1961440D1*
X752978Y1966193D1*
Y1973378D1*
X750601Y1978186D1*
X748224Y1980563D1*
X741039Y1982940D1*
X748224Y1985372D1*
X750601Y1987748D1*
X752978Y1992501D1*
Y1997310D1*
X750601Y2002063D1*
X748224Y2004495D1*
X741039Y2006871D1*
X719484D1*
Y1982940D2*
X741039D1*
X768417Y2006871D2*
Y1971001D1*
X770793Y1963816D1*
X775602Y1959063D1*
X782787Y1956631D1*
X787540D1*
X794725Y1959063D1*
X799534Y1963816D1*
X801910Y1971001D1*
Y2006871D1*
X853219Y1994933D2*
X850843Y1999686D1*
X846034Y2004495D1*
X841281Y2006871D1*
X831720D1*
X826911Y2004495D1*
X822158Y1999686D1*
X819726Y1994933D1*
X817349Y1987748D1*
Y1975755D1*
X819726Y1968625D1*
X822158Y1963816D1*
X826911Y1959063D1*
X831720Y1956631D1*
X841281D1*
X846034Y1959063D1*
X850843Y1963816D1*
X853219Y1968625D1*
Y1975755D1*
X841281D1*
X1457251Y4564618D2*
X1454874Y4569371D1*
X1450066Y4574180D1*
X1445313Y4576556D1*
X1435751D1*
X1430943Y4574180D1*
X1426190Y4569371D1*
X1423758Y4564618D1*
X1421381Y4557433D1*
Y4545440D1*
X1423758Y4538310D1*
X1426190Y4533501D1*
X1430943Y4528748D1*
X1435751Y4526316D1*
X1445313D1*
X1450066Y4528748D1*
X1454874Y4533501D1*
X1457251Y4538310D1*
Y4545440D1*
X1445313D1*
X1503807Y4576556D2*
X1472690D1*
Y4526316D1*
Y4552625D2*
X1491814D1*
X1519246Y4576556D2*
X1552740Y4526316D1*
Y4576556D2*
X1519246Y4526316D1*
X4418441Y2634697D2*
X4416064Y2639450D1*
X4411256Y2644259D1*
X4406502Y2646635D1*
X4396941D1*
X4392132Y2644259D1*
X4387379Y2639450D1*
X4384947Y2634697D1*
X4382571Y2627512D1*
Y2615518D1*
X4384947Y2608389D1*
X4387379Y2603580D1*
X4392132Y2598827D1*
X4396941Y2596395D1*
X4406502D1*
X4411256Y2598827D1*
X4416064Y2603580D1*
X4418441Y2608389D1*
Y2615518D1*
X4406502D1*
X4433880Y2646635D2*
Y2596395D1*
X4449319Y2646635D2*
Y2596395D1*
X4478004D1*
X4493443Y2646635D2*
Y2596395D1*
X4522128D1*
X4537567Y2646635D2*
Y2596395D1*
X4588876Y2634697D2*
X4586500Y2639450D1*
X4581691Y2644259D1*
X4576938Y2646635D1*
X4567377D1*
X4562568Y2644259D1*
X4557815Y2639450D1*
X4555383Y2634697D1*
X4553007Y2627512D1*
Y2615518D1*
X4555383Y2608389D1*
X4557815Y2603580D1*
X4562568Y2598827D1*
X4567377Y2596395D1*
X4576938D1*
X4581691Y2598827D1*
X4586500Y2603580D1*
X4588876Y2608389D1*
Y2615518D1*
X4576938D1*
X4642618Y2596395D2*
X4623439Y2646635D1*
X4604316Y2596395D1*
X4611501Y2613142D2*
X4635432D1*
X4691550Y2646635D2*
Y2596395D1*
X4658057Y2646635D1*
Y2596395D1*
X3896380Y3358319D2*
X3894004Y3363072D1*
X3889195Y3367881D1*
X3884442Y3370257D1*
X3874880D1*
X3870072Y3367881D1*
X3865319Y3363072D1*
X3862887Y3358319D1*
X3860510Y3351134D1*
Y3339140D1*
X3862887Y3332011D1*
X3865319Y3327202D1*
X3870072Y3322449D1*
X3874880Y3320017D1*
X3884442D1*
X3889195Y3322449D1*
X3894004Y3327202D1*
X3896380Y3332011D1*
Y3339140D1*
X3884442D1*
X3911819Y3311727D2*
X3957251D1*
X3972690Y3346325D2*
X3994190D1*
X4001375Y3348757D1*
X4003807Y3351134D1*
X4006184Y3355887D1*
Y3360696D1*
X4003807Y3365449D1*
X4001375Y3367881D1*
X3994190Y3370257D1*
X3972690D1*
Y3320017D1*
X3989437Y3346325D2*
X4006184Y3320017D1*
X4059925D2*
X4040746Y3370257D1*
X4021623Y3320017D1*
X4028808Y3336764D2*
X4052740D1*
X4113610Y3320017D2*
Y3370257D1*
X4094487Y3320017D1*
X4075364Y3370257D1*
Y3320017D1*
X665771Y3880563D2*
X687326D1*
X694456Y3882940D1*
X696888Y3885372D1*
X699264Y3890125D1*
Y3897310D1*
X696888Y3902063D1*
X694456Y3904495D1*
X687326Y3906871D1*
X665771D1*
Y3856631D1*
X714703Y3906871D2*
X726697Y3856631D1*
X738635Y3906871D1*
X750573Y3856631D1*
X762567Y3906871D1*
X778006Y3882940D2*
X799506D1*
X806691Y3885372D1*
X809123Y3887748D1*
X811499Y3892501D1*
Y3897310D1*
X809123Y3902063D1*
X806691Y3904495D1*
X799506Y3906871D1*
X778006D1*
Y3856631D1*
X794753Y3882940D2*
X811499Y3856631D1*
X1322234Y2620327D2*
X1343790D1*
X1350919Y2622703D1*
X1353351Y2625135D1*
X1355728Y2629888D1*
Y2637074D1*
X1353351Y2641827D1*
X1350919Y2644259D1*
X1343790Y2646635D1*
X1322234D1*
Y2596395D1*
X1371167Y2622703D2*
X1392667D1*
X1399852Y2625135D1*
X1402284Y2627512D1*
X1404660Y2632265D1*
Y2637074D1*
X1402284Y2641827D1*
X1399852Y2644259D1*
X1392667Y2646635D1*
X1371167D1*
Y2596395D1*
X1387914Y2622703D2*
X1404660Y2596395D1*
X1434470Y2646635D2*
X1429661Y2644259D1*
X1424908Y2639450D1*
X1422476Y2634697D1*
X1420100Y2627512D1*
Y2615518D1*
X1422476Y2608389D1*
X1424908Y2603580D1*
X1429661Y2598827D1*
X1434470Y2596395D1*
X1444031D1*
X1448784Y2598827D1*
X1453593Y2603580D1*
X1455970Y2608389D1*
X1458346Y2615518D1*
Y2627512D1*
X1455970Y2634697D1*
X1453593Y2639450D1*
X1448784Y2644259D1*
X1444031Y2646635D1*
X1434470D1*
X1504902D2*
X1473785D1*
Y2596395D1*
Y2622703D2*
X1492909D1*
X1551403Y2646635D2*
X1520341D1*
Y2596395D1*
X1551403D1*
X1520341Y2622703D2*
X1539465D1*
X1600335Y2639450D2*
X1595582Y2644259D1*
X1588397Y2646635D1*
X1578836D1*
X1571651Y2644259D1*
X1566842Y2639450D1*
Y2634697D1*
X1569274Y2629888D1*
X1571651Y2627512D1*
X1576404Y2625135D1*
X1590774Y2620327D1*
X1595582Y2617950D1*
X1597959Y2615518D1*
X1600335Y2610765D1*
Y2603580D1*
X1595582Y2598827D1*
X1588397Y2596395D1*
X1578836D1*
X1571651Y2598827D1*
X1566842Y2603580D1*
X1649268Y2639450D2*
X1644515Y2644259D1*
X1637330Y2646635D1*
X1627768D1*
X1620583Y2644259D1*
X1615775Y2639450D1*
Y2634697D1*
X1618207Y2629888D1*
X1620583Y2627512D1*
X1625336Y2625135D1*
X1639706Y2620327D1*
X1644515Y2617950D1*
X1646891Y2615518D1*
X1649268Y2610765D1*
Y2603580D1*
X1644515Y2598827D1*
X1637330Y2596395D1*
X1627768D1*
X1620583Y2598827D1*
X1615775Y2603580D1*
X1679077Y2646635D2*
X1674269Y2644259D1*
X1669516Y2639450D1*
X1667084Y2634697D1*
X1664707Y2627512D1*
Y2615518D1*
X1667084Y2608389D1*
X1669516Y2603580D1*
X1674269Y2598827D1*
X1679077Y2596395D1*
X1688639D1*
X1693392Y2598827D1*
X1698201Y2603580D1*
X1700577Y2608389D1*
X1702954Y2615518D1*
Y2627512D1*
X1700577Y2634697D1*
X1698201Y2639450D1*
X1693392Y2644259D1*
X1688639Y2646635D1*
X1679077D1*
X1718393Y2622703D2*
X1739893D1*
X1747078Y2625135D1*
X1749510Y2627512D1*
X1751886Y2632265D1*
Y2637074D1*
X1749510Y2641827D1*
X1747078Y2644259D1*
X1739893Y2646635D1*
X1718393D1*
Y2596395D1*
X1735140Y2622703D2*
X1751886Y2596395D1*
X750367Y1263028D2*
Y1284528D1*
X747936Y1291713D1*
X745559Y1294145D1*
X740806Y1296521D1*
X735997D1*
X731244Y1294145D1*
X728812Y1291713D1*
X726436Y1284528D1*
Y1263028D1*
X776676D1*
X750367Y1279775D2*
X776676Y1296521D1*
X736053Y1311960D2*
X733621Y1316769D1*
X726491Y1323954D1*
X776676D1*
X2810618Y873963D2*
Y895518D1*
X2808241Y902647D1*
X2805810Y905079D1*
X2801056Y907456D1*
X2793871D1*
X2789118Y905079D1*
X2786686Y902647D1*
X2784310Y895518D1*
Y873963D1*
X2834550D1*
X2808242Y922895D2*
X2808241Y944395D1*
X2805810Y951580D1*
X2803433Y954012D1*
X2798680Y956388D1*
X2793871D1*
X2789118Y954012D1*
X2786686Y951580D1*
X2784310Y944395D1*
Y922895D1*
X2834550D1*
X2808242Y939642D2*
X2834550Y956388D1*
X2784310Y1002944D2*
Y971828D1*
X2834550D1*
X2808241D2*
Y990951D1*
X2842840Y1018384D2*
Y1063815D1*
X2784310Y1079254D2*
X2834550D1*
Y1107939D1*
X2784310Y1140125D2*
X2834550D1*
X2784310Y1123379D2*
Y1156872D1*
X2796248Y1208181D2*
X2791495Y1205804D1*
X2786686Y1200996D1*
X2784310Y1196243D1*
Y1186681D1*
X2786686Y1181873D1*
X2791495Y1177120D1*
X2796248Y1174688D1*
X2803433Y1172311D1*
X2815426D1*
X2822556Y1174688D1*
X2827365Y1177120D1*
X2832118Y1181873D1*
X2834550Y1186681D1*
Y1196243D1*
X2832118Y1200996D1*
X2827365Y1205804D1*
X2822556Y1208181D1*
X2784310Y1223620D2*
X2834550D1*
X2784310Y1257114D2*
X2834550D1*
X2808241Y1223620D2*
Y1257114D1*
X1553538Y3824588D2*
Y3774348D1*
X1520044Y3824588D1*
Y3774348D1*
X1607279D2*
X1588100Y3824588D1*
X1568977Y3774348D1*
X1576162Y3791095D2*
X1600094D1*
X1656211Y3824588D2*
Y3774348D1*
X1622718Y3824588D1*
Y3774348D1*
X1671651Y3824588D2*
Y3774348D1*
X1688397D1*
X1695582Y3776780D1*
X1700391Y3781533D1*
X1702767Y3786341D1*
X1705144Y3793471D1*
Y3805465D1*
X1702767Y3812650D1*
X1700391Y3817403D1*
X1695582Y3822211D1*
X1688397Y3824588D1*
X1671651D1*
X1723015Y3812594D2*
Y3814971D1*
X1725392Y3819779D1*
X1727768Y3822156D1*
X1732577Y3824533D1*
X1742138D1*
X1746891Y3822156D1*
X1749268Y3819779D1*
X1751700Y3814971D1*
Y3810218D1*
X1749268Y3805409D1*
X1744515Y3798280D1*
X1720583Y3774348D1*
X1754076D1*
X2953538Y2874588D2*
Y2824348D1*
X2920044Y2874588D1*
Y2824348D1*
X3007279D2*
X2988100Y2874588D1*
X2968977Y2824348D1*
X2976162Y2841095D2*
X3000094D1*
X3056211Y2874588D2*
Y2824348D1*
X3022718Y2874588D1*
Y2824348D1*
X3071651Y2874588D2*
Y2824348D1*
X3088397D1*
X3095582Y2826780D1*
X3100391Y2831533D1*
X3102767Y2836341D1*
X3105144Y2843471D1*
Y2855465D1*
X3102767Y2862650D1*
X3100391Y2867403D1*
X3095582Y2872211D1*
X3088397Y2874588D1*
X3071651D1*
X3125392Y2874533D2*
X3151645D1*
X3137330Y2855409D1*
X3144515D1*
X3149268Y2853033D1*
X3151645Y2850656D1*
X3154076Y2843471D1*
Y2838718D1*
X3151645Y2831533D1*
X3146891Y2826724D1*
X3139706Y2824348D1*
X3132521D1*
X3125392Y2826724D1*
X3123015Y2829156D1*
X3120583Y2833910D1*
X502814Y635956D2*
X553054D1*
Y652702D1*
X550622Y659887D1*
X545869Y664696D1*
X541060Y667072D1*
X533930Y669449D1*
X521937D1*
X514752Y667072D1*
X509999Y664696D1*
X505190Y659887D1*
X502814Y652702D1*
Y635956D1*
Y684888D2*
X553054D1*
Y706443D1*
X550622Y713628D1*
X548245Y716005D1*
X543492Y718381D1*
X536307D1*
X531499Y716005D1*
X529122Y713628D1*
X526745Y706443D1*
X524314Y713628D1*
X521937Y716005D1*
X517184Y718381D1*
X512375D1*
X507622Y716005D1*
X505190Y713628D1*
X502814Y706443D1*
Y684888D1*
X526745D2*
Y706443D1*
X514752Y769691D2*
X509999Y767314D1*
X505190Y762506D1*
X502814Y757752D1*
Y748191D1*
X505190Y743382D1*
X509999Y738629D1*
X514752Y736197D1*
X521937Y733821D1*
X533930D1*
X541060Y736197D1*
X545869Y738629D1*
X550622Y743382D1*
X553054Y748191D1*
Y757752D1*
X550622Y762506D1*
X545869Y767314D1*
X541060Y769691D1*
X533930D1*
Y757752D1*
X561344Y785130D2*
Y830561D1*
X509999Y879494D2*
X505190Y874741D1*
X502814Y867556D1*
Y857994D1*
X505190Y850809D1*
X509999Y846001D1*
X514752D1*
X519560Y848433D1*
X521937Y850809D1*
X524314Y855562D1*
X529122Y869932D1*
X531499Y874741D1*
X533930Y877117D1*
X538684Y879494D1*
X545869D1*
X550622Y874741D1*
X553054Y867556D1*
Y857994D1*
X550622Y850809D1*
X545869Y846001D1*
X502814Y894933D2*
X553054Y906927D1*
X502814Y918865D1*
X553054Y930803D1*
X502814Y942797D1*
Y974983D2*
X553054D1*
X502814Y958236D2*
Y991729D1*
X514752Y1043038D2*
X509999Y1040662D1*
X505190Y1035853D1*
X502814Y1031100D1*
Y1021539D1*
X505190Y1016730D1*
X509999Y1011977D1*
X514752Y1009545D1*
X521937Y1007168D1*
X533930D1*
X541060Y1009545D1*
X545869Y1011977D1*
X550622Y1016730D1*
X553054Y1021539D1*
Y1031100D1*
X550622Y1035853D1*
X545869Y1040662D1*
X541060Y1043038D1*
X502814Y1058478D2*
X553054D1*
X502814Y1091971D2*
X553054D1*
X526745Y1058478D2*
Y1091971D1*
X2146525Y3051360D2*
Y3001120D1*
X2168080D1*
X2175265Y3003551D1*
X2177641Y3005928D1*
X2180018Y3010681D1*
Y3017866D1*
X2177641Y3022675D1*
X2175265Y3025051D1*
X2168080Y3027428D1*
X2175265Y3029860D1*
X2177641Y3032236D1*
X2180018Y3036989D1*
Y3041798D1*
X2177641Y3046551D1*
X2175265Y3048983D1*
X2168080Y3051360D1*
X2146525D1*
Y3027428D2*
X2168080D1*
X2195457Y3051360D2*
Y3015490D1*
X2197834Y3008305D1*
X2202642Y3003551D1*
X2209827Y3001120D1*
X2214580D1*
X2221765Y3003551D1*
X2226574Y3008305D1*
X2228950Y3015490D1*
Y3051360D1*
X2277883Y3044175D2*
X2273130Y3048983D1*
X2265945Y3051360D1*
X2256383D1*
X2249198Y3048983D1*
X2244390Y3044175D1*
Y3039421D1*
X2246822Y3034613D1*
X2249198Y3032236D1*
X2253951Y3029860D1*
X2268321Y3025051D1*
X2273130Y3022675D1*
X2275506Y3020243D1*
X2277883Y3015490D1*
Y3008305D1*
X2273130Y3003551D1*
X2265945Y3001120D1*
X2256383D1*
X2249198Y3003551D1*
X2244390Y3008305D1*
X2293322Y2992829D2*
X2338754D1*
X2387686Y3044175D2*
X2382933Y3048983D1*
X2375748Y3051360D1*
X2366187D1*
X2359002Y3048983D1*
X2354193Y3044175D1*
Y3039421D1*
X2356625Y3034613D1*
X2359002Y3032236D1*
X2363755Y3029860D1*
X2378125Y3025051D1*
X2382933Y3022675D1*
X2385310Y3020243D1*
X2387686Y3015490D1*
Y3008305D1*
X2382933Y3003551D1*
X2375748Y3001120D1*
X2366187D1*
X2359002Y3003551D1*
X2354193Y3008305D1*
X2403126Y3051360D2*
X2415119Y3001120D1*
X2427057Y3051360D1*
X2438996Y3001120D1*
X2450989Y3051360D1*
X2483175D2*
Y3001120D1*
X2466428Y3051360D2*
X2499922D1*
X2551231Y3039421D2*
X2548854Y3044175D1*
X2544046Y3048983D1*
X2539293Y3051360D1*
X2529731D1*
X2524923Y3048983D1*
X2520169Y3044175D1*
X2517738Y3039421D1*
X2515361Y3032236D1*
Y3020243D1*
X2517738Y3013113D1*
X2520169Y3008305D1*
X2524923Y3003551D1*
X2529731Y3001120D1*
X2539293D1*
X2544046Y3003551D1*
X2548854Y3008305D1*
X2551231Y3013113D1*
X2566670Y3051360D2*
Y3001120D1*
X2600163Y3051360D2*
Y3001120D1*
X2566670Y3027428D2*
X2600163D1*
X2615603Y3041743D2*
X2620411Y3044175D1*
X2627596Y3051304D1*
Y3001120D1*
X3485775Y2674273D2*
Y2624033D1*
X3507330D1*
X3514515Y2626465D1*
X3516891Y2628841D1*
X3519268Y2633595D1*
Y2640780D1*
X3516891Y2645588D1*
X3514515Y2647965D1*
X3507330Y2650341D1*
X3514515Y2652773D1*
X3516891Y2655150D1*
X3519268Y2659903D1*
Y2664711D1*
X3516891Y2669464D1*
X3514515Y2671896D1*
X3507330Y2674273D1*
X3485775D1*
Y2650341D2*
X3507330D1*
X3534707Y2674273D2*
Y2638403D1*
X3537084Y2631218D1*
X3541892Y2626465D1*
X3549077Y2624033D1*
X3553830D1*
X3561016Y2626465D1*
X3565824Y2631218D1*
X3568201Y2638403D1*
Y2674273D1*
X3617133Y2667088D2*
X3612380Y2671896D1*
X3605195Y2674273D1*
X3595633D1*
X3588448Y2671896D1*
X3583640Y2667088D1*
Y2662335D1*
X3586072Y2657526D1*
X3588448Y2655150D1*
X3593201Y2652773D1*
X3607572Y2647965D1*
X3612380Y2645588D1*
X3614757Y2643156D1*
X3617133Y2638403D1*
Y2631218D1*
X3612380Y2626465D1*
X3605195Y2624033D1*
X3595633D1*
X3588448Y2626465D1*
X3583640Y2631218D1*
X3632572Y2615743D2*
X3678004D1*
X3726937Y2667088D2*
X3722183Y2671896D1*
X3714998Y2674273D1*
X3705437D1*
X3698252Y2671896D1*
X3693443Y2667088D1*
Y2662335D1*
X3695875Y2657526D1*
X3698252Y2655150D1*
X3703005Y2652773D1*
X3717375Y2647965D1*
X3722183Y2645588D1*
X3724560Y2643156D1*
X3726937Y2638403D1*
Y2631218D1*
X3722183Y2626465D1*
X3714998Y2624033D1*
X3705437D1*
X3698252Y2626465D1*
X3693443Y2631218D1*
X3742376Y2674273D2*
X3754369Y2624033D1*
X3766307Y2674273D1*
X3778246Y2624033D1*
X3790239Y2674273D1*
X3822425D2*
Y2624033D1*
X3805678Y2674273D2*
X3839172D1*
X3890481Y2662335D2*
X3888104Y2667088D1*
X3883296Y2671896D1*
X3878543Y2674273D1*
X3868981D1*
X3864173Y2671896D1*
X3859419Y2667088D1*
X3856988Y2662335D1*
X3854611Y2655150D1*
Y2643156D1*
X3856988Y2636026D1*
X3859419Y2631218D1*
X3864173Y2626465D1*
X3868981Y2624033D1*
X3878543D1*
X3883296Y2626465D1*
X3888104Y2631218D1*
X3890481Y2636026D1*
X3905920Y2674273D2*
Y2624033D1*
X3939414Y2674273D2*
Y2624033D1*
X3905920Y2650341D2*
X3939414D1*
X3957285Y2662279D2*
Y2664656D1*
X3959661Y2669464D1*
X3962038Y2671841D1*
X3966846Y2674218D1*
X3976408D1*
X3981161Y2671841D1*
X3983538Y2669464D1*
X3985970Y2664656D1*
Y2659903D1*
X3983538Y2655094D1*
X3978784Y2647965D1*
X3954853Y2624033D1*
X3988346D1*
X957538Y3576515D2*
X1007778Y3595639D1*
X957538Y3614762D1*
Y3630201D2*
X1007778D1*
Y3658886D1*
X957538Y3691072D2*
X1007778D1*
X957538Y3674325D2*
Y3707818D1*
X981470Y3723258D2*
Y3744758D1*
X979038Y3751943D1*
X976661Y3754374D1*
X971908Y3756751D1*
X967100D1*
X962347Y3754374D1*
X959915Y3751943D1*
X957538Y3744758D1*
Y3723258D1*
X1007778D1*
X981470Y3740004D2*
X1007778Y3756751D1*
X957538Y3803252D2*
Y3772190D1*
X1007778D1*
Y3803252D1*
X981470Y3772190D2*
Y3791314D1*
X969476Y3854561D2*
X964723Y3852184D1*
X959915Y3847376D1*
X957538Y3842623D1*
Y3833061D1*
X959915Y3828253D1*
X964723Y3823499D1*
X969476Y3821068D1*
X976661Y3818691D1*
X988655D1*
X995785Y3821068D1*
X1000593Y3823499D1*
X1005346Y3828253D1*
X1007778Y3833061D1*
Y3842623D1*
X1005346Y3847376D1*
X1000593Y3852184D1*
X995785Y3854561D1*
X988655D1*
Y3842623D1*
M02*
