G04 DipTrace 3.2.0.1*
G04 BottomMask.gbr*
%MOIN*%
G04 #@! TF.FileFunction,Soldermask,Bot*
G04 #@! TF.Part,Single*
%ADD34C,0.055874*%
%ADD36C,0.070874*%
%ADD38R,0.070874X0.070874*%
%ADD40O,0.125984X0.074803*%
%ADD42O,0.086614X0.169291*%
%ADD44C,0.066929*%
%ADD46R,0.066929X0.066929*%
%ADD48C,0.061024*%
%ADD52C,0.072835*%
%FSLAX26Y26*%
G04*
G70*
G90*
G75*
G01*
G04 BotMask*
%LPD*%
D52*
X1943701Y1593701D3*
X2143701D3*
X1943701Y1243701D3*
X2143701D3*
X1051181Y2237270D3*
X1251181D3*
D48*
X993701Y1693701D3*
X1249606D3*
Y1486614D3*
X993701D3*
D52*
X1243701Y1243701D3*
X1043701D3*
X1693701D3*
X1493701D3*
X843701D3*
X643701D3*
D46*
X2293701Y1793701D3*
D44*
Y1693701D3*
Y1593701D3*
Y1493701D3*
Y1393701D3*
Y1293701D3*
Y1193701D3*
Y1093701D3*
X2593701D3*
Y1193701D3*
Y1293701D3*
Y1393701D3*
Y1493701D3*
Y1593701D3*
Y1693701D3*
Y1793701D3*
D52*
X2093701Y543701D3*
X1893701D3*
D48*
X2143701Y843701D3*
X1887795D3*
D46*
X2143701Y2043701D3*
D44*
X2243701D3*
X2343701D3*
X2443701D3*
X2543701D3*
X2643701D3*
X2743701D3*
X2843701D3*
Y2343701D3*
X2743701D3*
X2643701D3*
X2543701D3*
X2443701D3*
X2343701D3*
X2243701D3*
X2143701D3*
D52*
X2643701Y2493701D3*
Y2693701D3*
X2743701Y1593701D3*
X2943701D3*
X2743701Y1243701D3*
X2943701D3*
D46*
X1493701Y2543701D3*
D44*
Y2443701D3*
Y2343701D3*
Y2243701D3*
Y2143701D3*
Y2043701D3*
Y1943701D3*
X1793701D3*
Y2043701D3*
Y2143701D3*
Y2243701D3*
Y2343701D3*
Y2443701D3*
Y2543701D3*
D52*
X1893701Y2543655D3*
X2093701D3*
D48*
X1437795Y1500787D3*
X1693701D3*
Y1693701D3*
X1437795D3*
D42*
X2443701Y693701D3*
D40*
X2266535D3*
D38*
X743701Y2493701D3*
D36*
X843701D3*
X943701D3*
X1043701D3*
X1143701D3*
X743701Y2593701D3*
X843701D3*
X943701D3*
X1043701D3*
X1143701D3*
D52*
X797703Y2241601D3*
X597703D3*
D48*
X593701Y1693701D3*
X849606D3*
X843701Y1493701D3*
X587795D3*
D34*
X693701Y943701D3*
X883701D3*
D52*
X688701Y693701D3*
X888701D3*
M02*
