M48
INCH
T01C0.0191
T02C0.0315
T03C0.032
T04C0.0354
T05C0.0394
T06C0.0512
%
T01
X+008437Y+023331
X+011420Y+020937
X+025937Y+020927
T02
X+009937Y+016937
X+008496Y+016937
X+008437Y+014937
X+009937Y+014866
X+012496Y+014866
X+014378Y+015008
X+014378Y+016937
X+012496Y+016937
X+016937Y+016937
X+016937Y+015008
X+018878Y+008437
X+021437Y+008437
X+005878Y+014937
X+005937Y+016937
T03
X+006937Y+009437
X+008837Y+009437
T04
X+022937Y+017937
X+022937Y+016937
X+022937Y+015937
X+022937Y+014937
X+022937Y+013937
X+022937Y+012937
X+022937Y+011937
X+022937Y+010937
X+025937Y+010937
X+025937Y+011937
X+025937Y+012937
X+025937Y+013937
X+025937Y+014937
X+025937Y+015937
X+025937Y+016937
X+025937Y+017937
X+025437Y+020437
X+024437Y+020437
X+023437Y+020437
X+022437Y+020437
X+021437Y+020437
X+021437Y+023437
X+022437Y+023437
X+023437Y+023437
X+024437Y+023437
X+025437Y+023437
X+026437Y+023437
X+027437Y+023437
X+028437Y+023437
X+028437Y+020437
X+027437Y+020437
X+026437Y+020437
X+017937Y+020437
X+017937Y+019437
X+017937Y+021437
X+017937Y+022437
X+017937Y+023437
X+017937Y+024437
X+017937Y+025437
X+014937Y+025437
X+014937Y+024437
X+014937Y+023437
X+014937Y+022437
X+014937Y+021437
X+014937Y+020437
X+014937Y+019437
T05
X+019437Y+015937
X+021437Y+015937
X+021437Y+012437
X+019437Y+012437
X+016937Y+012437
X+014937Y+012437
X+012437Y+012437
X+010437Y+012437
X+008437Y+012437
X+006437Y+012437
X+006887Y+006937
X+008887Y+006937
X+018937Y+005437
X+020937Y+005437
X+022921Y+006937G85X+022409Y+006937
X+027437Y+012437
X+029437Y+012437
X+029437Y+015937
X+027437Y+015937
X+026437Y+024937
X+026437Y+026937
X+020937Y+025437
X+018937Y+025437
X+012512Y+022373
X+010512Y+022373
X+007977Y+022416
X+005977Y+022416
X+007437Y+024937
X+007437Y+025937
X+008437Y+025937
X+009437Y+025937
X+010437Y+025937
X+010437Y+024937
X+009437Y+024937
X+008437Y+024937
X+011437Y+024937
X+011437Y+025937
T06
X+024437Y+006524G85X+024437Y+007350
T00
M30
