G04 DipTrace 3.2.0.1*
G04 Top.gbr*
%MOIN*%
G04 #@! TF.FileFunction,Copper,L1,Top*
G04 #@! TF.Part,Single*
G04 #@! TA.AperFunction,Conductor*
%ADD13C,0.012992*%
G04 #@! TA.AperFunction,ComponentPad*
%ADD14C,0.064961*%
%ADD15R,0.07874X0.023622*%
G04 #@! TA.AperFunction,ComponentPad*
%ADD16C,0.05315*%
%ADD17R,0.059055X0.059055*%
%ADD18C,0.059055*%
%ADD19O,0.07874X0.161417*%
%ADD20O,0.11811X0.066929*%
%ADD21R,0.063X0.063*%
%ADD22C,0.063*%
%ADD23C,0.048*%
G04 #@! TA.AperFunction,ViaPad*
%ADD24C,0.04*%
%FSLAX26Y26*%
G04*
G70*
G90*
G75*
G01*
G04 Top*
%LPD*%
X1893701Y543701D2*
D13*
X1945670Y595670D1*
X2319095D1*
X2345079Y621654D1*
Y945079D1*
X2593701Y1193701D1*
X2293701Y1693701D2*
X2493701Y1493701D1*
X2593701D1*
X2143701Y1593701D2*
X2043701Y1693701D1*
X1693701D1*
X1631890Y1631890D1*
X1128544D1*
Y1917716D1*
X1102559Y1943701D1*
X1043701D1*
X1251181Y2237270D2*
X1194881Y2293571D1*
X649673D1*
X597703Y2241601D1*
X2843701Y2343701D2*
X2743701D1*
X993701Y1486614D2*
X1102560D1*
X1128544Y1512598D1*
Y1631890D1*
X593701Y1943701D2*
X534839D1*
Y1546657D1*
X587795Y1493701D1*
X597703Y2241601D2*
X652559Y2186746D1*
Y1943701D1*
X593701D1*
X2543701Y2343701D2*
X2443701D1*
X2743701D2*
X2694685Y2392717D1*
X2592717D1*
X2543701Y2343701D1*
X1493701D2*
X1644685Y2192717D1*
X2594685D1*
X2743701Y2043701D1*
X2593701Y2092717D2*
X1417716D1*
X1391732Y2118701D1*
Y2307075D1*
X1365748Y2333059D1*
X843701D1*
X943701Y2493701D2*
X866732Y2416732D1*
X560823D1*
X534839Y2390748D1*
Y2093701D1*
X593701D1*
X1493701Y2543701D2*
X1366729Y2670673D1*
X1020673D1*
X943701Y2593701D1*
X2143701Y2043701D2*
X2243701D1*
X2543701D2*
X2643701D1*
X2443701D2*
X2543701D1*
X2343701D2*
X2443701D1*
X2243701D2*
X2343701D1*
X1043701Y2493701D2*
X1094689Y2442713D1*
X1392225D1*
X1393213Y2443701D1*
X1493701D1*
X1598709D1*
X1749693Y2292717D1*
X2594685D1*
X2843701Y2043701D1*
X1142047Y2093701D2*
X1043701D1*
X593701Y1693701D2*
X678544Y1778544D1*
Y1917717D1*
X704528Y1943701D1*
X806299D1*
X1249606Y1693701D2*
X1315158Y1759252D1*
Y1943701D1*
X1256299D1*
X2143701Y2343701D2*
X2243701D1*
X2343701D1*
X2293701Y1093701D2*
X1393701D1*
X1243701Y1243701D1*
X2293701Y1193701D2*
X2193701D1*
X2191732Y1191732D1*
X1745670D1*
X1693701Y1243701D1*
X2293701Y1293701D2*
X2193701D1*
X2191732Y1295670D1*
X895670D1*
X843701Y1243701D1*
X693701Y943701D2*
X737189Y987189D1*
Y1388579D1*
X763173Y1414563D1*
X2114563D1*
X2293701Y1593701D1*
X2266535Y693701D2*
X2037795D1*
X1887795Y843701D1*
X2643701Y2493701D2*
X2568701Y2418701D1*
X2018655D1*
X1893701Y2543655D1*
X2593701Y1693701D2*
X2843701D1*
X2943701Y1593701D1*
X806299Y2093701D2*
X747437D1*
Y2137662D1*
X797703Y2187928D1*
Y2241601D1*
X901643Y2137662D1*
X1025197D1*
X1051181Y2163646D1*
X1155552D1*
X1181536Y2137662D1*
Y2093701D1*
X1256299D1*
X1893701Y2543655D2*
X1793701Y2543701D1*
X1051181Y2163646D2*
Y2237270D1*
D24*
X843701Y2333059D3*
X2593701Y2092717D3*
X1142047Y2093701D3*
D14*
X1943701Y1593701D3*
X2143701D3*
X1943701Y1243701D3*
X2143701D3*
X1051181Y2237270D3*
X1251181D3*
D15*
X1043701Y2093701D3*
Y2043701D3*
Y1993701D3*
Y1943701D3*
X1256299D3*
Y1993701D3*
Y2043701D3*
Y2093701D3*
D16*
X993701Y1693701D3*
X1249606D3*
Y1486614D3*
X993701D3*
D14*
X1243701Y1243701D3*
X1043701D3*
X1693701D3*
X1493701D3*
X843701D3*
X643701D3*
D17*
X2293701Y1793701D3*
D18*
Y1693701D3*
Y1593701D3*
Y1493701D3*
Y1393701D3*
Y1293701D3*
Y1193701D3*
Y1093701D3*
X2593701D3*
Y1193701D3*
Y1293701D3*
Y1393701D3*
Y1493701D3*
Y1593701D3*
Y1693701D3*
Y1793701D3*
D14*
X2093701Y543701D3*
X1893701D3*
D16*
X2143701Y843701D3*
X1887795D3*
D17*
X2143701Y2043701D3*
D18*
X2243701D3*
X2343701D3*
X2443701D3*
X2543701D3*
X2643701D3*
X2743701D3*
X2843701D3*
Y2343701D3*
X2743701D3*
X2643701D3*
X2543701D3*
X2443701D3*
X2343701D3*
X2243701D3*
X2143701D3*
D14*
X2643701Y2493701D3*
Y2693701D3*
X2743701Y1593701D3*
X2943701D3*
X2743701Y1243701D3*
X2943701D3*
D17*
X1493701Y2543701D3*
D18*
Y2443701D3*
Y2343701D3*
Y2243701D3*
Y2143701D3*
Y2043701D3*
Y1943701D3*
X1793701D3*
Y2043701D3*
Y2143701D3*
Y2243701D3*
Y2343701D3*
Y2443701D3*
Y2543701D3*
D14*
X1893701Y2543655D3*
X2093701D3*
D16*
X1437795Y1500787D3*
X1693701D3*
Y1693701D3*
X1437795D3*
D19*
X2443701Y693701D3*
D20*
X2266535D3*
D21*
X743701Y2493701D3*
D22*
X843701D3*
X943701D3*
X1043701D3*
X1143701D3*
X743701Y2593701D3*
X843701D3*
X943701D3*
X1043701D3*
X1143701D3*
D14*
X797703Y2241601D3*
X597703D3*
D15*
X593701Y2093701D3*
Y2043701D3*
Y1993701D3*
Y1943701D3*
X806299D3*
Y1993701D3*
Y2043701D3*
Y2093701D3*
D16*
X593701Y1693701D3*
X849606D3*
X843701Y1493701D3*
X587795D3*
D23*
X693701Y943701D3*
X883701D3*
D14*
X688701Y693701D3*
X888701D3*
M02*
